<svg width="640" height="640" version="1.1" xmlns="http://www.w3.org/2000/svg" desc="Created with imagetracer.js version 1.2.6" ><path fill="rgb(0,1,2)" stroke="rgb(0,1,2)" stroke-width="1" opacity="0" d="M 0 0 L 275.5 0 Q 276.7 2.3 281.5 1 L 282.5 0 L 293.5 0 L 293.5 1 L 275.5 2 L 248.5 7 Q 218.9 13.9 193.5 25 Q 140.1 48.1 101.5 86 L 102.5 83 L 100 84.5 L 100 86.5 L 77.5 110 Q 76.3 107.8 75 110.5 L 75.5 112 L 77 111.5 L 72.5 116 L 71 115.5 L 72 117.5 Q 69.5 122.3 67 120.5 L 68 122.5 L 63 126.5 Q 65.7 128.2 61.5 130 L 60 129.5 L 61 131.5 L 57 133.5 L 57.5 135 L 59 134.5 Q 57 138.2 55 136.5 L 56 138.5 L 52 140.5 L 52.5 142 L 54 141.5 L 51 142.5 L 52 144.5 L 49 145.5 L 50 147.5 L 45.5 154 L 44 153.5 L 45 155.5 L 42 156.5 L 42.5 158 L 44 157.5 L 41 158.5 L 42 160.5 L 40 160.5 L 41 162.5 L 38 163.5 L 38.5 165 L 40 164.5 L 37.5 168 L 36 167.5 L 37 169.5 L 35.5 172 L 34.5 170 L 34 172.5 L 34.5 174 L 33 173.5 L 34 175.5 L 32 175.5 L 33 177.5 L 30 178.5 L 27 185.5 L 29 185.5 L 22.5 200 L 21 199.5 L 22 202.5 L 20.5 205 L 19.5 203 L 19 205.5 L 20 207.5 L 16.5 216 L 15.5 214 L 15 216.5 L 16 218.5 L 15 218.5 L 14.5 217 L 14 219.5 L 15 222.5 L 11.5 232 L 10.5 229 L 10 232.5 L 11 235.5 L 4 263.5 L 0.5 293 L 0 283.5 Q 2.5 282 1 276.5 L 0 275.5 L 0 0 Z M 270 1 L 270 2 L 275 2 L 270 1 Z M 264 2 L 264 3 L 268 3 L 264 2 Z M 259 3 L 259 4 L 263 4 L 259 3 Z M 254 4 L 254 5 L 257 5 L 254 4 Z M 249 5 L 249 6 L 253 6 L 249 5 Z M 245 6 L 245 7 L 248 7 L 245 6 Z M 241 7 L 241 8 L 244 8 L 241 7 Z M 238 8 L 238 9 L 240 9 L 238 8 Z M 234 9 L 234 10 L 236 10 L 234 9 Z M 230 10 L 230 11 L 232 11 L 230 10 Z M 227 11 L 227 12 L 229 12 L 227 11 Z M 224 12 L 224 13 L 226 13 L 224 12 Z M 209 17 L 209 18 L 211 18 L 209 17 Z M 85 100 L 82 104 L 85 102 L 85 100 Z M 14 220 L 13 223 L 14 223 L 14 220 Z M 13 223 L 12 226 L 13 226 L 13 223 Z M 12 226 L 11 229 L 12 229 L 12 226 Z M 10 233 L 9 236 L 10 236 L 10 233 Z M 9 237 L 8 240 L 9 240 L 9 237 Z M 8 240 L 7 244 L 8 244 L 8 240 Z M 7 245 L 6 248 L 7 248 L 7 245 Z M 6 249 L 5 253 L 6 253 L 6 249 Z M 5 253 L 4 258 L 5 258 L 5 253 Z M 4 258 L 3 263 L 4 263 L 4 258 Z M 3 263 L 2 268 L 3 268 L 3 263 Z M 2 269 L 1 275 L 2 275 L 2 269 Z " /><path fill="rgb(0,1,2)" stroke="rgb(0,1,2)" stroke-width="1" opacity="0" d="M 347.5 0 L 363.5 1 L 364.5 0 L 640 0 L 640 275.5 Q 637.5 277 639 282.5 L 640 283.5 L 640 292.5 L 639 292.5 L 639 283.5 L 638 282.5 L 638 275.5 L 637 274.5 L 635 257.5 L 629 233.5 L 630 229.5 L 629 229.5 L 628.5 232 L 625 220.5 L 626 217.5 L 625 217.5 L 624.5 219 L 620 206.5 L 621 203.5 L 620 203.5 L 619.5 205 L 618 201.5 L 619 199.5 L 617 199.5 L 616 196.5 L 617 193.5 L 616 193.5 L 615.5 195 L 612 187.5 L 613 184.5 L 609.5 179 L 608 179.5 L 609 177.5 L 607 177.5 L 608 175.5 L 606 175.5 L 607 173.5 L 605 173.5 L 606 170.5 L 605 170.5 L 604.5 172 L 603 169.5 L 604 167.5 L 601 166.5 L 600 164.5 L 602 164.5 L 600.5 162 L 599 162.5 L 600 160.5 L 598 160.5 L 599 158.5 L 596 157.5 L 598 157.5 L 596.5 155 L 595 155.5 L 596 153.5 L 593 152.5 L 594 150.5 L 591 149.5 L 590 147.5 L 591 145.5 L 588 144.5 L 590 144.5 L 588.5 142 Q 587.3 144.3 586 141.5 L 588 141.5 L 586.5 139 Q 585.3 141.3 584 138.5 L 585 136.5 Q 583 138.2 581 134.5 L 583 134.5 L 581.5 132 Q 580.3 134.3 579 131.5 L 580 129.5 Q 578 131.2 576 127.5 L 577 125.5 Q 574.5 127.3 572 122.5 L 572.5 121 L 568 117.5 L 569 115.5 L 567.5 116 L 563 111.5 L 565 111.5 L 563.5 109 L 562.5 110 L 554 101.5 L 556 100.5 Q 554.8 97.8 553.5 100 L 540 86.5 L 538.5 83 L 538 84.5 L 538.5 86 Q 503.2 51.3 455.5 29 Q 431.3 17.7 403.5 10 L 364.5 2 L 347.5 1 L 347.5 0 Z M 366 1 L 366 2 L 371 2 L 366 1 Z M 373 2 L 373 3 L 377 3 L 373 2 Z M 378 3 L 378 4 L 382 4 L 378 3 Z M 384 4 L 384 5 L 387 5 L 384 4 Z M 389 5 L 389 6 L 392 6 L 389 5 Z M 393 6 L 393 7 L 396 7 L 393 6 Z M 397 7 L 397 8 L 400 8 L 397 7 Z M 401 8 L 401 9 L 403 9 L 401 8 Z M 405 9 L 405 10 L 407 10 L 405 9 Z M 409 10 L 409 11 L 411 11 L 409 10 Z M 415 12 L 415 13 L 417 13 L 415 12 Z M 430 17 L 430 18 L 432 18 L 430 17 Z M 557 101 L 556 103 L 558 104 L 557 101 Z M 624 211 L 623 214 L 624 214 L 624 211 Z M 625 214 L 624 217 L 625 217 L 625 214 Z M 627 220 L 626 223 L 627 223 L 627 220 Z M 628 223 L 627 226 L 628 226 L 628 223 Z M 629 226 L 628 229 L 629 229 L 629 226 Z M 631 233 L 630 236 L 631 236 L 631 233 Z M 632 237 L 631 240 L 632 240 L 632 237 Z M 633 240 L 632 244 L 633 244 L 633 240 Z M 634 245 L 633 248 L 634 248 L 634 245 Z M 635 249 L 634 253 L 635 253 L 635 249 Z M 636 253 L 635 257 L 636 257 L 636 253 Z M 637 259 L 636 263 L 637 263 L 637 259 Z M 638 263 L 637 269 L 638 269 L 638 263 Z M 639 269 L 638 275 L 639 275 L 639 269 Z " /><path fill="rgb(0,1,2)" stroke="rgb(0,1,2)" stroke-width="1" opacity="0" d="M 0.5 346 L 4 376.5 L 11 406.5 L 10 410.5 L 11 410.5 L 11.5 408 L 15 419.5 L 14 422.5 L 15 422.5 L 15.5 421 L 22 438.5 L 21 440.5 L 23 440.5 L 29 454.5 L 27 454.5 L 32.5 465 L 34 464.5 L 33 467.5 L 34.5 470 L 35.5 468 L 37 470.5 L 36 472.5 L 39 473.5 L 40 475.5 L 38 475.5 L 39.5 478 L 41 477.5 L 40 479.5 L 42 479.5 L 41 481.5 L 44 482.5 L 42 482.5 L 43.5 485 L 45 484.5 L 44 486.5 L 47 487.5 L 50 492.5 L 49 494.5 L 52 495.5 L 51 497.5 L 54 498.5 L 53 500.5 L 56 501.5 L 55 503.5 Q 57 501.8 59 505.5 L 57 505.5 L 58.5 508 Q 59.8 505.8 61 508.5 L 60 510.5 Q 62 508.8 64 512.5 L 63.5 514 L 68 517.5 L 72 522.5 L 71 524.5 L 72.5 524 L 77 528.5 L 75 528.5 L 76.5 531 L 77.5 530 L 86 538.5 L 82 536.5 L 85.5 541 L 86.5 540 L 100 553.5 L 101.5 557 L 103 556.5 L 101.5 554 Q 140.1 591.9 193.5 615 Q 218.9 626.1 248.5 633 L 275.5 638 L 294 639.5 L 283.5 640 Q 282 637.5 276.5 639 L 275.5 640 L 0 640 L 0 364.5 Q 2.5 363 1 357.5 L 0 356.5 L 0.5 346 Z M 2 365 L 1 371 L 2 371 L 2 365 Z M 3 372 L 2 377 L 3 377 L 3 372 Z M 4 377 L 3 382 L 4 382 L 4 377 Z M 5 382 L 4 387 L 5 387 L 5 382 Z M 6 387 L 5 391 L 6 391 L 6 387 Z M 7 392 L 6 395 L 7 395 L 7 392 Z M 8 396 L 7 400 L 8 400 L 8 396 Z M 9 400 L 8 403 L 9 403 L 9 400 Z M 10 404 L 9 407 L 10 407 L 10 404 Z M 12 411 L 11 414 L 12 414 L 12 411 Z M 13 414 L 12 417 L 13 417 L 13 414 Z M 14 417 L 13 420 L 14 420 L 14 417 Z M 16 423 L 15 426 L 16 426 L 16 423 Z M 20 434 L 19 437 L 20 437 L 20 434 Z M 209 622 L 209 623 L 211 623 L 209 622 Z M 221 626 L 221 627 L 223 627 L 221 626 Z M 224 627 L 224 628 L 226 628 L 224 627 Z M 227 628 L 227 629 L 229 629 L 227 628 Z M 230 629 L 230 630 L 232 630 L 230 629 Z M 234 630 L 234 631 L 236 631 L 234 630 Z M 238 631 L 238 632 L 240 632 L 238 631 Z M 241 632 L 241 633 L 244 633 L 241 632 Z M 245 633 L 245 634 L 248 634 L 245 633 Z M 250 634 L 250 635 L 253 635 L 250 634 Z M 254 635 L 254 636 L 257 636 L 254 635 Z M 259 636 L 259 637 L 263 637 L 259 636 Z M 264 637 L 264 638 L 268 638 L 264 637 Z M 270 638 L 270 639 L 275 639 L 270 638 Z " /><path fill="rgb(0,1,2)" stroke="rgb(0,1,2)" stroke-width="1" opacity="0" d="M 639.5 347 L 640 356.5 Q 637.5 358 639 363.5 L 640 364.5 L 640 640 L 364.5 640 Q 363 637.5 357.5 639 L 356.5 640 L 347.5 640 L 347.5 639 L 364.5 638 L 403.5 630 Q 431.3 622.3 455.5 611 Q 503.2 588.7 538.5 554 L 537.5 557 L 540 555.5 L 540 553.5 L 553.5 540 L 554.5 541 L 558 537.5 L 557.5 536 L 554 538.5 L 562.5 530 Q 563.8 532.3 565 529.5 L 564.5 528 L 563 528.5 L 567.5 524 L 569 524.5 L 568 522.5 L 575.5 514 L 577 514.5 L 576 512.5 Q 578 508.8 580 510.5 L 579 508.5 L 583 506.5 L 582.5 505 L 581 505.5 Q 583 501.8 585 503.5 L 584 501.5 L 588 499.5 L 587.5 498 L 586 498.5 L 589 497.5 L 588 495.5 L 591 494.5 L 590 492.5 L 594.5 486 L 596 486.5 L 595 484.5 L 598 483.5 L 597.5 482 L 596 482.5 L 599 481.5 L 598 479.5 L 600 479.5 L 599 477.5 L 602 476.5 L 601.5 475 L 600 475.5 L 602.5 472 L 604 472.5 L 603 470.5 L 604.5 468 L 605.5 470 L 607 465.5 L 606.5 464 L 608 464.5 L 607 462.5 L 610 461.5 L 613 454.5 L 611 454.5 L 617.5 440 L 619 440.5 L 618 437.5 L 619.5 435 L 621 435.5 L 620 432.5 L 623.5 424 L 624.5 426 L 625 423.5 L 624 421.5 L 625 421.5 L 625.5 423 L 626 420.5 L 625 417.5 L 628.5 408 L 629.5 410 L 630 407.5 L 629 404.5 L 634.5 383 L 635.5 387 L 636 382.5 L 635 377.5 L 638 364.5 L 639.5 347 Z M 639 365 L 638 371 L 639 371 L 639 365 Z M 638 371 L 637 377 L 638 377 L 638 371 Z M 637 377 L 636 382 L 637 382 L 637 377 Z M 635 387 L 634 391 L 635 391 L 635 387 Z M 634 392 L 633 395 L 634 395 L 634 392 Z M 633 396 L 632 400 L 633 400 L 633 396 Z M 632 400 L 631 403 L 632 403 L 632 400 Z M 631 404 L 630 407 L 631 407 L 631 404 Z M 629 411 L 628 414 L 629 414 L 629 411 Z M 628 414 L 627 417 L 628 417 L 628 414 Z M 624 426 L 623 429 L 624 429 L 624 426 Z M 430 622 L 430 623 L 432 623 L 430 622 Z M 415 627 L 415 628 L 417 628 L 415 627 Z M 409 629 L 409 630 L 411 630 L 409 629 Z M 405 630 L 405 631 L 407 631 L 405 630 Z M 401 631 L 401 632 L 403 632 L 401 631 Z M 397 632 L 397 633 L 400 633 L 397 632 Z M 393 633 L 393 634 L 396 634 L 393 633 Z M 389 634 L 389 635 L 391 635 L 389 634 Z M 384 635 L 384 636 L 387 636 L 384 635 Z M 378 636 L 378 637 L 382 637 L 378 636 Z M 373 637 L 373 638 L 377 638 L 373 637 Z M 366 638 L 366 639 L 371 639 L 366 638 Z " /><path fill="rgb(63,158,225)" stroke="rgb(63,158,225)" stroke-width="1" opacity="0.9921568627450981" d="M 279.5 0 L 282 0.5 L 279.5 1 L 279.5 0 Z " /><path fill="rgb(63,158,225)" stroke="rgb(63,158,225)" stroke-width="1" opacity="0.9921568627450981" d="M 294.5 0 L 299 0.5 L 295.5 2 L 294.5 0 Z " /><path fill="rgb(63,158,225)" stroke="rgb(63,158,225)" stroke-width="1" opacity="0.9921568627450981" d="M 317.5 0 L 323 0.5 L 317.5 1 L 317.5 0 Z " /><path fill="rgb(63,158,225)" stroke="rgb(63,158,225)" stroke-width="1" opacity="0.9921568627450981" d="M 341.5 0 L 347 0.5 L 343.5 2 L 341.5 0 Z " /><path fill="rgb(63,158,225)" stroke="rgb(63,158,225)" stroke-width="1" opacity="0.9921568627450981" d="M 358.5 0 L 362 0.5 L 358.5 1 L 358.5 0 Z " /><path fill="rgb(63,158,225)" stroke="rgb(63,158,225)" stroke-width="1" opacity="0.9921568627450981" d="M 272.5 1 L 278.5 4 L 285 4.5 L 278.5 5 L 272.5 2 L 272.5 1 Z " /><path fill="rgb(63,158,225)" stroke="rgb(63,158,225)" stroke-width="1" opacity="0.9921568627450981" d="M 365.5 1 L 368 1.5 L 361.5 5 L 355.5 5 L 355.5 4 Q 363.3 5.3 365.5 1 Z " /><path fill="rgb(63,158,225)" stroke="rgb(63,158,225)" stroke-width="1" opacity="0.9921568627450981" d="M 263.5 2 L 265 2.5 L 263 3.5 L 263.5 5 L 258 3.5 L 263.5 2 Z " /><path fill="rgb(63,158,225)" stroke="rgb(63,158,225)" stroke-width="1" opacity="0.9921568627450981" d="M 284.5 2 L 297 3.5 L 286.5 4 L 284.5 2 Z " /><path fill="rgb(63,158,225)" stroke="rgb(63,158,225)" stroke-width="1" opacity="0.9921568627450981" d="M 299.5 2 L 315 2.5 L 299.5 3 L 299.5 2 Z " /><path fill="rgb(63,158,225)" stroke="rgb(63,158,225)" stroke-width="1" opacity="0.9921568627450981" d="M 325.5 2 L 341 2.5 L 325.5 3 L 325.5 2 Z " /><path fill="rgb(63,158,225)" stroke="rgb(63,158,225)" stroke-width="1" opacity="0.9921568627450981" d="M 354.5 2 L 356 2.5 Q 352.4 5.9 343.5 4 L 343.5 3 L 353.5 3 L 354.5 2 Z " /><path fill="rgb(63,158,225)" stroke="rgb(63,158,225)" stroke-width="1" opacity="0.9921568627450981" d="M 373.5 2 L 382 3.5 L 376.5 5 L 376.5 3 Q 372.5 3.7 373.5 2 Z " /><path fill="rgb(63,158,225)" stroke="rgb(63,158,225)" stroke-width="1" opacity="0.9921568627450981" d="M 269.5 3 Q 271.2 6.3 277 5.5 L 271.5 6 L 269.5 3 Z " /><path fill="rgb(63,158,225)" stroke="rgb(63,158,225)" stroke-width="1" opacity="0.9921568627450981" d="M 253.5 4 L 256 4.5 L 237.5 9 L 237.5 8 L 253.5 4 Z " /><path fill="rgb(63,158,225)" stroke="rgb(63,158,225)" stroke-width="1" opacity="0.9921568627450981" d="M 369.5 4 L 368.5 6 L 363 5.5 L 369.5 4 Z " /><path fill="rgb(63,158,225)" stroke="rgb(63,158,225)" stroke-width="1" opacity="0.9921568627450981" d="M 389.5 5 L 398 7.5 L 395.5 9 L 395.5 7 L 389.5 6 L 389.5 5 Z " /><path fill="rgb(63,158,225)" stroke="rgb(63,158,225)" stroke-width="1" opacity="0.9921568627450981" d="M 265.5 6 L 270 6.5 L 265.5 7 L 265.5 6 Z " /><path fill="rgb(63,158,225)" stroke="rgb(63,158,225)" stroke-width="1" opacity="0.9921568627450981" d="M 370.5 6 L 375 6.5 L 370.5 7 L 370.5 6 Z " /><path fill="rgb(63,158,225)" stroke="rgb(63,158,225)" stroke-width="1" opacity="0.9921568627450981" d="M 260.5 7 L 264 7.5 L 260.5 8 L 260.5 7 Z " /><path fill="rgb(63,158,225)" stroke="rgb(63,158,225)" stroke-width="1" opacity="0.9921568627450981" d="M 376.5 7 L 389.5 9 L 391 8.5 Q 390.3 10.8 386.5 10 L 376.5 8 L 376.5 7 Z " /><path fill="rgb(63,158,225)" stroke="rgb(63,158,225)" stroke-width="1" opacity="0.9921568627450981" d="M 399.5 7 L 402 8.5 L 399.5 10 L 399.5 7 Z " /><path fill="rgb(63,158,225)" stroke="rgb(63,158,225)" stroke-width="1" opacity="0.9921568627450981" d="M 254.5 8 L 259 8.5 L 250.5 10 L 250.5 9 L 254.5 8 Z " /><path fill="rgb(63,158,225)" stroke="rgb(63,158,225)" stroke-width="1" opacity="0.9921568627450981" d="M 245.5 10 L 249 10.5 L 234.5 14 L 234.5 13 L 245.5 10 Z " /><path fill="rgb(63,158,225)" stroke="rgb(63,158,225)" stroke-width="1" opacity="0.9921568627450981" d="M 391.5 10 L 409.5 14 L 439 24 L 440.5 21 L 440 22.5 L 439 24.5 Q 508.8 52.7 555 104.5 L 557 107.5 L 574.5 128 L 576 127.5 L 575 129.5 L 579 131.5 L 578 133.5 L 581.5 138 L 584 136.5 L 583.5 135 Q 586.3 136.3 584 137.5 L 583 140.5 L 586.5 145 L 588 142.5 L 585 141.5 L 586 139.5 L 585.5 138 L 591 145.5 L 589 149.5 L 594 157.5 L 592 156.5 Q 568.7 116.3 535.5 86 Q 508.3 60.7 474.5 42 L 433.5 23 L 409.5 15 L 391.5 11 L 391.5 10 Z M 589 144 L 587 146 L 589 148 L 589 147 Q 591 145 589 144 Z " /><path fill="rgb(63,158,225)" stroke="rgb(63,158,225)" stroke-width="1" opacity="0.9921568627450981" d="M 226.5 11 L 225.5 13 L 223 12.5 L 226.5 11 Z " /><path fill="rgb(63,158,225)" stroke="rgb(63,158,225)" stroke-width="1" opacity="0.9921568627450981" d="M 414.5 12 L 417 12.5 L 414.5 13 L 414.5 12 Z " /><path fill="rgb(63,158,225)" stroke="rgb(63,158,225)" stroke-width="1" opacity="0.9921568627450981" d="M 230.5 14 L 233 14.5 L 221.5 18 L 221.5 17 L 230.5 14 Z " /><path fill="rgb(63,158,225)" stroke="rgb(63,158,225)" stroke-width="1" opacity="0.9921568627450981" d="M 214.5 15 L 213.5 17 L 214.5 15 Z " /><path fill="rgb(63,158,225)" stroke="rgb(63,158,225)" stroke-width="1" opacity="0.9921568627450981" d="M 425.5 15 L 428 16.5 L 426.5 17 L 425.5 15 Z " /><path fill="rgb(63,158,225)" stroke="rgb(63,158,225)" stroke-width="1" opacity="0.9921568627450981" d="M 208.5 17 L 207.5 19 L 208.5 17 Z " /><path fill="rgb(63,158,225)" stroke="rgb(63,158,225)" stroke-width="1" opacity="0.9921568627450981" d="M 217.5 18 L 220 18.5 L 190.5 30 L 190.5 29 L 217.5 18 Z " /><path fill="rgb(63,158,225)" stroke="rgb(63,158,225)" stroke-width="1" opacity="0.9921568627450981" d="M 193.5 23 L 193.5 26 Q 190.5 24.5 193.5 23 Z " /><path fill="rgb(63,158,225)" stroke="rgb(63,158,225)" stroke-width="1" opacity="0.9921568627450981" d="M 446.5 23 L 449 24.5 L 447.5 25 L 446.5 23 Z " /><path fill="rgb(63,158,225)" stroke="rgb(63,158,225)" stroke-width="1" opacity="0.9921568627450981" d="M 189.5 25 L 188.5 27 L 189.5 25 Z " /><path fill="rgb(63,158,225)" stroke="rgb(63,158,225)" stroke-width="1" opacity="0.9921568627450981" d="M 182.5 28 L 184 28.5 L 182 29.5 L 182.5 31 L 180.5 30 L 174 33.5 L 174.5 35 L 172.5 34 L 172.5 36 L 170 34.5 L 182.5 28 Z " /><path fill="rgb(63,158,225)" stroke="rgb(63,158,225)" stroke-width="1" opacity="0.9921568627450981" d="M 456.5 28 L 471 35.5 L 469.5 35 L 467.5 36 L 467.5 34 L 464.5 33 L 463 33.5 L 463.5 32 L 456.5 29 L 455 29.5 L 456.5 28 Z " /><path fill="rgb(63,158,225)" stroke="rgb(63,158,225)" stroke-width="1" opacity="0.9921568627450981" d="M 187.5 30 L 189 30.5 Q 128.1 58.1 86 104.5 Q 61.1 131.6 42.5 165 L 40 161.5 L 42.5 163 L 44 161.5 L 43.5 160 L 42 160.5 Q 41.3 158.3 43.5 159 L 45 159.5 L 43.5 157 L 42 156.5 L 43.5 156 Q 45.3 159.8 47 156.5 L 57 139.5 L 55 136.5 L 59.5 131 L 59.5 134 L 56 136.5 L 58.5 138 L 65 128.5 L 64.5 127 L 65.5 128 L 69 124.5 L 68 122.5 Q 70.5 124.3 73 119.5 L 71.5 117 L 67 120.5 L 71.5 115 L 73.5 118 L 78 112.5 L 75 111.5 L 81.5 104 L 77 109.5 L 78 110.5 L 78.5 112 L 83 106 Q 85.7 107.1 85 104.5 L 87 100.5 L 86.5 99 L 82 102.5 L 86.5 98 L 87.5 99 L 90 97.5 L 88 100.5 L 105.5 84 Q 140.9 51.4 187.5 30 Z " /><path fill="rgb(63,158,225)" stroke="rgb(63,158,225)" stroke-width="1" opacity="0.9921568627450981" d="M 478.5 39 L 479.5 41 L 478.5 39 Z " /><path fill="rgb(63,158,225)" stroke="rgb(63,158,225)" stroke-width="1" opacity="0.9921568627450981" d="M 481.5 41 L 480.5 43 L 481.5 41 Z " /><path fill="rgb(63,158,225)" stroke="rgb(63,158,225)" stroke-width="1" opacity="0.9921568627450981" d="M 156.5 42 L 155.5 44 L 156.5 42 Z " /><path fill="rgb(63,158,225)" stroke="rgb(63,158,225)" stroke-width="1" opacity="0.9921568627450981" d="M 153.5 44 L 154.5 46 L 153.5 44 Z " /><path fill="rgb(63,158,225)" stroke="rgb(63,158,225)" stroke-width="1" opacity="0.9921568627450981" d="M 151.5 45 L 149.5 48 L 147.5 49 L 148.5 47 L 151.5 45 Z " /><path fill="rgb(63,158,225)" stroke="rgb(63,158,225)" stroke-width="1" opacity="0.9921568627450981" d="M 487.5 45 L 493 48.5 L 491.5 48 Q 486.8 47.2 487.5 45 Z " /><path fill="rgb(63,158,225)" stroke="rgb(63,158,225)" stroke-width="1" opacity="0.9921568627450981" d="M 494.5 49 L 495.5 51 L 494.5 49 Z " /><path fill="rgb(63,158,225)" stroke="rgb(63,158,225)" stroke-width="1" opacity="0.9921568627450981" d="M 142.5 51 L 143.5 53 L 142.5 51 Z " /><path fill="rgb(63,158,225)" stroke="rgb(63,158,225)" stroke-width="1" opacity="0.9921568627450981" d="M 497.5 51 L 496.5 53 L 497.5 51 Z " /><path fill="rgb(63,158,225)" stroke="rgb(63,158,225)" stroke-width="1" opacity="0.9921568627450981" d="M 499.5 52 L 505 56.5 L 503.5 56 L 500.5 54 L 499 54.5 L 499.5 52 Z " /><path fill="rgb(63,158,225)" stroke="rgb(63,158,225)" stroke-width="1" opacity="0.9921568627450981" d="M 139.5 53 L 140.5 55 Q 139 52.5 137.5 56 L 133.5 58 L 133.5 57 L 139.5 53 Z " /><path fill="rgb(63,158,225)" stroke="rgb(63,158,225)" stroke-width="1" opacity="0.9921568627450981" d="M 131.5 59 L 130.5 61 L 127.5 63 L 129.5 60 L 131.5 59 Z " /><path fill="rgb(63,158,225)" stroke="rgb(63,158,225)" stroke-width="1" opacity="0.9921568627450981" d="M 508.5 59 L 513 62.5 L 510.5 61 L 508.5 59 Z " /><path fill="rgb(63,158,225)" stroke="rgb(63,158,225)" stroke-width="1" opacity="0.9921568627450981" d="M 125.5 63 L 122.5 67 L 121 67.5 L 121.5 69 L 120.5 68 L 117.5 71 L 116 70.5 L 125.5 63 Z " /><path fill="rgb(63,158,225)" stroke="rgb(63,158,225)" stroke-width="1" opacity="0.9921568627450981" d="M 514.5 63 L 516.5 66 L 514.5 63 Z " /><path fill="rgb(63,158,225)" stroke="rgb(63,158,225)" stroke-width="1" opacity="0.9921568627450981" d="M 518.5 66 L 524 70.5 L 522.5 71 Q 520.3 66.7 518 68.5 L 518.5 66 Z " /><path fill="rgb(63,158,225)" stroke="rgb(63,158,225)" stroke-width="1" opacity="0.9921568627450981" d="M 116.5 72 L 115.5 74 L 116.5 72 Z " /><path fill="rgb(63,158,225)" stroke="rgb(63,158,225)" stroke-width="1" opacity="0.9921568627450981" d="M 525.5 72 L 526.5 74 L 525.5 72 Z " /><path fill="rgb(63,158,225)" stroke="rgb(63,158,225)" stroke-width="1" opacity="0.9921568627450981" d="M 110.5 75 L 110.5 78 L 109.5 77 L 105 80.5 L 110.5 75 Z " /><path fill="rgb(63,158,225)" stroke="rgb(63,158,225)" stroke-width="1" opacity="0.9921568627450981" d="M 528.5 75 L 535 80.5 L 529 77.5 L 529.5 76 L 528.5 75 Z " /><path fill="rgb(63,158,225)" stroke="rgb(63,158,225)" stroke-width="1" opacity="0.9921568627450981" d="M 103.5 82 L 101 85.5 L 99.5 88 Q 98.3 85.8 97 88.5 L 97.5 90 Q 94 88 98.5 86 L 100 86.5 L 101.5 83 L 103.5 82 Z " /><path fill="rgb(63,158,225)" stroke="rgb(63,158,225)" stroke-width="1" opacity="0.9921568627450981" d="M 538.5 83 L 540.5 87 Q 542.3 84.2 544 88.5 L 543.5 91 Q 538.2 88.4 538.5 83 Z " /><path fill="rgb(63,158,225)" stroke="rgb(63,158,225)" stroke-width="1" opacity="0.9921568627450981" d="M 95.5 91 L 94.5 93 L 95.5 91 Z " /><path fill="rgb(63,158,225)" stroke="rgb(63,158,225)" stroke-width="1" opacity="0.9921568627450981" d="M 546.5 93 L 549 93.5 Q 546.8 94.8 549.5 96 Q 550.8 93.7 552 96.5 Q 549.8 97.7 552.5 99 L 553.5 98 L 558 102.5 L 556 103 Q 557.3 100 553.5 101 L 546.5 93 Z " /><path fill="rgb(63,158,225)" stroke="rgb(63,158,225)" stroke-width="1" opacity="0.9921568627450981" d="M 90.5 94 L 93 94.5 L 91.5 96 L 89 95.5 L 90.5 94 Z " /><path fill="rgb(63,158,225)" stroke="rgb(63,158,225)" stroke-width="1" opacity="0.9921568627450981" d="M 558.5 104 L 565 111.5 L 563.5 111 L 561 109.5 L 562 108.5 L 558.5 104 Z " /><path fill="rgb(63,158,225)" stroke="rgb(63,158,225)" stroke-width="1" opacity="0.9921568627450981" d="M 566.5 115 L 569 115.5 L 572 119.5 L 568.5 117 L 566.5 115 Z " /><path fill="rgb(63,158,225)" stroke="rgb(63,158,225)" stroke-width="1" opacity="0.9921568627450981" d="M 571.5 121 L 575 123.5 L 572.5 122 L 571.5 121 Z " /><path fill="rgb(63,158,225)" stroke="rgb(63,158,225)" stroke-width="1" opacity="0.9921568627450981" d="M 66.5 122 L 65.5 124 L 66.5 122 Z " /><path fill="rgb(63,158,225)" stroke="rgb(63,158,225)" stroke-width="1" opacity="0.9921568627450981" d="M 62.5 127 L 61.5 131 Q 58 129 62.5 127 Z " /><path fill="rgb(63,158,225)" stroke="rgb(63,158,225)" stroke-width="1" opacity="0.9921568627450981" d="M 580.5 131 L 582.5 134 L 580 133.5 L 580.5 131 Z " /><path fill="rgb(63,158,225)" stroke="rgb(63,158,225)" stroke-width="1" opacity="0.9921568627450981" d="M 54.5 138 L 54.5 141 L 52 142.5 L 53 144.5 L 49 145.5 L 54.5 138 Z " /><path fill="rgb(63,158,225)" stroke="rgb(63,158,225)" stroke-width="1" opacity="0.9921568627450981" d="M 44.5 154 L 45.5 156 L 44.5 154 Z " /><path fill="rgb(63,158,225)" stroke="rgb(63,158,225)" stroke-width="1" opacity="0.9921568627450981" d="M 596.5 156 L 598 156.5 L 595.5 158 L 596.5 156 Z " /><path fill="rgb(63,158,225)" stroke="rgb(63,158,225)" stroke-width="1" opacity="0.9921568627450981" d="M 594.5 159 L 598 164.5 L 596 163.5 L 594.5 159 Z " /><path fill="rgb(63,158,225)" stroke="rgb(63,158,225)" stroke-width="1" opacity="0.9921568627450981" d="M 598.5 159 L 597.5 161 L 598.5 159 Z " /><path fill="rgb(63,158,225)" stroke="rgb(63,158,225)" stroke-width="1" opacity="0.9921568627450981" d="M 38 163 L 40 163.5 L 38 164.5 L 38 163 Z " /><path fill="rgb(63,158,225)" stroke="rgb(63,158,225)" stroke-width="1" opacity="0.9921568627450981" d="M 600.5 163 Q 602.8 162.3 602 164.5 L 606 170.5 L 603.5 171 Q 601.3 170.3 602 172.5 L 609.5 187 L 611 183.5 L 608 181.5 L 609 179.5 L 607.5 177 L 606 177.5 L 607 175 L 605 174.5 L 606.5 174 Q 611.6 179.2 613 187 Q 609.3 185.5 610 188.5 L 613.5 196 L 616 195 L 614 190.5 L 616 191.5 L 617 196 Q 612.9 194.3 614 198.5 L 622 220 L 625 218.5 L 623 211.5 L 624 211.5 L 626 219.5 L 623 221 L 626.5 234 L 629.5 229 L 631 234.5 L 630 234.5 L 629.5 233 L 627 234 L 627.5 237 L 629.5 236 L 629.5 237 Q 626.5 236.1 628 240.5 L 629.5 245 L 631 244.5 L 629.5 249 Q 619.2 202.3 598 166.5 L 600 167.5 L 601.5 171 L 603 167.5 L 600.5 164 L 599 164.5 L 600.5 163 Z " /><path fill="rgb(63,158,225)" stroke="rgb(63,158,225)" stroke-width="1" opacity="0.9921568627450981" d="M 37.5 166 L 37.5 169 L 34.5 171 L 36 168.5 L 37.5 166 Z " /><path fill="rgb(63,158,225)" stroke="rgb(63,158,225)" stroke-width="1" opacity="0.9921568627450981" d="M 41.5 166 L 41 167.5 Q 20.8 203.3 10.5 249 L 10 245.5 L 13 234.5 L 10 233 L 9.5 235 L 9 233.5 L 10.5 229 L 11 232 Q 13.7 230.9 13 233.5 L 14 233.5 L 17 221.5 L 14 220 L 14.5 218 L 18 220 L 30 187 L 27 185.5 L 29 180 L 32 179.5 L 30 178.5 L 33.5 174 Q 36.3 175.3 34 176.5 L 33.5 178 L 32 177.5 L 33 179.5 L 30 181.5 L 30.5 183 L 29 183.5 L 29.5 185 L 28 185.5 L 30.5 187 L 41.5 166 Z " /><path fill="rgb(63,158,225)" stroke="rgb(63,158,225)" stroke-width="1" opacity="0.9921568627450981" d="M 402.5 174 L 404.5 174 L 409 178.5 L 344.5 243 L 343 243 L 339 237.5 L 402.5 174 Z " /><path fill="rgb(63,158,225)" stroke="rgb(63,158,225)" stroke-width="1" opacity="0.9921568627450981" d="M 504.5 185 L 511 190.5 L 486.5 214 L 482 209.5 L 482 207.5 L 504.5 185 Z " /><path fill="rgb(63,158,225)" stroke="rgb(63,158,225)" stroke-width="1" opacity="0.9921568627450981" d="M 25.5 190 L 25 191.5 L 24 194.5 L 24.5 196 L 23 193.5 L 25.5 190 Z " /><path fill="rgb(63,158,225)" stroke="rgb(63,158,225)" stroke-width="1" opacity="0.9921568627450981" d="M 22.5 197 L 23.5 199 L 22.5 197 Z " /><path fill="rgb(63,158,225)" stroke="rgb(63,158,225)" stroke-width="1" opacity="0.9921568627450981" d="M 618.5 199 L 619 201 L 617 200.5 L 618.5 199 Z " /><path fill="rgb(63,158,225)" stroke="rgb(63,158,225)" stroke-width="1" opacity="0.9921568627450981" d="M 20.5 202 L 20 203.5 L 21 205.5 L 19 206 L 20.5 202 Z " /><path fill="rgb(63,158,225)" stroke="rgb(63,158,225)" stroke-width="1" opacity="0.9921568627450981" d="M 619.5 202 L 621 206 L 619 205.5 L 620 203.5 L 619.5 202 Z " /><path fill="rgb(63,158,225)" stroke="rgb(63,158,225)" stroke-width="1" opacity="0.9921568627450981" d="M 18.5 207 L 19.5 209 L 18 208.5 L 17.5 210 L 17 208.5 L 18.5 207 Z " /><path fill="rgb(63,158,225)" stroke="rgb(63,158,225)" stroke-width="1" opacity="0.9921568627450981" d="M 621.5 207 L 623 209.5 L 622 209.5 L 621.5 208 L 620 208.5 L 621.5 207 Z " /><path fill="rgb(63,158,225)" stroke="rgb(63,158,225)" stroke-width="1" opacity="0.9921568627450981" d="M 477.5 212 L 483 218.5 L 469.5 232 L 468 232 L 468 233.5 L 443.5 258 Q 441.3 257.3 442 259.5 L 432.5 269 L 431 269 L 431 270.5 L 349.5 352 L 335 365.5 L 228.5 473 Q 225.9 472.3 227 475 L 224.5 475 L 220 469.5 L 477.5 212 Z " /><path fill="rgb(63,158,225)" stroke="rgb(63,158,225)" stroke-width="1" opacity="0.9921568627450981" d="M 15.5 214 L 17 216.5 L 15 217 L 15.5 214 Z " /><path fill="rgb(63,158,225)" stroke="rgb(63,158,225)" stroke-width="1" opacity="0.9921568627450981" d="M 13.5 221 L 14 222.5 L 11.5 228 L 11 226.5 L 13.5 221 Z " /><path fill="rgb(63,158,225)" stroke="rgb(63,158,225)" stroke-width="1" opacity="0.9921568627450981" d="M 626.5 221 L 629 227.5 L 628 227.5 L 626.5 221 Z " /><path fill="rgb(63,158,225)" stroke="rgb(63,158,225)" stroke-width="1" opacity="0.9921568627450981" d="M 8.5 238 L 9 239.5 L 7 240.5 L 8.5 238 Z " /><path fill="rgb(63,158,225)" stroke="rgb(63,158,225)" stroke-width="1" opacity="0.9921568627450981" d="M 631.5 238 L 633 240.5 L 631 239.5 L 631.5 238 Z " /><path fill="rgb(63,158,225)" stroke="rgb(63,158,225)" stroke-width="1" opacity="0.9921568627450981" d="M 6.5 245 L 7 247.5 L 6 247.5 L 6.5 245 Z " /><path fill="rgb(63,158,225)" stroke="rgb(63,158,225)" stroke-width="1" opacity="0.9921568627450981" d="M 633.5 245 L 634 247.5 Q 630.2 248.3 631 253.5 L 632.5 259 L 635.5 255 L 636 256.5 Q 632 258.1 632.5 264 L 630 250.5 L 633.5 245 Z " /><path fill="rgb(63,158,225)" stroke="rgb(63,158,225)" stroke-width="1" opacity="0.9921568627450981" d="M 8.5 249 Q 10.8 249.8 10 253.5 L 7.5 264 L 6 258.5 L 8 258.5 L 9 250.5 L 8.5 249 Z " /><path fill="rgb(63,158,225)" stroke="rgb(63,158,225)" stroke-width="1" opacity="0.9921568627450981" d="M 634.5 249 L 636 253.5 L 634 252.5 L 634.5 249 Z " /><path fill="rgb(63,158,225)" stroke="rgb(63,158,225)" stroke-width="1" opacity="0.9921568627450981" d="M 5.5 250 L 6 252.5 L 4 253.5 L 5.5 250 Z " /><path fill="rgb(63,158,225)" stroke="rgb(63,158,225)" stroke-width="1" opacity="0.9921568627450981" d="M 4.5 255 L 5 257.5 L 3 258.5 L 4.5 255 Z " /><path fill="rgb(63,158,225)" stroke="rgb(63,158,225)" stroke-width="1" opacity="0.9921568627450981" d="M 3.5 260 L 4 262.5 L 2.5 267 L 2 263.5 L 3.5 260 Z " /><path fill="rgb(63,158,225)" stroke="rgb(63,158,225)" stroke-width="1" opacity="0.9921568627450981" d="M 636.5 260 L 639 270.5 L 638 270.5 L 636.5 263 Q 633 264.5 633.5 270 L 633 265.5 L 636.5 260 Z " /><path fill="rgb(63,158,225)" stroke="rgb(63,158,225)" stroke-width="1" opacity="0.9921568627450981" d="M 5.5 264 Q 8 265 7 269.5 L 6 269.5 L 5.5 264 Z " /><path fill="rgb(63,158,225)" stroke="rgb(63,158,225)" stroke-width="1" opacity="0.9921568627450981" d="M 3.5 269 Q 7.3 270.3 6 276.5 L 5 276.5 Q 5.8 270.3 3.5 269 Z " /><path fill="rgb(63,158,225)" stroke="rgb(63,158,225)" stroke-width="1" opacity="0.9921568627450981" d="M 635.5 270 L 635 271.5 L 634.5 277 L 634 271.5 L 635.5 270 Z " /><path fill="rgb(63,158,225)" stroke="rgb(63,158,225)" stroke-width="1" opacity="0.9921568627450981" d="M 1.5 272 L 5 278.5 L 5 284.5 L 4 284.5 L 4 278.5 Q -0.2 276.6 1.5 272 Z " /><path fill="rgb(63,158,225)" stroke="rgb(63,158,225)" stroke-width="1" opacity="0.9921568627450981" d="M 638.5 272 L 639 274.5 L 638 274.5 L 638.5 272 Z " /><path fill="rgb(63,158,225)" stroke="rgb(63,158,225)" stroke-width="1" opacity="0.9921568627450981" d="M 636 276 L 638 276.5 L 636 278.5 L 635.5 285 L 635 278.5 L 636 276 Z " /><path fill="rgb(63,158,225)" stroke="rgb(63,158,225)" stroke-width="1" opacity="0.9921568627450981" d="M 0.5 278 Q 0.3 284.2 4 286.5 L 4 295.5 L 3 295.5 L 3 286.5 L 0 282.5 L 0.5 278 Z " /><path fill="rgb(63,158,225)" stroke="rgb(63,158,225)" stroke-width="1" opacity="0.9921568627450981" d="M 639.5 278 L 640 282.5 L 639 282.5 L 639.5 278 Z " /><path fill="rgb(63,158,225)" stroke="rgb(63,158,225)" stroke-width="1" opacity="0.9921568627450981" d="M 637.5 284 L 638 285.5 L 637 286.5 L 636.5 296 L 636 286.5 L 637.5 284 Z " /><path fill="rgb(63,158,225)" stroke="rgb(63,158,225)" stroke-width="1" opacity="0.9921568627450981" d="M 0.5 293 L 2 296.5 L 0.5 299 L 0 296.5 L 0 294.5 L 0.5 293 Z " /><path fill="rgb(63,158,225)" stroke="rgb(63,158,225)" stroke-width="1" opacity="0.9921568627450981" d="M 639.5 293 L 640 295.5 L 640 297.5 L 639.5 299 Q 637.3 298.3 638 294.5 L 639.5 293 Z " /><path fill="rgb(63,158,225)" stroke="rgb(63,158,225)" stroke-width="1" opacity="0.9921568627450981" d="M 2.5 299 L 3 314.5 L 2 314.5 L 2.5 299 Z " /><path fill="rgb(63,158,225)" stroke="rgb(63,158,225)" stroke-width="1" opacity="0.9921568627450981" d="M 637.5 299 L 638 314.5 L 637 314.5 L 637.5 299 Z " /><path fill="rgb(63,158,225)" stroke="rgb(63,158,225)" stroke-width="1" opacity="0.9921568627450981" d="M 0.5 300 L 1 302.5 L 0 302.5 L 0.5 300 Z " /><path fill="rgb(63,158,225)" stroke="rgb(63,158,225)" stroke-width="1" opacity="0.9921568627450981" d="M 639.5 302 L 640 307.5 L 639 307.5 L 639.5 302 Z " /><path fill="rgb(63,158,225)" stroke="rgb(63,158,225)" stroke-width="1" opacity="0.9921568627450981" d="M 0.5 304 L 1 308.5 L 0 308.5 L 0.5 304 Z " /><path fill="rgb(63,158,225)" stroke="rgb(63,158,225)" stroke-width="1" opacity="0.9921568627450981" d="M 639.5 309 L 640 330.5 L 639 330.5 L 639.5 309 Z " /><path fill="rgb(63,158,225)" stroke="rgb(63,158,225)" stroke-width="1" opacity="0.9921568627450981" d="M 0.5 318 L 1 321.5 L 0 321.5 L 0.5 318 Z " /><path fill="rgb(63,158,225)" stroke="rgb(63,158,225)" stroke-width="1" opacity="0.9921568627450981" d="M 2.5 325 L 3 340.5 L 2 340.5 L 2.5 325 Z " /><path fill="rgb(63,158,225)" stroke="rgb(63,158,225)" stroke-width="1" opacity="0.9921568627450981" d="M 637.5 325 L 638 340.5 L 637 340.5 L 637.5 325 Z " /><path fill="rgb(63,158,225)" stroke="rgb(63,158,225)" stroke-width="1" opacity="0.9921568627450981" d="M 0.5 326 L 1 329.5 L 0 329.5 L 0.5 326 Z " /><path fill="rgb(63,158,225)" stroke="rgb(63,158,225)" stroke-width="1" opacity="0.9921568627450981" d="M 0.5 334 L 1 336.5 L 0 336.5 L 0.5 334 Z " /><path fill="rgb(63,158,225)" stroke="rgb(63,158,225)" stroke-width="1" opacity="0.9921568627450981" d="M 0.5 338 L 2 344.5 L 0 345.5 L 0 343.5 L 0.5 338 Z " /><path fill="rgb(63,158,225)" stroke="rgb(63,158,225)" stroke-width="1" opacity="0.9921568627450981" d="M 639.5 341 L 640 343.5 L 640 345.5 L 639.5 347 Q 637.3 346.3 638 342.5 L 639.5 341 Z " /><path fill="rgb(63,158,225)" stroke="rgb(63,158,225)" stroke-width="1" opacity="0.9921568627450981" d="M 3.5 344 L 4 353.5 Q 0.3 355.8 0.5 362 L 0 357.5 L 3 353.5 L 3.5 344 Z " /><path fill="rgb(63,158,225)" stroke="rgb(63,158,225)" stroke-width="1" opacity="0.9921568627450981" d="M 636.5 344 L 638 355.5 L 637 355.5 Q 634.3 351.6 636.5 344 Z " /><path fill="rgb(63,158,225)" stroke="rgb(63,158,225)" stroke-width="1" opacity="0.9921568627450981" d="M 4.5 355 L 5 361.5 L 1.5 368 L 1 365.5 Q 5.3 362.8 4.5 355 Z " /><path fill="rgb(63,158,225)" stroke="rgb(63,158,225)" stroke-width="1" opacity="0.9921568627450981" d="M 635.5 355 L 636 361.5 L 638 363.5 L 636 364 Q 634 361.2 635.5 355 Z " /><path fill="rgb(63,158,225)" stroke="rgb(63,158,225)" stroke-width="1" opacity="0.9921568627450981" d="M 639.5 357 L 640 361.5 L 639 361.5 L 639.5 357 Z " /><path fill="rgb(63,158,225)" stroke="rgb(63,158,225)" stroke-width="1" opacity="0.9921568627450981" d="M 5.5 363 L 6 368.5 L 3 370.5 Q 6.3 368.8 5.5 363 Z " /><path fill="rgb(63,158,225)" stroke="rgb(63,158,225)" stroke-width="1" opacity="0.9921568627450981" d="M 634.5 363 L 636 369.5 L 634 368.5 L 634.5 363 Z " /><path fill="rgb(63,158,225)" stroke="rgb(63,158,225)" stroke-width="1" opacity="0.9921568627450981" d="M 638.5 365 L 639 367.5 L 638 367.5 L 638.5 365 Z " /><path fill="rgb(63,158,225)" stroke="rgb(63,158,225)" stroke-width="1" opacity="0.9921568627450981" d="M 638.5 369 L 639 370.5 L 636.5 380 L 633 374.5 L 633 370.5 L 634 370.5 Q 633 376 636.5 377 L 638.5 369 Z " /><path fill="rgb(63,158,225)" stroke="rgb(63,158,225)" stroke-width="1" opacity="0.9921568627450981" d="M 6.5 370 L 7 374.5 L 5 375.5 L 6.5 370 Z " /><path fill="rgb(63,158,225)" stroke="rgb(63,158,225)" stroke-width="1" opacity="0.9921568627450981" d="M 2.5 373 L 4 379.5 L 3 379.5 L 2.5 373 Z " /><path fill="rgb(63,158,225)" stroke="rgb(63,158,225)" stroke-width="1" opacity="0.9921568627450981" d="M 7.5 376 L 10 389.5 L 6.5 395 L 6 392.5 Q 9.7 391.8 9 386.5 L 7 380.5 L 7.5 376 Z " /><path fill="rgb(63,158,225)" stroke="rgb(63,158,225)" stroke-width="1" opacity="0.9921568627450981" d="M 632.5 376 Q 631.9 380.6 634.5 382 L 636.5 381 L 636 382.5 L 635.5 385 L 632.5 381 L 631 389.5 Q 634.5 390 634 394.5 L 633 394.5 L 633 392 Q 630.3 393.1 631 390.5 L 630 386.5 L 632.5 376 Z " /><path fill="rgb(63,158,225)" stroke="rgb(63,158,225)" stroke-width="1" opacity="0.9921568627450981" d="M 3.5 381 L 5 384.5 L 4 384.5 L 3.5 381 Z " /><path fill="rgb(63,158,225)" stroke="rgb(63,158,225)" stroke-width="1" opacity="0.9921568627450981" d="M 4.5 386 L 6 389.5 L 5 389.5 L 4.5 386 Z " /><path fill="rgb(63,158,225)" stroke="rgb(63,158,225)" stroke-width="1" opacity="0.9921568627450981" d="M 635.5 386 L 635 387.5 L 634.5 391 L 634 387.5 L 635.5 386 Z " /><path fill="rgb(63,158,225)" stroke="rgb(63,158,225)" stroke-width="1" opacity="0.9921568627450981" d="M 10.5 391 Q 20.8 437.7 42 473.5 L 40 472.5 L 31.5 455 L 29 456.5 L 32 458.5 L 31 460.5 L 33 460.5 Q 33.7 463.5 30 462 L 27 454.5 L 30 453 L 18 420 L 14.5 422 L 14 420 L 17 418.5 L 13.5 406 L 10.5 411 L 9 405.5 L 10 405.5 L 10.5 407 L 13 406 L 12.5 403 L 10.5 404 L 10.5 403 Q 13.5 403.9 12 399.5 Q 9 396.1 10.5 391 Z " /><path fill="rgb(63,158,225)" stroke="rgb(63,158,225)" stroke-width="1" opacity="0.9921568627450981" d="M 629.5 391 L 631 395.5 L 629 395.5 L 627 405.5 L 630 407 L 630.5 405 L 631 406.5 L 629.5 410 L 626.5 406 L 623 418.5 L 626 420 L 625.5 422 L 622.5 420 L 622 421.5 L 625 423 L 623.5 429 L 623 426.5 L 624 424.5 L 621 423 L 618 434 Q 621.7 432.5 621 435.5 L 619.5 435 L 617.5 434 Q 609.9 455.9 598.5 474 L 599 472.5 Q 619.2 436.7 629.5 391 Z " /><path fill="rgb(63,158,225)" stroke="rgb(63,158,225)" stroke-width="1" opacity="0.9921568627450981" d="M 7.5 399 L 9 401.5 L 8 401.5 L 7.5 399 Z " /><path fill="rgb(63,158,225)" stroke="rgb(63,158,225)" stroke-width="1" opacity="0.9921568627450981" d="M 630.5 399 L 633 399.5 L 631.5 402 L 630.5 399 Z " /><path fill="rgb(63,158,225)" stroke="rgb(63,158,225)" stroke-width="1" opacity="0.9921568627450981" d="M 11.5 412 L 14 418.5 L 13 418.5 L 11.5 412 Z " /><path fill="rgb(63,158,225)" stroke="rgb(63,158,225)" stroke-width="1" opacity="0.9921568627450981" d="M 628.5 412 L 629 413.5 L 627.5 417 L 627 414.5 L 628.5 412 Z " /><path fill="rgb(63,158,225)" stroke="rgb(63,158,225)" stroke-width="1" opacity="0.9921568627450981" d="M 15.5 423 L 16 425.5 L 15 425.5 L 15.5 423 Z " /><path fill="rgb(63,158,225)" stroke="rgb(63,158,225)" stroke-width="1" opacity="0.9921568627450981" d="M 17.5 430 L 18.5 432 L 20 431.5 Q 18.5 434.5 17 431.5 L 17.5 430 Z " /><path fill="rgb(63,158,225)" stroke="rgb(63,158,225)" stroke-width="1" opacity="0.9921568627450981" d="M 622.5 430 L 623 431.5 Q 621.5 434.5 620 431.5 L 622 431.5 L 622.5 430 Z " /><path fill="rgb(63,158,225)" stroke="rgb(63,158,225)" stroke-width="1" opacity="0.9921568627450981" d="M 19.5 434 L 21 437.5 L 19 436.5 L 19.5 434 Z " /><path fill="rgb(63,158,225)" stroke="rgb(63,158,225)" stroke-width="1" opacity="0.9921568627450981" d="M 617.5 439 Q 619.8 438.3 619 440.5 L 617.5 439 Z " /><path fill="rgb(63,158,225)" stroke="rgb(63,158,225)" stroke-width="1" opacity="0.9921568627450981" d="M 24.5 444 L 24 445.5 L 26 449.5 L 24 448.5 L 23 445.5 L 24.5 444 Z " /><path fill="rgb(63,158,225)" stroke="rgb(63,158,225)" stroke-width="1" opacity="0.9921568627450981" d="M 615.5 444 L 617 446.5 L 614.5 450 L 615 448.5 L 616 445.5 L 615.5 444 Z " /><path fill="rgb(63,158,225)" stroke="rgb(63,158,225)" stroke-width="1" opacity="0.9921568627450981" d="M 611.5 453 L 613 455.5 L 607 465.5 L 607 468 L 604 467.5 L 606 466.5 L 605 464.5 L 606.5 462 L 608 462.5 L 607 460.5 L 609 460.5 L 610 458.5 L 609.5 457 L 611 456.5 L 610.5 455 L 612 454.5 L 611.5 453 Z " /><path fill="rgb(63,158,225)" stroke="rgb(63,158,225)" stroke-width="1" opacity="0.9921568627450981" d="M 31.5 463 L 34.5 465 L 34.5 468 Q 31.9 468.8 33 465.5 L 31.5 463 Z " /><path fill="rgb(63,158,225)" stroke="rgb(63,158,225)" stroke-width="1" opacity="0.9921568627450981" d="M 34.5 469 L 37 469.5 L 36.5 471 L 39 472.5 L 38 474.5 L 41 475.5 L 38 477 L 34.5 469 Z " /><path fill="rgb(63,158,225)" stroke="rgb(63,158,225)" stroke-width="1" opacity="0.9921568627450981" d="M 603.5 469 L 606 469.5 L 599.5 479 Q 597.8 475.3 596 478.5 L 596.5 480 Q 597.8 477.8 599 480.5 L 598.5 482 L 597.5 480 L 595 480.5 L 578 507.5 L 580 510.5 L 577 512.5 L 578.5 510 L 576.5 509 L 574 512.5 L 576 512.5 L 571 515.5 L 572 517.5 Q 569.5 515.7 567 520.5 Q 552.8 540.3 534.5 556 L 508 577.5 L 508.5 579 L 506.5 578 Q 482.1 597.1 451.5 610 L 451.5 609 Q 512.3 581.8 554 535.5 Q 578.9 508.4 597.5 475 L 599.5 478 L 602 473.5 Q 599.8 472.3 602.5 471 L 604 470.5 L 603.5 469 Z " /><path fill="rgb(63,158,225)" stroke="rgb(63,158,225)" stroke-width="1" opacity="0.9921568627450981" d="M 214.5 474 L 216.5 474 L 221 478.5 Q 221.8 480.8 219.5 480 L 155.5 505 L 151 499.5 L 214.5 474 Z " /><path fill="rgb(63,158,225)" stroke="rgb(63,158,225)" stroke-width="1" opacity="0.9921568627450981" d="M 42.5 475 Q 67.8 520.2 104.5 554 Q 131.7 579.3 165.5 598 Q 195.9 615.1 233 625.5 L 230.5 626 Q 140.6 597.9 85 535.5 L 83 532.5 L 78 528.5 L 77 530.5 L 80 531.5 L 79 532.5 L 81.5 536 L 75 528.5 L 78 527.5 L 69.5 517 L 68 517.5 L 68 515.5 L 66.5 513 L 64 514 L 65 510.5 L 60.5 505 L 59 507.5 L 59.5 509 L 55 503.5 L 57 499.5 L 51.5 492 L 50 494.5 L 53.5 499 L 55 498.5 L 54 500.5 L 54.5 502 L 49 494.5 L 51 490.5 L 45.5 482 L 42.5 484 L 42.5 483 L 45 481.5 L 42.5 477 L 42 478.5 L 42 480.5 L 41.5 482 L 41 480.5 L 41.5 479 L 40 478.5 L 42.5 475 Z M 58 501 L 57 503 L 57 505 Q 59 508 60 505 L 58 501 Z " /><path fill="rgb(63,158,225)" stroke="rgb(63,158,225)" stroke-width="1" opacity="0.9921568627450981" d="M 589.5 493 Q 592.8 494.8 589 496.5 L 585.5 502 L 585 499.5 L 585.5 498 Q 586.8 500.3 588 497.5 L 590 494.5 L 589.5 493 Z " /><path fill="rgb(63,158,225)" stroke="rgb(63,158,225)" stroke-width="1" opacity="0.9921568627450981" d="M 583.5 501 L 585 503.5 L 580.5 509 L 581 507.5 L 583 504.5 L 583 502.5 L 583.5 501 Z " /><path fill="rgb(63,158,225)" stroke="rgb(63,158,225)" stroke-width="1" opacity="0.9921568627450981" d="M 144.5 502 L 150 506.5 Q 150.8 508.8 148.5 508 L 142.5 511 L 141 508.5 L 144.5 502 Z " /><path fill="rgb(63,158,225)" stroke="rgb(63,158,225)" stroke-width="1" opacity="0.9921568627450981" d="M 61.5 509 L 62.5 513 Q 58 511 61.5 509 Z " /><path fill="rgb(63,158,225)" stroke="rgb(63,158,225)" stroke-width="1" opacity="0.9921568627450981" d="M 65.5 516 L 66.5 518 L 65.5 516 Z " /><path fill="rgb(63,158,225)" stroke="rgb(63,158,225)" stroke-width="1" opacity="0.9921568627450981" d="M 571.5 520 L 569 523.5 L 568.5 525 L 566 524.5 L 571.5 520 Z " /><path fill="rgb(63,158,225)" stroke="rgb(63,158,225)" stroke-width="1" opacity="0.9921568627450981" d="M 69.5 521 L 74 524.5 L 71 524.5 L 69.5 521 Z " /><path fill="rgb(63,158,225)" stroke="rgb(63,158,225)" stroke-width="1" opacity="0.9921568627450981" d="M 564.5 528 L 565 529.5 L 558 535.5 L 563 530.5 L 562.5 529 L 564.5 528 Z " /><path fill="rgb(63,158,225)" stroke="rgb(63,158,225)" stroke-width="1" opacity="0.9921568627450981" d="M 82.5 537 Q 85.1 536.3 84 539 L 86.5 539 L 88.5 542 L 86.5 542 L 82.5 537 Z " /><path fill="rgb(63,158,225)" stroke="rgb(63,158,225)" stroke-width="1" opacity="0.9921568627450981" d="M 556 537 L 558 537.5 L 553.5 542 L 552 540.5 L 556 539 L 556 537 Z " /><path fill="rgb(63,158,225)" stroke="rgb(63,158,225)" stroke-width="1" opacity="0.9921568627450981" d="M 89.5 544 L 93 545.5 L 90.5 546 L 89.5 544 Z " /><path fill="rgb(63,158,225)" stroke="rgb(63,158,225)" stroke-width="1" opacity="0.9921568627450981" d="M 547.5 545 L 548.5 547 L 547.5 546 L 545 547.5 L 547.5 545 Z " /><path fill="rgb(63,158,225)" stroke="rgb(63,158,225)" stroke-width="1" opacity="0.9921568627450981" d="M 94.5 547 L 96.5 550 L 94.5 547 Z " /><path fill="rgb(63,158,225)" stroke="rgb(63,158,225)" stroke-width="1" opacity="0.9921568627450981" d="M 542.5 550 Q 546 552 541.5 554 L 540 553.5 L 538.5 557 L 537 556.5 L 542.5 550 Z " /><path fill="rgb(63,158,225)" stroke="rgb(63,158,225)" stroke-width="1" opacity="0.9921568627450981" d="M 98.5 551 L 107.5 561 L 109 560.5 Q 106.8 561.8 109.5 563 L 111 562.5 L 110.5 565 L 100 555.5 L 99.5 553 Q 98.3 555.3 97 552.5 L 98.5 551 Z " /><path fill="rgb(63,158,225)" stroke="rgb(63,158,225)" stroke-width="1" opacity="0.9921568627450981" d="M 534.5 559 L 529.5 565 L 529.5 562 L 530.5 563 L 534.5 559 Z " /><path fill="rgb(63,158,225)" stroke="rgb(63,158,225)" stroke-width="1" opacity="0.9921568627450981" d="M 115.5 566 L 116.5 568 L 115.5 566 Z " /><path fill="rgb(63,158,225)" stroke="rgb(63,158,225)" stroke-width="1" opacity="0.9921568627450981" d="M 526.5 566 L 525.5 568 L 526.5 566 Z " /><path fill="rgb(63,158,225)" stroke="rgb(63,158,225)" stroke-width="1" opacity="0.9921568627450981" d="M 116.5 569 L 120.5 572 L 122 571.5 L 121.5 573 L 123 573.5 L 121.5 574 L 116.5 569 Z " /><path fill="rgb(63,158,225)" stroke="rgb(63,158,225)" stroke-width="1" opacity="0.9921568627450981" d="M 522.5 569 L 524 569.5 L 514.5 577 L 513.5 575 L 514.5 576 L 517.5 573 L 522.5 569 Z " /><path fill="rgb(63,158,225)" stroke="rgb(63,158,225)" stroke-width="1" opacity="0.9921568627450981" d="M 125.5 574 L 125.5 576 L 127 576.5 L 125.5 577 Q 122.5 575.5 125.5 574 Z " /><path fill="rgb(63,158,225)" stroke="rgb(63,158,225)" stroke-width="1" opacity="0.9921568627450981" d="M 512.5 577 L 510.5 580 L 512.5 577 Z " /><path fill="rgb(63,158,225)" stroke="rgb(63,158,225)" stroke-width="1" opacity="0.9921568627450981" d="M 128.5 578 L 132 580.5 L 130.5 580 L 128.5 578 Z " /><path fill="rgb(63,158,225)" stroke="rgb(63,158,225)" stroke-width="1" opacity="0.9921568627450981" d="M 135.5 583 L 139.5 586 L 141 585.5 Q 139.3 588.8 137.5 585 L 135.5 583 Z " /><path fill="rgb(63,158,225)" stroke="rgb(63,158,225)" stroke-width="1" opacity="0.9921568627450981" d="M 504.5 583 L 503.5 585 L 500.5 587 L 499.5 585 Q 501 587.5 502.5 584 L 504.5 583 Z " /><path fill="rgb(63,158,225)" stroke="rgb(63,158,225)" stroke-width="1" opacity="0.9921568627450981" d="M 141.5 587 L 144 587.5 Q 141.9 590.8 141.5 587 Z " /><path fill="rgb(63,158,225)" stroke="rgb(63,158,225)" stroke-width="1" opacity="0.9921568627450981" d="M 496.5 587 L 497.5 589 L 496.5 587 Z " /><path fill="rgb(63,158,225)" stroke="rgb(63,158,225)" stroke-width="1" opacity="0.9921568627450981" d="M 493.5 589 L 496 589.5 Q 493.9 592.8 493.5 589 Z " /><path fill="rgb(63,158,225)" stroke="rgb(63,158,225)" stroke-width="1" opacity="0.9921568627450981" d="M 147.5 591 L 150 592.5 L 148.5 593 L 147.5 591 Z " /><path fill="rgb(63,158,225)" stroke="rgb(63,158,225)" stroke-width="1" opacity="0.9921568627450981" d="M 490.5 592 L 492 592.5 L 488.5 595 L 490.5 592 Z " /><path fill="rgb(63,158,225)" stroke="rgb(63,158,225)" stroke-width="1" opacity="0.9921568627450981" d="M 154.5 594 L 153.5 596 L 154.5 594 Z " /><path fill="rgb(63,158,225)" stroke="rgb(63,158,225)" stroke-width="1" opacity="0.9921568627450981" d="M 155.5 596 L 156.5 598 L 155.5 596 Z " /><path fill="rgb(63,158,225)" stroke="rgb(63,158,225)" stroke-width="1" opacity="0.9921568627450981" d="M 172.5 604 L 172.5 606 L 179.5 609 L 181 608.5 L 180.5 610 L 183 611.5 L 181.5 611 L 170 605.5 L 172.5 604 Z " /><path fill="rgb(63,158,225)" stroke="rgb(63,158,225)" stroke-width="1" opacity="0.9921568627450981" d="M 468.5 605 L 470 605.5 L 456.5 612 L 455.5 610 L 457.5 611 L 468.5 605 Z " /><path fill="rgb(63,158,225)" stroke="rgb(63,158,225)" stroke-width="1" opacity="0.9921568627450981" d="M 448.5 610 L 450 610.5 Q 436.8 617.8 420.5 622 L 420.5 621 Q 436.1 617.1 448.5 610 Z " /><path fill="rgb(63,158,225)" stroke="rgb(63,158,225)" stroke-width="1" opacity="0.9921568627450981" d="M 188.5 613 L 189.5 615 L 188.5 613 Z " /><path fill="rgb(63,158,225)" stroke="rgb(63,158,225)" stroke-width="1" opacity="0.9921568627450981" d="M 192.5 615 L 193.5 617 L 192.5 615 Z " /><path fill="rgb(63,158,225)" stroke="rgb(63,158,225)" stroke-width="1" opacity="0.9921568627450981" d="M 447.5 615 L 449 615.5 L 446.5 617 L 447.5 615 Z " /><path fill="rgb(63,158,225)" stroke="rgb(63,158,225)" stroke-width="1" opacity="0.9921568627450981" d="M 439.5 617 L 442 618.5 L 440.5 619 L 439.5 617 Z " /><path fill="rgb(63,158,225)" stroke="rgb(63,158,225)" stroke-width="1" opacity="0.9921568627450981" d="M 207.5 621 L 208.5 623 L 207.5 621 Z " /><path fill="rgb(63,158,225)" stroke="rgb(63,158,225)" stroke-width="1" opacity="0.9921568627450981" d="M 428.5 621 L 429.5 623 L 428.5 621 Z " /><path fill="rgb(63,158,225)" stroke="rgb(63,158,225)" stroke-width="1" opacity="0.9921568627450981" d="M 416.5 622 L 419 622.5 L 407.5 626 L 407.5 625 L 416.5 622 Z " /><path fill="rgb(63,158,225)" stroke="rgb(63,158,225)" stroke-width="1" opacity="0.9921568627450981" d="M 212.5 623 L 215 624.5 L 213.5 624 L 212.5 623 Z " /><path fill="rgb(63,158,225)" stroke="rgb(63,158,225)" stroke-width="1" opacity="0.9921568627450981" d="M 426.5 623 L 428 623.5 L 425.5 625 L 426.5 623 Z " /><path fill="rgb(63,158,225)" stroke="rgb(63,158,225)" stroke-width="1" opacity="0.9921568627450981" d="M 220.5 626 L 227 628.5 L 225.5 628 L 220.5 627 L 220.5 626 Z " /><path fill="rgb(63,158,225)" stroke="rgb(63,158,225)" stroke-width="1" opacity="0.9921568627450981" d="M 234.5 626 L 249 629.5 L 245.5 630 L 234.5 627 L 234.5 626 Z " /><path fill="rgb(63,158,225)" stroke="rgb(63,158,225)" stroke-width="1" opacity="0.9921568627450981" d="M 403.5 626 L 406 626.5 L 391.5 630 L 391.5 629 L 403.5 626 Z " /><path fill="rgb(63,158,225)" stroke="rgb(63,158,225)" stroke-width="1" opacity="0.9921568627450981" d="M 414.5 627 L 417 627.5 L 414.5 628 L 414.5 627 Z " /><path fill="rgb(63,158,225)" stroke="rgb(63,158,225)" stroke-width="1" opacity="0.9921568627450981" d="M 229.5 629 L 232 629.5 L 229.5 630 L 229.5 629 Z " /><path fill="rgb(63,158,225)" stroke="rgb(63,158,225)" stroke-width="1" opacity="0.9921568627450981" d="M 240.5 630 L 240.5 632 L 247 633.5 L 244.5 634 L 237 631.5 L 240.5 630 Z " /><path fill="rgb(63,158,225)" stroke="rgb(63,158,225)" stroke-width="1" opacity="0.9921568627450981" d="M 250.5 630 L 264 632.5 L 259.5 633 L 250.5 631 L 249 631.5 L 250.5 630 Z " /><path fill="rgb(63,158,225)" stroke="rgb(63,158,225)" stroke-width="1" opacity="0.9921568627450981" d="M 386.5 630 Q 390.3 629.3 391 631.5 L 389.5 631 L 376.5 633 L 376.5 632 L 386.5 630 Z " /><path fill="rgb(63,158,225)" stroke="rgb(63,158,225)" stroke-width="1" opacity="0.9921568627450981" d="M 395.5 631 L 398 632.5 L 393.5 634 L 393.5 633 L 396 632.5 L 395.5 631 Z " /><path fill="rgb(63,158,225)" stroke="rgb(63,158,225)" stroke-width="1" opacity="0.9921568627450981" d="M 400.5 631 L 402 631.5 L 399.5 633 L 400.5 631 Z " /><path fill="rgb(63,158,225)" stroke="rgb(63,158,225)" stroke-width="1" opacity="0.9921568627450981" d="M 265.5 633 L 270 633.5 L 265.5 634 L 265.5 633 Z " /><path fill="rgb(63,158,225)" stroke="rgb(63,158,225)" stroke-width="1" opacity="0.9921568627450981" d="M 370.5 633 L 374.5 633 L 380 636.5 L 375.5 638 L 375.5 637 L 377 636.5 Q 376 633 370.5 634 L 370.5 633 Z " /><path fill="rgb(63,158,225)" stroke="rgb(63,158,225)" stroke-width="1" opacity="0.9921568627450981" d="M 249.5 634 L 256 635.5 L 253.5 636 L 249.5 635 L 249.5 634 Z " /><path fill="rgb(63,158,225)" stroke="rgb(63,158,225)" stroke-width="1" opacity="0.9921568627450981" d="M 271.5 634 L 277 634.5 L 270.5 636 L 271.5 634 Z " /><path fill="rgb(63,158,225)" stroke="rgb(63,158,225)" stroke-width="1" opacity="0.9921568627450981" d="M 363.5 634 Q 369.8 632.8 371 636.5 L 368.5 635 Q 362.5 636.3 363.5 634 Z " /><path fill="rgb(63,158,225)" stroke="rgb(63,158,225)" stroke-width="1" opacity="0.9921568627450981" d="M 263.5 635 L 263.5 637 L 265 637.5 L 263.5 638 L 260 636.5 L 263.5 635 Z " /><path fill="rgb(63,158,225)" stroke="rgb(63,158,225)" stroke-width="1" opacity="0.9921568627450981" d="M 278.5 635 L 285 635.5 Q 278.3 634.8 275.5 638 L 276.5 636 L 278.5 635 Z " /><path fill="rgb(63,158,225)" stroke="rgb(63,158,225)" stroke-width="1" opacity="0.9921568627450981" d="M 355.5 635 Q 362.8 633.8 365 637.5 L 363.5 638 Q 362 634.5 355.5 636 L 355.5 635 Z " /><path fill="rgb(63,158,225)" stroke="rgb(63,158,225)" stroke-width="1" opacity="0.9921568627450981" d="M 287.5 636 L 297 636.5 L 287.5 637 L 287.5 636 Z " /><path fill="rgb(63,158,225)" stroke="rgb(63,158,225)" stroke-width="1" opacity="0.9921568627450981" d="M 343.5 636 L 353 636.5 L 343.5 637 L 343.5 636 Z " /><path fill="rgb(63,158,225)" stroke="rgb(63,158,225)" stroke-width="1" opacity="0.9921568627450981" d="M 284.5 637 L 286 637.5 Q 284.6 640.6 279.5 640 L 279.5 639 Q 283.8 639.8 284.5 637 Z " /><path fill="rgb(63,158,225)" stroke="rgb(63,158,225)" stroke-width="1" opacity="0.9921568627450981" d="M 299.5 637 L 315 637.5 L 299.5 638 L 299.5 637 Z " /><path fill="rgb(63,158,225)" stroke="rgb(63,158,225)" stroke-width="1" opacity="0.9921568627450981" d="M 325.5 637 L 341 637.5 L 325.5 638 L 325.5 637 Z " /><path fill="rgb(63,158,225)" stroke="rgb(63,158,225)" stroke-width="1" opacity="0.9921568627450981" d="M 295.5 638 L 299 639.5 L 294.5 640 L 295.5 638 Z " /><path fill="rgb(63,158,225)" stroke="rgb(63,158,225)" stroke-width="1" opacity="0.9921568627450981" d="M 342.5 638 Q 348.4 636.3 347 640 L 344.5 639 L 341.5 640 L 342.5 638 Z " /><path fill="rgb(63,158,225)" stroke="rgb(63,158,225)" stroke-width="1" opacity="0.9921568627450981" d="M 300.5 639 L 304 639.5 L 300.5 640 L 300.5 639 Z " /><path fill="rgb(63,158,225)" stroke="rgb(63,158,225)" stroke-width="1" opacity="0.9921568627450981" d="M 308.5 639 L 316 639.5 L 308.5 640 L 308.5 639 Z " /><path fill="rgb(63,158,225)" stroke="rgb(63,158,225)" stroke-width="1" opacity="0.9921568627450981" d="M 317.5 639 L 323 639.5 L 317.5 640 L 317.5 639 Z " /><path fill="rgb(63,158,225)" stroke="rgb(63,158,225)" stroke-width="1" opacity="0.9921568627450981" d="M 324.5 639 L 332 639.5 L 324.5 640 L 324.5 639 Z " /><path fill="rgb(63,158,225)" stroke="rgb(63,158,225)" stroke-width="1" opacity="0.9921568627450981" d="M 336.5 639 L 340 639.5 L 336.5 640 L 336.5 639 Z " /><path fill="rgb(63,158,225)" stroke="rgb(63,158,225)" stroke-width="1" opacity="0.9921568627450981" d="M 357.5 639 L 361 639.5 L 357.5 640 L 357.5 639 Z " /><path fill="rgb(64,159,226)" stroke="rgb(64,159,226)" stroke-width="1" opacity="1" d="M 299.5 0 L 301.5 1 L 303.5 0 L 305.5 1 L 307.5 1 L 309.5 0 L 311.5 1 L 314.5 0 L 317.5 1 Q 322.3 2.3 323.5 0 L 325.5 0 L 329.5 1 L 331.5 1 L 333.5 0 L 335.5 1 L 337.5 0 L 339.5 1 L 341.5 1 L 345.5 2 L 346.5 1 L 356.5 1 L 403.5 10 L 405 9.5 L 404.5 11 L 410.5 12 L 412.5 11 L 412.5 12 L 411 12.5 L 431.5 19 L 433 18.5 L 432.5 20 L 436.5 21 L 438.5 20 L 438.5 21 L 437 21.5 L 439 22 L 439.5 24 L 442.5 22 L 442.5 24 L 448.5 26 L 450.5 25 L 450.5 26 L 449 26.5 L 474.5 39 L 476 38.5 L 475.5 40 L 477.5 39 L 477.5 41 L 481.5 43 L 483 42.5 L 482.5 44 L 485.5 45 L 487 44.5 Q 484.8 45.8 487.5 47 L 497.5 53 L 499 52.5 Q 496.8 53.7 499.5 55 L 504.5 58 L 506 57.5 Q 503.7 58.8 506.5 60 L 526.5 75 L 528 74.5 L 527 75.5 L 530.5 79 L 534.5 82 Q 535.8 79.8 537 82.5 L 536 83.5 L 543.5 91 L 545 90.5 L 544.5 89 L 547.5 93 L 546 92.5 L 556.5 104 L 558 103.5 L 557 104.5 L 561 108.5 L 564.5 113 L 566 112.5 L 566 114.5 L 574 126 L 577 126.5 L 575 127.5 L 577.5 129 L 579 128.5 L 578.5 130 L 580 130.5 L 578 131.5 L 580 132 L 581.5 135 L 583 134.5 L 582 137.5 L 583.5 139 L 585 139 Q 583.5 142.8 586.5 142 L 587.5 145 L 589 145 Q 587.5 148.8 590.5 148 L 590.5 146 L 594 150.5 L 592 150.5 L 593.5 153 Q 594.8 150.8 596 153.5 L 594 153.5 L 595.5 156 L 597 155.5 L 595.5 158 L 597.5 157 L 599 158.5 L 597.5 161 L 599.5 160 L 599 161.5 L 599.5 163 L 601 162.5 L 599.5 165 Q 601.8 164.3 601 166.5 L 602 171 L 604.5 172 L 606 171.5 L 605 174.5 Q 608.1 176.3 606.5 178 Q 608.8 177.3 608 179.5 L 610 183.5 L 610 187 Q 612.7 185.9 612 188.5 L 615 194.5 L 614.5 196 Q 616.8 195.3 616 197.5 L 624 220 Q 621 221.3 622 217.5 L 621 217.5 L 622.5 224 L 623 221 Q 625.7 219.9 625 222.5 L 628 232.5 L 627.5 234 Q 629.8 233.3 629 235.5 L 628.5 237 Q 631.1 236.2 630 239.5 L 632 244.5 L 638 275.5 L 636 276 L 636.5 278 L 638 277.5 L 639 293.5 L 638 297.5 L 640 299.5 L 639 302.5 Q 637.8 307.3 640 308.5 L 639 309.5 L 639 330.5 L 640 332.5 L 639 334.5 L 639 336.5 L 640 338.5 L 638 342.5 L 639 356.5 L 637.5 363 L 636 362.5 Q 635.3 364.8 637.5 364 L 637 365.5 L 637 370.5 L 632.5 391 L 631 390.5 L 632 395.5 L 624.5 420 L 622.5 416 L 621 423 L 623 422.5 L 622 420.5 L 624 421.5 L 620 434 L 618 434.5 L 619 436.5 L 609 460 L 607 460.5 L 607.5 462 Q 605.3 461.3 606 463.5 L 600 477 L 598 477.5 L 599.5 480 L 597.5 479 L 597.5 483 L 596 482.5 L 597 484.5 L 595 484.5 L 596 486.5 L 592 488.5 L 592.5 490 L 594 489.5 L 590.5 494 L 589 493.5 L 586.5 498 L 585 498 L 585 501 Q 582.3 499.9 583 502.5 L 579.5 508 L 577 509.5 Q 579.3 510.7 576.5 512 L 575 512.5 L 577 513.5 L 575 514.5 Q 577.3 515.8 574.5 517 L 572.5 517 L 571 517.5 L 572 518.5 L 566 524.5 L 565 526.5 L 565.5 528 Q 563.7 525.2 562 529.5 L 557 535.5 L 557.5 537 Q 556.3 534.8 555 537.5 L 555.5 539 Q 553.8 536.3 552 540.5 L 553 542.5 L 551 543.5 L 551.5 542 Q 549.3 541.3 550 543.5 L 549.5 546 L 547.5 545 L 545 548.5 L 548 547.5 L 544.5 551 L 543.5 550 L 536 556.5 Q 538.3 557.8 535.5 559 L 534.5 558 L 530.5 562 L 528 563.5 Q 530.3 564.8 527.5 566 Q 526 563.5 524.5 567 L 510.5 578 L 508 578 Q 509.1 580.7 506.5 580 L 505.5 583 L 503.5 583 L 498 586.5 L 498.5 588 L 496.5 587 L 492 590.5 L 492.5 592 L 490.5 591 L 487 593.5 Q 489.2 594.8 486.5 596 L 486.5 594 L 482 596.5 L 482.5 598 L 480.5 597 L 477 599.5 L 477.5 601 L 475.5 600 L 475.5 602 L 473.5 601 L 470 603.5 L 470.5 605 L 468.5 604 L 449 613.5 L 451 614.5 L 449.5 615 L 447.5 614 L 442 616.5 L 442.5 618 L 439.5 617 L 437 618.5 L 439 619.5 L 437.5 620 L 434.5 619 L 432 620.5 L 432.5 622 L 428.5 621 L 425.5 623 L 404 629.5 L 404.5 631 L 400.5 630 L 392 632.5 L 392.5 634 L 387.5 633 L 381.5 635 L 364.5 637 L 362.5 636 L 362.5 638 L 347.5 639 L 342.5 638 Q 341 641.5 339.5 639 L 334.5 640 L 331.5 639 Q 325.2 637.3 323.5 640 Q 322.3 637.8 317.5 639 L 315.5 639 Q 309.2 637.3 307.5 640 L 305.5 639 L 303.5 639 L 299.5 640 L 295.5 638 L 294.5 639 L 284.5 639 L 283.5 638 L 276.5 638 L 248.5 633 L 247 633.5 L 247.5 632 L 229.5 628 L 227.5 629 L 227.5 628 L 229 627.5 L 203.5 619 L 202 619.5 L 202.5 618 L 198.5 617 L 197 617.5 L 197.5 616 L 191.5 614 L 190 614.5 L 190.5 613 L 165.5 601 L 164 601.5 L 164.5 600 L 162.5 601 L 162.5 599 L 160.5 600 L 159.5 597 L 157.5 598 L 157.5 596 L 153.5 594 L 152 594.5 L 152.5 593 L 150.5 594 L 149.5 591 L 145.5 589 L 145.5 591 L 143.5 587 L 135.5 582 L 134 582.5 Q 136.3 581.3 133.5 580 L 128.5 577 L 127 577.5 Q 129.7 575.8 125.5 574 L 123.5 575 Q 125.2 573 121.5 571 L 114.5 566 L 115.5 569 L 111 564.5 Q 113.3 563.3 110.5 562 L 107.5 560 L 98.5 551 L 97 551 L 94.5 547 L 93 547.5 L 95.5 551 L 91.5 546 L 93 546.5 L 91.5 544 L 89.5 543 Q 88.3 545.3 87 542.5 L 89 542.5 L 85.5 538 L 84 538.5 Q 86.3 537.3 83.5 536 L 82 536.5 L 83 535.5 L 80 532.5 Q 80.7 529.9 78 531 L 78 528 L 76.5 528 L 74 527.5 L 74 525.5 L 69.5 520 L 68 520.5 L 68.5 517 L 65.5 515 L 64 515.5 Q 67.8 513.8 64.5 512 L 62 510.5 L 61.5 509 L 60 509.5 L 61 508.5 Q 57.9 506.7 59.5 505 Q 57.3 505.8 58 503.5 L 57 501 L 55 501 Q 56.5 497.2 53.5 498 L 51 492 L 49 492.5 L 49.5 494 L 47.5 491 L 49 491.5 L 46.5 487 Q 45.3 489.2 44 486.5 L 43 484.5 L 44.5 482 L 42.5 483 L 42 478.5 Q 42.8 476.3 40.5 477 L 39 477.5 L 40.5 475 Q 37.9 475.8 39 472.5 L 35.5 468 L 34 468.5 L 35 465.5 Q 32 464.3 33 460 L 31 459.5 L 32 458.5 L 30 454.5 L 28 451.5 L 22 439.5 L 12.5 411 L 11 411.5 L 13 406.5 L 11 406 L 12 403.5 L 10 403 L 4 376.5 L 3 364.5 L 4 362.5 L 2 362.5 L 1 345.5 L 0 344.5 L 2 344.5 L 0 337.5 L 1 334.5 L 1 332.5 L 0 330.5 L 1 326.5 L 0 324.5 L 1 321.5 L 0 317.5 L 0 315.5 L 1 313.5 L 1 311.5 L 0 309.5 L 1 304.5 L 1 302.5 L 0 299.5 L 2 294.5 L 1 293.5 L 1 284.5 L 2.5 277 L 4 277.5 L 3 270.5 L 7 248.5 L 11.5 233 L 13 233.5 L 11 228.5 L 13 228.5 L 22 200.5 L 24 198.5 L 28 187 L 30 186.5 L 30 184.5 L 33 179.5 L 32.5 178 Q 34.8 178.8 34 176.5 L 35 175.5 L 33.5 173 L 35 173.5 L 34 171.5 L 36 171.5 L 40 163.5 L 39.5 162 L 41.5 163 L 40 160.5 L 41 159.5 L 42.5 157 L 44.5 158 L 43.5 155 L 45.5 156 L 44 153.5 L 45.5 152 Q 46.8 154.3 48 151.5 L 49 148.5 Q 46.8 147.3 49.5 146 L 53 144.5 L 52 143.5 L 55 140.5 Q 54.3 138.3 56.5 139 Q 59.3 137.7 57 136.5 L 60 133.5 L 61 131.5 L 60.5 130 L 62 130.5 L 63.5 128 L 65 127.5 L 63 126.5 L 65 125.5 L 64.5 124 Q 66 126.5 67.5 123 L 69 122.5 L 68 121.5 L 71.5 118 L 73 117.5 L 72.5 116 Q 74.8 116.8 74 114.5 L 74.5 112 L 76.5 112 Q 79.1 112.8 78 109.5 L 83 104.5 Q 80.3 102.8 84.5 101 L 86.5 102 L 86.5 100 L 88 100.5 L 90 96 L 93 94.5 L 92.5 93 L 91 93.5 L 95.5 89 L 96.5 90 L 99.5 88 L 105 82.5 L 104.5 81 L 105.5 82 L 109.5 78 L 112 76.5 Q 109.7 75.3 112.5 74 L 114.5 74 L 142 53.5 L 141.5 52 L 143.5 53 L 153 46.5 L 152.5 45 L 154.5 46 L 158 43.5 L 157.5 42 L 159.5 43 L 160.5 40 L 162.5 41 L 162.5 39 L 164.5 40 L 164.5 38 L 166.5 39 L 170 36.5 L 169.5 35 L 172.5 36 L 191 26.5 L 190.5 25 L 193.5 26 L 198 23.5 L 197.5 22 L 200.5 23 L 203 21.5 L 201 20.5 L 202.5 20 L 205.5 21 L 229 12.5 L 227 11.5 L 228.5 11 L 232.5 12 L 258.5 5 L 276.5 3 L 283.5 1 L 294.5 1 L 296.5 2 L 299.5 0 Z M 300 2 L 300 3 L 315 3 L 300 2 Z M 326 2 L 326 3 L 341 3 L 326 2 Z M 287 3 L 287 4 L 297 4 L 287 3 Z M 344 3 L 344 4 L 354 4 L 344 3 Z M 279 4 L 279 5 L 285 5 L 279 4 Z M 356 4 L 356 5 L 362 5 L 356 4 Z M 272 5 L 272 6 L 277 6 L 272 5 Z M 364 5 L 364 6 L 369 6 L 364 5 Z M 266 6 L 266 7 L 270 7 L 266 6 Z M 371 6 L 371 7 L 375 7 L 371 6 Z M 261 7 L 261 8 L 264 8 L 261 7 Z M 377 7 L 377 8 L 381 8 L 377 7 Z M 255 8 L 255 9 L 259 9 L 255 8 Z M 382 8 L 382 9 L 386 9 L 382 8 Z M 251 9 L 251 10 L 254 10 L 251 9 Z M 387 9 L 387 10 L 390 10 L 387 9 Z M 246 10 L 246 11 L 249 11 L 246 10 Z M 392 10 L 392 11 L 395 11 L 392 10 Z M 242 11 L 242 12 L 245 12 L 242 11 Z M 396 11 L 396 12 L 399 12 L 396 11 Z M 238 12 L 238 13 L 241 13 L 238 12 Z M 400 12 L 400 13 L 403 13 L 400 12 Z M 235 13 L 235 14 L 237 14 L 235 13 Z M 404 13 L 404 14 L 406 14 L 404 13 Z M 231 14 L 231 15 L 233 15 L 231 14 Z M 407 14 L 407 15 L 410 15 L 407 14 Z M 228 15 L 228 16 L 230 16 L 228 15 Z M 411 15 L 411 16 L 413 16 L 411 15 Z M 225 16 L 225 17 L 227 17 L 225 16 Z M 414 16 L 414 17 L 416 17 L 414 16 Z M 222 17 L 222 18 L 224 18 L 222 17 Z M 417 17 L 417 18 L 420 18 L 417 17 Z M 218 18 L 218 19 L 220 19 L 218 18 Z M 421 18 L 421 19 L 423 19 L 421 18 Z M 213 20 L 213 21 L 215 21 L 213 20 Z M 426 20 L 426 21 L 428 21 L 426 20 Z M 210 21 L 210 22 L 212 22 L 210 21 Z M 429 21 L 429 22 L 431 22 L 429 21 Z M 207 22 L 207 23 L 209 23 L 207 22 Z M 432 22 L 432 23 L 434 23 L 432 22 Z M 202 24 L 202 25 L 204 25 L 202 24 Z M 437 24 L 437 25 L 439 25 L 437 24 Z M 197 26 L 197 27 L 199 27 L 197 26 Z M 442 26 L 442 27 L 444 27 L 442 26 Z M 449 29 L 449 30 L 451 30 L 449 29 Z M 146 53 L 145 55 L 147 54 L 146 53 Z M 494 53 L 495 55 L 496 55 L 494 53 Z M 500 57 L 501 59 L 502 59 L 500 57 Z M 106 84 L 105 86 L 107 85 L 106 84 Z M 534 84 L 535 86 L 536 86 L 534 84 Z M 96 90 L 94 93 L 96 92 L 96 90 Z M 83 106 L 83 108 L 85 107 L 83 106 Z M 556 106 L 557 108 Q 558 105 556 106 Z M 79 112 L 77 115 L 79 114 L 79 112 Z M 562 112 L 561 114 L 563 115 L 562 112 Z M 67 127 L 65 130 L 67 129 L 67 127 Z M 574 127 L 573 129 L 575 130 L 574 127 Z M 577 131 L 576 133 L 578 134 L 577 131 Z M 456 135 L 432 159 L 482 210 L 488 214 L 511 191 L 456 135 Z M 59 138 L 57 141 L 59 140 L 59 138 Z M 582 138 L 581 140 L 583 141 L 582 138 Z M 57 141 L 55 144 L 57 143 L 57 141 Z M 586 144 L 585 146 L 587 147 L 586 144 Z M 411 146 L 329 228 L 343 242 L 343 243 L 345 243 L 409 179 L 410 179 L 410 181 L 171 420 L 225 475 L 227 475 Q 226 472 229 473 L 335 366 L 431 271 Q 430 268 433 269 L 442 260 L 442 258 L 444 258 L 468 234 Q 467 231 470 232 L 483 218 L 411 146 Z M 53 147 L 51 150 L 53 149 L 53 147 Z M 588 147 L 587 149 L 589 150 L 588 147 Z M 43 158 L 41 161 L 43 161 Q 46 160 43 158 Z M 44 162 L 42 165 L 44 164 L 44 162 Z M 597 162 L 596 164 L 598 165 L 597 162 Z M 30 189 L 29 192 L 30 192 L 30 189 Z M 611 189 L 610 192 L 611 192 L 611 189 Z M 27 196 L 26 199 L 27 199 L 27 196 Z M 614 196 L 613 199 L 614 199 L 614 196 Z M 25 201 L 24 204 L 25 204 L 25 201 Z M 616 201 L 615 204 L 616 204 L 616 201 Z M 23 206 L 22 209 L 23 209 L 23 206 Z M 618 206 L 617 209 L 618 209 L 618 206 Z M 22 209 L 21 212 L 22 212 L 22 209 Z M 619 209 L 618 212 L 619 212 L 619 209 Z M 21 212 L 20 215 L 21 215 L 21 212 Z M 620 212 L 619 215 L 620 215 L 620 212 Z M 19 217 L 18 220 L 19 220 L 19 217 Z M 17 220 L 17 224 L 18 224 Q 19 219 17 220 Z M 17 224 L 16 227 L 17 227 L 17 224 Z M 624 224 L 623 227 L 624 227 L 624 224 Z M 16 227 L 15 230 L 16 230 L 16 227 Z M 625 227 L 624 230 L 625 230 L 625 227 Z M 15 230 L 14 234 L 15 234 L 15 230 Z M 626 230 L 625 234 L 626 234 L 626 230 Z M 14 234 L 13 237 L 14 237 L 14 234 Z M 627 234 L 626 237 L 627 237 L 627 234 Z M 13 237 L 12 241 L 13 241 L 13 237 Z M 628 237 L 627 241 L 628 241 L 628 237 Z M 12 241 L 11 245 L 12 245 L 12 241 Z M 629 241 L 628 245 L 629 245 L 629 241 Z M 11 245 L 10 249 L 11 249 L 11 245 Z M 630 245 L 629 249 L 630 249 L 630 245 Z M 10 250 L 9 254 L 10 254 L 10 250 Z M 631 250 L 630 254 L 631 254 L 631 250 Z M 9 254 L 8 259 L 9 259 L 9 254 Z M 632 254 L 631 259 L 632 259 L 632 254 Z M 8 259 L 7 264 L 8 264 L 8 259 Z M 633 259 L 632 264 L 633 264 L 633 259 Z M 7 265 L 6 270 L 7 270 L 7 265 Z M 634 265 L 633 270 L 634 270 L 634 265 Z M 6 271 L 5 277 L 6 277 L 6 271 Z M 635 271 L 634 277 L 635 277 L 635 271 Z M 5 278 L 4 285 L 5 285 L 5 278 Z M 636 278 L 635 285 L 636 285 L 636 278 Z M 4 286 L 3 296 L 4 296 L 4 286 Z M 637 286 L 636 296 L 637 296 L 637 286 Z M 3 299 L 2 315 L 3 315 L 3 299 Z M 638 299 L 637 315 L 638 315 L 638 299 Z M 3 325 L 2 341 L 3 341 L 3 325 Z M 638 325 L 637 341 L 638 341 L 638 325 Z M 4 344 L 3 354 L 4 354 L 4 344 Z M 637 344 L 636 354 L 637 354 L 637 344 Z M 5 355 L 4 362 L 5 362 L 5 355 Z M 636 355 L 635 362 L 636 362 L 636 355 Z M 6 363 L 5 369 L 6 369 L 6 363 Z M 635 363 L 634 369 L 635 369 L 635 363 Z M 7 370 L 6 375 L 7 375 L 7 370 Z M 634 370 L 633 375 L 634 375 L 634 370 Z M 8 376 L 7 381 L 8 381 L 8 376 Z M 633 376 L 632 381 L 633 381 L 633 376 Z M 9 381 L 8 386 L 9 386 L 9 381 Z M 632 381 L 631 386 L 632 386 L 632 381 Z M 10 386 L 9 390 L 10 390 L 10 386 Z M 631 386 L 630 390 L 631 390 L 631 386 Z M 11 391 L 10 395 L 11 395 L 11 391 Z M 630 391 L 629 395 L 630 395 L 630 391 Z M 12 395 L 11 399 L 12 399 L 12 395 Z M 629 395 L 628 399 L 629 399 L 629 395 Z M 13 399 L 12 403 L 13 403 L 13 399 Z M 628 399 L 627 403 L 628 403 L 628 399 Z M 14 403 L 13 406 L 14 406 L 14 403 Z M 627 403 L 626 406 L 627 406 L 627 403 Z M 15 406 L 14 410 L 15 410 L 15 406 Z M 626 406 L 625 410 L 626 410 L 626 406 Z M 16 410 L 15 413 L 16 413 L 16 410 Z M 625 410 L 624 413 L 625 413 L 625 410 Z M 17 413 L 16 416 L 17 416 L 17 413 Z M 624 413 L 623 416 L 624 416 L 624 413 Z M 18 416 L 17 419 L 17 420 Q 19 419 18 423 L 19 423 L 18 416 Z M 21 425 L 20 428 L 21 428 L 21 425 Z M 166 425 L 141 489 L 156 505 L 221 480 L 217 474 Q 214 475 215 473 L 168 425 L 166 425 Z M 620 425 L 619 428 L 620 428 L 620 425 Z M 22 428 L 21 431 L 22 431 L 22 428 Z M 619 428 L 618 431 L 619 431 L 619 428 Z M 23 431 L 22 434 L 23 434 L 23 431 Z M 618 431 L 617 434 L 618 434 L 618 431 Z M 25 436 L 24 439 L 25 439 L 25 436 Z M 616 436 L 615 439 L 616 439 L 616 436 Z M 27 441 L 26 444 L 27 444 L 27 441 Z M 614 441 L 613 444 L 614 444 L 614 441 Z M 30 448 L 29 451 L 30 451 L 30 448 Z M 611 448 L 610 451 L 611 451 L 611 448 Z M 43 475 L 42 477 L 44 478 L 43 475 Z M 598 475 L 596 478 L 598 477 L 598 475 Z M 45 484 L 45 487 L 46 487 Q 47 483 45 484 Z M 52 490 L 51 492 L 53 493 L 52 490 Z M 589 490 L 587 493 L 589 492 L 589 490 Z M 54 493 L 53 495 L 55 496 L 54 493 Z M 587 493 L 585 496 L 587 495 L 587 493 Z M 138 496 L 136 503 Q 134 504 137 505 L 143 502 Q 145 503 144 501 L 138 496 Z M 58 499 L 57 501 L 59 502 L 58 499 Z M 145 502 L 141 509 L 143 511 L 149 508 Q 151 509 150 507 L 145 502 Z M 578 506 L 576 509 L 578 508 L 578 506 Z M 66 510 L 65 512 L 67 513 L 66 510 Z M 69 514 L 68 516 L 70 517 L 69 514 Z M 78 525 L 77 527 L 79 528 L 78 525 Z M 563 525 L 561 528 L 563 527 L 563 525 Z M 84 532 Q 82 535 85 534 L 84 532 Z M 556 533 L 554 536 L 556 535 L 556 533 Z M 105 554 L 106 556 L 107 556 L 105 554 Z M 535 554 L 534 556 L 536 555 L 535 554 Z M 142 583 L 143 585 L 144 585 L 142 583 Z M 145 585 L 146 587 L 147 587 L 145 585 Z M 495 585 L 494 587 L 496 586 L 495 585 Z M 190 610 L 190 611 L 192 611 L 190 610 Z M 197 613 L 197 614 L 199 614 L 197 613 Z M 442 613 L 442 614 L 444 614 L 442 613 Z M 202 615 L 202 616 L 204 616 L 202 615 Z M 437 615 L 437 616 L 439 616 L 437 615 Z M 207 617 L 207 618 L 209 618 L 207 617 Z M 432 617 L 432 618 L 434 618 L 432 617 Z M 210 618 L 210 619 L 212 619 L 210 618 Z M 429 618 L 429 619 L 431 619 L 429 618 Z M 213 619 L 213 620 L 215 620 L 213 619 Z M 426 619 L 426 620 L 428 620 L 426 619 Z M 218 621 L 218 622 L 221 622 L 218 621 Z M 421 621 L 421 622 L 423 622 L 421 621 Z M 222 622 L 222 623 L 224 623 L 222 622 Z M 417 622 L 417 623 L 419 623 L 417 622 Z M 225 623 L 225 624 L 227 624 L 225 623 Z M 414 623 L 414 624 L 416 624 L 414 623 Z M 228 624 L 228 625 L 230 625 L 228 624 Z M 411 624 L 411 625 L 413 625 L 411 624 Z M 231 625 L 231 626 L 233 626 L 231 625 Z M 408 625 L 408 626 L 410 626 L 408 625 Z M 235 626 L 235 627 L 237 627 L 235 626 Z M 404 626 L 404 627 L 406 627 L 404 626 Z M 238 627 L 238 628 L 241 628 L 238 627 Z M 400 627 L 400 628 L 403 628 L 400 627 Z M 242 628 L 242 629 L 245 629 L 242 628 Z M 396 628 L 396 629 L 399 629 L 396 628 Z M 246 629 L 246 630 L 249 630 L 246 629 Z M 392 629 L 392 630 L 395 630 L 392 629 Z M 251 630 L 251 631 L 254 631 L 251 630 Z M 387 630 L 387 631 L 390 631 L 387 630 Z M 255 631 L 255 632 L 259 632 L 255 631 Z M 382 631 L 382 632 L 386 632 L 382 631 Z M 260 632 L 260 633 L 264 633 L 260 632 Z M 377 632 L 377 633 L 381 633 L 377 632 Z M 266 633 L 266 634 L 270 634 L 266 633 Z M 371 633 L 371 634 L 375 634 L 371 633 Z M 272 634 L 272 635 L 277 635 L 272 634 Z M 364 634 L 364 635 L 369 635 L 364 634 Z M 279 635 L 279 636 L 285 636 L 279 635 Z M 356 635 L 356 636 L 362 636 L 356 635 Z M 288 636 L 288 637 L 297 637 L 288 636 Z M 344 636 L 344 637 L 353 637 L 344 636 Z M 300 637 L 300 638 L 315 638 L 300 637 Z M 326 637 L 326 638 L 341 638 L 326 637 Z " /><path fill="rgb(64,159,226)" stroke="rgb(64,159,226)" stroke-width="1" opacity="1" d="M 115.5 71 L 114.5 73 L 115.5 71 Z " /><path fill="rgb(64,159,226)" stroke="rgb(64,159,226)" stroke-width="1" opacity="1" d="M 88.5 96 L 87.5 98 L 88.5 96 Z " /><path fill="rgb(187,229,73)" stroke="rgb(187,229,73)" stroke-width="1" opacity="1" d="M 455.5 135 L 505 184.5 L 481.5 208 L 504 184.5 L 455.5 136 L 432 158.5 L 455.5 135 Z " /><path fill="rgb(187,229,73)" stroke="rgb(187,229,73)" stroke-width="1" opacity="1" d="M 410.5 146 L 477 211.5 L 220.5 469 L 476 212.5 L 411.5 147 L 329.5 228 L 410.5 146 Z " /><path fill="rgb(187,229,73)" stroke="rgb(187,229,73)" stroke-width="1" opacity="1" d="M 403.5 172 L 411 180.5 L 171 419.5 L 410 179.5 L 403.5 173 L 339 236.5 L 403.5 172 Z " /><path fill="rgb(187,229,73)" stroke="rgb(187,229,73)" stroke-width="1" opacity="1" d="M 167.5 425 L 214.5 473 L 167.5 425 Z " /><path fill="rgb(187,229,73)" stroke="rgb(187,229,73)" stroke-width="1" opacity="1" d="M 139.5 496 L 143.5 501 L 139.5 496 Z " /><path fill="rgb(187,229,73)" stroke="rgb(187,229,73)" stroke-width="1" opacity="1" d="M 135.5 503 L 136.5 505 L 135.5 503 Z " /><path fill="rgb(228,254,29)" stroke="rgb(228,254,29)" stroke-width="1" opacity="0.996078431372549" d="M 455.5 136 L 504 184.5 L 481.5 207 L 433 159.5 L 455.5 136 Z " /><path fill="rgb(228,254,29)" stroke="rgb(228,254,29)" stroke-width="1" opacity="0.996078431372549" d="M 410.5 147 L 476 211.5 L 219.5 469 L 171 420.5 L 411 180.5 L 403.5 172 L 338.5 237 L 330 228.5 L 410.5 147 Z " /><path fill="rgb(228,254,29)" stroke="rgb(228,254,29)" stroke-width="1" opacity="0.996078431372549" d="M 166.5 425 L 214.5 474 L 150.5 499 L 141 489.5 L 142 488.5 L 166.5 425 Z " /><path fill="rgb(228,254,29)" stroke="rgb(228,254,29)" stroke-width="1" opacity="0.996078431372549" d="M 138.5 496 L 143.5 502 L 136 504 L 138.5 496 Z " /></svg>