<?xml version="1.0" standalone="no"?>
<!DOCTYPE svg PUBLIC "-//W3C//DTD SVG 20010904//EN"
 "http://www.w3.org/TR/2001/REC-SVG-20010904/DTD/svg10.dtd">
<svg version="1.0" xmlns="http://www.w3.org/2000/svg"
 width="640.000000pt" height="640.000000pt" viewBox="0 0 640.000000 640.000000"
 preserveAspectRatio="xMidYMid meet">

<g transform="translate(0.000000,640.000000) scale(0.100000,-0.100000)"
fill="#ffffff" stroke="none">
<path d="M3712 4347 l-323 -323 29 -27 28 -27 322 323 323 323 -29 27 -28 27
-322 -323z"/>
<path d="M4930 4435 l-115 -115 28 -27 27 -28 115 115 116 116 -29 27 -28 27
-114 -115z"/>
<path d="M3486 2991 l-1287 -1287 28 -27 29 -26 1283 1283 1284 1284 -25 30
-25 30 -1287 -1287z"/>
<path d="M2025 1611 c-66 -26 -209 -83 -318 -126 l-199 -77 23 -24 c12 -13 26
-24 31 -24 4 0 142 52 305 116 164 64 308 120 321 125 l23 9 -29 25 c-17 14
-31 25 -33 25 -2 -1 -58 -23 -124 -49z"/>
<path d="M1430 1345 c-7 -20 -10 -38 -8 -40 6 -6 68 18 68 25 0 4 -11 17 -24
29 l-24 23 -12 -37z"/>
</g>
</svg>
