<svg xmlns="http://www.w3.org/2000/svg" width="640" height="331"><path fill="#b0b0b0" d="m87.824-.238 2.822-.03C111.79-.444 132.174-.033 153 4l3.404.633c22.09 4.172 44.086 9.852 65.28 17.39l2.168.768a521 521 0 0 1 10.254 3.755c20.813 7.575 38.563.82 58.014-7.485C310.502 11.241 322.238 9.13 341 16c4.025 1.63 8.012 3.346 12 5.063 19.317 8.27 35.64 11.993 55.821 4.38 3.817-1.433 7.664-2.782 11.511-4.13.795-.28 1.59-.56 2.41-.847C458.934 7.894 497.585-.401 535.947-.316c2.984.003 5.966-.02 8.95-.045C571.813-.45 596.674 5.335 620 19l2 1a276 276 0 0 1 6.777 6.852l1.848 1.898 1.727 1.797c1.696 1.686 1.696 1.686 4.648 2.453 8.026 16.053 1.567 36.85-2.25 53.125q-.747 3.286-1.488 6.574c-3.519 15.503-3.519 15.503-5.514 23.171l-.571 2.205a741 741 0 0 1-1.504 5.616c-.715 3.518-.793 6.729-.673 10.309h-2c-2.593 8.34-2.593 8.34-3 17h-2c-2.113 6.365-3.46 12.31-4 19h-2l.125 2.688c-.124 3.285-.739 5.366-2.125 8.312h-2l-1 8h-2q-.722 2.343-1.437 4.688l-.81 2.636c-.716 2.546-1.27 5.076-1.753 7.676h-2l-.133 2.703c-.879 6.126-4.043 11.554-6.742 17.047l-1.645 3.441c-4.238 8.737-4.238 8.737-7.48 11.809l-.5 2c-.614 2.455-1.738 3.238-3.5 5l-.5 2.125L578 250l-3 1-.21 2.047c-1.062 3.973-3.093 6.846-5.415 10.203l-1.362 1.999C558.147 279.618 558.147 279.618 554 281l-.312 1.813C553 285 553 285 550.305 286.785c-3.408 2.284-6.073 4.88-8.867 7.84C523.952 312.533 502.347 324.341 478 330l-2.251.533c-28.367 4.822-53.846-2.42-79.703-13.047-54.55-22.413-91.19-24.792-146.19-2.42l-2.645 1.074a998 998 0 0 0-12.841 5.326c-16.589 6.933-32.516 10.303-50.495 10.034l-2.228-.017c-11-.097-21.2-.762-31.647-4.483l-1.902-.65c-18.6-6.427-34.114-17.447-48.399-30.83-3.85-3.594-7.721-7.167-12.074-10.145C86 284 86 284 85.5 281.938L85 280l-1.852-.89c-2.497-1.29-3.44-2.511-5.023-4.813l-1.547-2.223L75 269.75l-1.578-2.277A876 876 0 0 1 69 261l-1.244-1.803c-1.879-2.751-3.035-4.95-3.756-8.197l-2-1-.437-1.875c-.394-2.208-.394-2.208-2.063-3.625-1.5-1.5-1.5-1.5-1.937-3.375-.457-2.312-.457-2.312-2.41-4.396-3.642-4.616-5.878-9.944-8.403-15.229l-1.68-3.418-1.586-3.3-1.446-2.999c-1.052-2.82-1.254-4.804-1.038-7.783h-2l-.367-2.012C37.775 197.466 36.96 193.201 35 189h-2l-.437-2.312c-.526-2.77-.526-2.77-1.563-5.688-.891-2.674-1.477-5.237-2-8h-2l-.875-3.937-.555-2.477q-.555-2.52-1.078-5.047L24 159.188l-.437-2.145c-.606-2.199-1.514-4.023-2.563-6.043-.85-2.551-1.405-4.904-1.902-7.536-1.048-5.345-2.325-10.612-3.664-15.89l-.725-2.88a7673 7673 0 0 0-2.271-9.007q-1.143-4.53-2.283-9.06-.706-2.805-1.416-5.609C7.733 97.027 6.746 93.051 6 89H4c-.945-8.372-.945-8.372-1.219-11.508C2.434 73.537 2 69.828.937 66-.19 61.304-.187 56.678-.187 51.875l-.003-2.316c.118-12.198.118-12.198 2.815-15.621.784-.64 1.567-1.28 2.375-1.938q1.688-1.467 3.375-2.937a217 217 0 0 1 5.41-4.489C15.223 23.422 16.615 22.215 18 21v-2l1.788-.396c3.43-.937 6.45-2.713 9.587-4.354C47.651 4.956 67.315-.06 87.825-.238M4 80l1 4Zm606 93 1 2Zm-1 3 1 2Zm-576 8 1 2Zm6 15 1 2Zm561 0 1 2Zm-3 7 1 2Zm-554 3 1 2Zm553 0 1 2Zm-551 4 1 2Zm549 0 1 2Z"/><path fill="#8B0000" d="m87.824-.238 2.822-.03C111.79-.444 132.174-.033 153 4l3.404.633c22.09 4.172 44.086 9.852 65.28 17.39l2.168.768a521 521 0 0 1 10.254 3.755c20.813 7.575 38.563.82 58.014-7.485C310.502 11.241 322.238 9.13 341 16c4.025 1.63 8.012 3.346 12 5.063 19.317 8.27 35.64 11.993 55.821 4.38 3.817-1.433 7.664-2.782 11.511-4.13.795-.28 1.59-.56 2.41-.847C458.934 7.894 497.585-.401 535.947-.316c2.984.003 5.966-.02 8.95-.045C571.813-.45 596.674 5.335 620 19l2 1a276 276 0 0 1 6.777 6.852l1.848 1.898 1.727 1.797c1.696 1.686 1.696 1.686 4.648 2.453 8.026 16.053 1.567 36.85-2.25 53.125q-.747 3.286-1.488 6.574c-3.519 15.503-3.519 15.503-5.514 23.171l-.571 2.205a741 741 0 0 1-1.504 5.616c-.715 3.518-.793 6.729-.673 10.309h-2c-2.593 8.34-2.593 8.34-3 17h-2c-2.113 6.365-3.46 12.31-4 19h-2l.125 2.688c-.124 3.285-.739 5.366-2.125 8.312h-2l-1 8h-2q-.722 2.343-1.437 4.688l-.81 2.636c-.716 2.546-1.27 5.076-1.753 7.676h-2l-.133 2.703c-.879 6.126-4.043 11.554-6.742 17.047l-1.645 3.441c-4.238 8.737-4.238 8.737-7.48 11.809l-.5 2c-.614 2.455-1.738 3.238-3.5 5l-.5 2.125L578 250l-3 1-.21 2.047c-1.062 3.973-3.093 6.846-5.415 10.203l-1.362 1.999C558.147 279.618 558.147 279.618 554 281l-.312 1.813C553 285 553 285 550.305 286.785c-3.408 2.284-6.073 4.88-8.867 7.84C523.952 312.533 502.347 324.341 478 330l-2.251.533c-28.367 4.822-53.846-2.42-79.703-13.047-54.55-22.413-91.19-24.792-146.19-2.42l-2.645 1.074a998 998 0 0 0-12.841 5.326c-16.589 6.933-32.516 10.303-50.495 10.034l-2.228-.017c-11-.097-21.2-.762-31.647-4.483l-1.902-.65c-18.6-6.427-34.114-17.447-48.399-30.83-3.85-3.594-7.721-7.167-12.074-10.145C86 284 86 284 85.5 281.938L85 280l-1.852-.89c-2.497-1.29-3.44-2.511-5.023-4.813l-1.547-2.223L75 269.75l-1.578-2.277A876 876 0 0 1 69 261l-1.244-1.803c-1.879-2.751-3.035-4.95-3.756-8.197l-2-1-.437-1.875c-.394-2.208-.394-2.208-2.063-3.625-1.5-1.5-1.5-1.5-1.937-3.375-.457-2.312-.457-2.312-2.41-4.396-3.642-4.616-5.878-9.944-8.403-15.229l-1.68-3.418-1.586-3.3-1.446-2.999c-1.052-2.82-1.254-4.804-1.038-7.783h-2l-.367-2.012C37.775 197.466 36.96 193.201 35 189h-2l-.437-2.312c-.526-2.77-.526-2.77-1.563-5.688-.891-2.674-1.477-5.237-2-8h-2l-.875-3.937-.555-2.477q-.555-2.52-1.078-5.047L24 159.188l-.437-2.145c-.606-2.199-1.514-4.023-2.563-6.043-.85-2.551-1.405-4.904-1.902-7.536-1.048-5.345-2.325-10.612-3.664-15.89l-.725-2.88a7673 7673 0 0 0-2.271-9.007q-1.143-4.53-2.283-9.06-.706-2.805-1.416-5.609C7.733 97.027 6.746 93.051 6 89H4c-.945-8.372-.945-8.372-1.219-11.508C2.434 73.537 2 69.828.937 66-.19 61.304-.187 56.678-.187 51.875l-.003-2.316c.118-12.198.118-12.198 2.815-15.621.784-.64 1.567-1.28 2.375-1.938q1.688-1.467 3.375-2.937a217 217 0 0 1 5.41-4.489C15.223 23.422 16.615 22.215 18 21v-2l1.788-.396c3.43-.937 6.45-2.713 9.587-4.354C47.651 4.956 67.315-.06 87.825-.238M18 39c-4.307 4.949-5.355 8.484-5.281 14.91.383 4.211 1.42 8.163 2.51 12.242 1.607 6.034 2.904 12.104 4.146 18.223C23.665 105.232 28.429 125.735 35 146l1.322 4.122C42.416 169.095 48.754 187.832 57 206l1.39 3.078C68.11 230.424 79.195 250.738 94 269l1.496 1.858C111.76 290.902 132.594 308.292 158 315l3.375.902c26.35 6.162 50.954.153 75.212-10.262 46.417-19.902 83.702-28.973 132.6-12.765l2.138.706c13.27 4.406 26.202 9.499 39.097 14.892 27.462 11.471 55.61 13.252 83.71 2.304 20.75-8.636 38.276-24.113 51.868-41.777l2.352-2.875c30.69-38.191 47.29-87.28 60.672-133.74.863-2.993 1.742-5.982 2.624-8.97 3.626-12.54 6.293-25.241 8.817-38.039a410 410 0 0 1 5.73-24.917c1.455-6.251 1.742-11.095-.633-17.084-11.404-16.85-34.498-24.187-53.42-27.968-53.232-10.112-109.363 5.799-159.478 22.956l-2.085.713c-2.79.956-5.575 1.923-8.348 2.93-20.817 7.439-42.713-3.018-61.709-11.054-14.233-5.985-22.376-7.732-37.038-1.804Q301.241 30.072 299 31c-29.245 11.99-29.245 11.99-41 13l-2.95.256c-9.571.433-17.207-1.77-26.064-4.985-3.94-1.428-7.904-2.784-11.865-4.15l-2.373-.825C204.308 30.686 193.68 27.806 183 25l-4.168-1.133C128.984 10.747 59.577.253 18 39M4 80l1 4Zm606 93 1 2Zm-1 3 1 2Zm-576 8 1 2Zm6 15 1 2Zm561 0 1 2Zm-3 7 1 2Zm-554 3 1 2Zm553 0 1 2Zm-551 4 1 2Zm549 0 1 2Z"/><path fill="#231f20" d="M213.188 140.813C227.967 153.225 242.903 174.16 248 193c.195 2.992.195 2.992.125 5.875l-.055 2.93L248 204c-29.765 16.065-71.625 19.288-104 10l-2.017-.551c-31.35-8.74-58.24-30.29-76.983-56.449l-1-3c4.711-1.1 9.388-2.097 14.172-2.824 18.098-2.765 34.381-8.124 51.137-15.392 6.77-2.906 13.525-5.032 20.691-6.784l2.379-.68c21.04-5.342 43.758-.502 60.809 12.493M466.188 126.75l2.537.025c18.612.333 35.563 6.058 52.525 13.35 9.192 3.947 17.926 6.955 27.75 8.875l2.045.408c4.642.92 9.295 1.767 13.955 2.592q3.25.592 6.5 1.188l4.5.812c-2.75 5.128-5.793 9.445-9.625 13.813l-1.604 1.84c-18.525 21.075-40 35.321-66.833 43.597l-2.396.747c-11.703 3.459-23.257 4.344-35.417 4.253l-2.002-.01c-9.546-.059-18.754-.287-28.123-2.24l-2.382-.489C397.13 209.13 397.13 209.13 392 204c-2.364-18.003 11.355-35.705 21.778-49.417 12.833-16.624 30.913-28.092 52.41-27.833"/><path fill="#8B0000" d="M312 296h16v1h-16z"/><path fill="#8B0000" d="M382 29h12v1h-12zM246 29h12v1h-12z"/><path fill="#8B0000" d="M636 80h1l-1 9h-1z"/><path d="M315 9h10v1h-10z"/><path fill="#8B0000" d="M499 0h7v1h-7zM134 0h7v1h-7z"/><path fill="#8B0000" d="M328 297h6v1h-6zM306 297h6v1h-6zM376 28h6v1h-6zM258 28h6v1h-6z"/><path fill="#8B0000" d="M153 3h6v1h-6zM487 2h6v1h-6z"/><path fill="#8B0000" d="M493 1h6v1h-6zM141 1h6v1h-6z"/><path fill="#8B0000" d="M570 0h6v1h-6zM64 0h6v1h-6z"/><path fill="#8B0000" d="M428 330h5v1h-5zM207 330h5v1h-5z"/><path fill="#8B0000" d="M7 98h1v5H7zM634 89h1v5h-1zM5 89h1v5H5z"/><path fill="#8B0000" d="M637 75h1v5h-1zM2 75h1v5H2zM638 70h1v5h-1zM1 70h1v5H1z"/><path fill="#8B0000" d="M639 65h1v5h-1zM0 65h1v5H0z"/><path fill="#8B0000" d="M467 6h5v1h-5zM168 6h5v1h-5z"/><path fill="#8B0000" d="M476 4h5v1h-5z"/><path fill="#8B0000" d="M159 4h5v1h-5z"/><path fill="#8B0000" d="M482 3h5v1h-5z"/><path fill="#8B0000" d="M148 2h5v1h-5zM576 1h5v1h-5z"/><path fill="#8B0000" d="m479 330 4 1ZM157 330l4 1Z"/><path fill="#8B0000" d="m483 329 4 1ZM424 329l4 1ZM212 329l4 1ZM153 329l4 1ZM420 328l4 1ZM216 328l4 1Z"/><path d="m533 302 2 1h-3zM105 302l3 1h-3z"/><path fill="#8B0000" d="m346 301 4 1ZM290 301l4 1Z"/><path d="m342 300 4 1ZM294 300l4 1ZM338 299l4 1ZM298 299l4 1Z"/><path fill="#8B0000" d="m334 298 4 1ZM302 298l4 1ZM621 141l1 4ZM18 141l1 4ZM623 134l1 4ZM16 134l1 4ZM626 123l1 4ZM13 123l1 4ZM627 119l1 4ZM12 119l1 4ZM628 115l1 4ZM11 115l1 4ZM629 111l1 4ZM10 111l1 4ZM630 107l1 4ZM9 107l1 4ZM631 103l1 4ZM8 103l1 4Z"/><path fill="#8B0000" d="m632 98 1 4Z"/><path fill="#8B0000" d="m633 94 1 4ZM6 94l1 4Z"/><path d="m394 28 4 1ZM242 28l4 1Z"/><path fill="#8B0000" d="m372 27 4 1ZM264 27l4 1ZM368 26l4 1ZM268 26l4 1ZM430 16l4 1ZM206 16l4 1ZM440 13l4 1ZM196 13l4 1Z"/><path d="m447 11 4 1Z"/><path fill="#8B0000" d="m307 11 4 1Z"/><path d="m189 11 4 1Z"/><path fill="#8B0000" d="m451 10 4 1ZM325 10l4 1ZM311 10l4 1ZM185 10l4 1ZM455 9l4 1ZM181 9l4 1ZM459 8l4 1ZM177 8l4 1Z"/><path fill="#8B0000" d="m463 7 4 1Z"/><path fill="#8B0000" d="m173 7 4 1Z"/><path fill="#8B0000" d="m472 5 4 1Z"/><path fill="#8B0000" d="m164 5 4 1Z"/><path fill="#8B0000" d="m588 4 4 1ZM48 4l4 1Z"/><path fill="#8B0000" d="m581 2 4 1Z"/><path fill="#8B0000" d="m55 2 4 1ZM60 1l4 1Z"/><path d="m487 328 3 1Z"/><path fill="#8B0000" d="m150 328 3 1Z"/><path d="m490 327 3 1Z"/><path fill="#8B0000" d="m417 327 3 1Z"/><path d="m220 327 3 1ZM147 327l3 1ZM493 326l3 1ZM144 326l3 1ZM412 325l3 1ZM498 324l3 1ZM139 324l3 1ZM400 320l3 1ZM237 320l3 1ZM395 318l3 1ZM242 318l3 1ZM390 316l3 1ZM247 316l3 1ZM382 313l3 1ZM255 313l3 1ZM374 310l3 1ZM263 310l3 1ZM371 309l3 1ZM266 309l3 1Z"/><path fill="#8B0000" d="m368 308 3 1ZM269 308l3 1ZM365 307l3 1ZM272 307l3 1ZM359 305l3 1ZM278 305l3 1ZM356 304l3 1ZM281 304l3 1ZM353 303l3 1Z"/><path fill="#8B0000" d="m284 303 3 1Z"/><path d="m350 302 3 1ZM287 302l3 1Z"/><path fill="#8B0000" d="m398 27 3 1Z"/><path fill="#8B0000" d="m239 27 3 1Z"/><path fill="#8B0000" d="m403 25 3 1Z"/><path fill="#8B0000" d="m365 25 3 1Z"/><path d="m272 25 3 1Z"/><path fill="#8B0000" d="m234 25 3 1Z"/><path d="m406 24 3 1ZM362 24l3 1ZM275 24l3 1ZM231 24l3 1ZM409 23l3 1ZM228 23l3 1ZM412 22l3 1ZM357 22l3 1ZM280 22l3 1ZM225 22l3 1ZM415 21l3 1ZM222 21l3 1ZM418 20l3 1ZM352 20l3 1ZM285 20l3 1ZM219 20l3 1ZM421 19l3 1ZM216 19l3 1Z"/><path fill="#8B0000" d="m424 18 3 1Z"/><path d="m213 18 3 1Z"/><path fill="#8B0000" d="m427 17 3 1ZM210 17l3 1Z"/><path d="m343 16 3 1ZM294 16l3 1ZM434 15l3 1Z"/><path fill="#8B0000" d="m203 15 3 1ZM437 14l3 1Z"/><path d="m338 14 3 1ZM299 14l3 1Z"/><path fill="#8B0000" d="m200 14 3 1ZM444 12l3 1ZM193 12l3 1ZM329 11l3 1Z"/><path fill="#8B0000" d="m595 6 3 1Z"/><path fill="#8B0000" d="m592 5 3 1ZM45 5l3 1Z"/><path d="m585 3 3 1Z"/><path fill="#8B0000" d="m52 3 3 1Z"/><path d="m415 326 2 1ZM223 326l2 1Z"/><path fill="#8B0000" d="m496 325 2 1Z"/><path d="m226 325 2 1Z"/><path fill="#8B0000" d="m142 325 2 1Z"/><path fill="#8B0000" d="m410 324 2 1ZM228 324l2 1Z"/><path d="m501 323 2 1ZM408 323l2 1ZM230 323l2 1ZM137 323l2 1Z"/><path fill="#8B0000" d="m503 322 2 1Z"/><path d="m405 322 2 1ZM233 322l2 1Z"/><path fill="#8B0000" d="m135 322 2 1Z"/><path d="m505 321 2 1ZM403 321l2 1ZM235 321l2 1ZM133 321l2 1ZM507 320l2 1ZM131 320l2 1ZM509 319l2 1Z"/><path fill="#8B0000" d="m398 319 2 1ZM240 319l2 1Z"/><path d="m129 319 2 1ZM512 317l2 1Z"/><path fill="#8B0000" d="m393 317 2 1ZM245 317l2 1Z"/><path d="m126 317 2 1ZM514 316l2 1ZM124 316l2 1ZM388 315l2 1ZM250 315l2 1ZM517 314l2 1Z"/><path fill="#8B0000" d="m385 314 2 1ZM253 314l2 1Z"/><path d="m121 314 2 1ZM520 312l2 1Z"/><path fill="#8B0000" d="m380 312 2 1ZM258 312l2 1Z"/><path d="m118 312 2 1Z"/><path fill="#8B0000" d="m377 311 2 1ZM261 311l2 1Z"/><path d="m523 310 2 1ZM115 310l2 1ZM527 307l2 1ZM111 307l2 1Z"/><path fill="#8B0000" d="m363 306 2 1ZM275 306l2 1ZM401 26l2 1ZM237 26l2 1ZM360 23l2 1ZM278 23l2 1Z"/><path d="m624 22 2 1ZM14 22l2 1Z"/><path fill="#8B0000" d="m355 21 2 1ZM283 21l2 1Z"/><path d="m350 19 2 1ZM288 19l2 1ZM348 18l2 1ZM290 18l2 1Z"/><path fill="#8B0000" d="m346 17 2 1ZM292 17l2 1Z"/><path d="m616 16 2 1ZM22 16l2 1ZM614 15l2 1ZM341 15l2 1ZM297 15l2 1ZM24 15l2 1ZM611 13l2 1Z"/><path fill="#8B0000" d="m336 13 2 1ZM302 13l2 1Z"/><path d="m27 13 2 1Z"/><path fill="#8B0000" d="m609 12 2 1Z"/><path fill="#8B0000" d="m333 12 2 1ZM305 12l2 1Z"/><path d="m29 12 2 1Z"/><path fill="#8B0000" d="m607 11 2 1Z"/><path d="m31 11 2 1Z"/><path fill="#8B0000" d="m605 10 2 1ZM33 10l2 1Z"/><path d="m603 9 2 1ZM35 9l2 1ZM600 8l2 1ZM38 8l2 1Z"/><path fill="#8B0000" d="m598 7 2 1ZM40 7l2 1ZM43 6l2 1Z"/></svg>