<?xml version="1.0" encoding="UTF-8"?>
<svg version="1.1" xmlns="http://www.w3.org/2000/svg" width="640" height="331">
<path d="M0 0 C1.39683266 -0.01469078 1.39683266 -0.01469078 2.82188416 -0.02967834 C23.96461864 -0.20599855 44.34974465 0.20534198 65.17578125 4.23828125 C66.8606665 4.55176514 66.8606665 4.55176514 68.57958984 4.87158203 C90.66920273 9.04326589 112.66575318 14.72368625 133.859375 22.26171875 C134.57495575 22.51498428 135.2905365 22.76824982 136.02780151 23.02919006 C139.45895783 24.24862515 142.87736878 25.49288843 146.28222656 26.78393555 C167.09466874 34.35887299 184.8443321 27.60453106 204.29541016 19.29956055 C222.67758045 11.47837246 234.41390346 9.36778436 253.17578125 16.23828125 C257.20028823 17.8692039 261.1873548 19.58382992 265.17578125 21.30078125 C284.49322149 29.57144908 300.81508775 33.29404482 320.99716187 25.68096924 C324.81416828 24.24835539 328.66055578 22.8996275 332.5078125 21.55078125 C333.30298782 21.27142731 334.09816315 20.99207336 334.91743469 20.70425415 C371.10958088 8.13204618 409.76036776 -0.16224436 448.12280273 -0.07739258 C451.10632722 -0.07422613 454.08886216 -0.09781984 457.07226562 -0.12304688 C483.98937411 -0.21103309 508.85072595 5.57309734 532.17578125 19.23828125 C532.83578125 19.56828125 533.49578125 19.89828125 534.17578125 20.23828125 C536.48291552 22.4794974 538.72581675 24.76952702 540.953125 27.08984375 C541.86771484 28.02957031 541.86771484 28.02957031 542.80078125 28.98828125 C543.37054687 29.58125 543.9403125 30.17421875 544.52734375 30.78515625 C546.2236924 32.47098315 546.2236924 32.47098315 549.17578125 33.23828125 C557.20223054 49.29117984 550.74237839 70.0876847 546.92578125 86.36328125 C546.42795645 88.5542949 545.93185403 90.74570064 545.4375 92.9375 C541.91908032 108.4399712 541.91908032 108.4399712 539.92382812 116.10839844 C539.73524231 116.83590302 539.54665649 117.56340759 539.35235596 118.31295776 C538.8604757 120.18751951 538.3552071 122.05855483 537.84863281 123.92919922 C537.13333026 127.4470551 537.05619434 130.65807706 537.17578125 134.23828125 C536.51578125 134.23828125 535.85578125 134.23828125 535.17578125 134.23828125 C532.58302987 142.5786263 532.58302987 142.5786263 532.17578125 151.23828125 C531.51578125 151.23828125 530.85578125 151.23828125 530.17578125 151.23828125 C528.06284296 157.60367397 526.71529191 163.54834906 526.17578125 170.23828125 C525.51578125 170.23828125 524.85578125 170.23828125 524.17578125 170.23828125 C524.23765625 171.56859375 524.23765625 171.56859375 524.30078125 172.92578125 C524.17680879 176.21105138 523.56190221 178.2927742 522.17578125 181.23828125 C521.51578125 181.23828125 520.85578125 181.23828125 520.17578125 181.23828125 C519.84578125 183.87828125 519.51578125 186.51828125 519.17578125 189.23828125 C518.51578125 189.23828125 517.85578125 189.23828125 517.17578125 189.23828125 C516.69365911 190.79987184 516.21522252 192.36260053 515.73828125 193.92578125 C515.47144531 194.79589844 515.20460938 195.66601562 514.9296875 196.5625 C514.21233596 199.10854046 513.65824025 201.63862355 513.17578125 204.23828125 C512.51578125 204.23828125 511.85578125 204.23828125 511.17578125 204.23828125 C511.11003906 205.57632813 511.11003906 205.57632813 511.04296875 206.94140625 C510.16380676 213.06777716 506.99972843 218.49557609 504.30078125 223.98828125 C503.75808594 225.12394531 503.21539063 226.25960937 502.65625 227.4296875 C498.41735672 236.16657511 498.41735672 236.16657511 495.17578125 239.23828125 C495.01078125 239.89828125 494.84578125 240.55828125 494.67578125 241.23828125 C494.06192632 243.69370096 492.93811343 244.47594907 491.17578125 246.23828125 C491.01078125 246.93953125 490.84578125 247.64078125 490.67578125 248.36328125 C490.51078125 248.98203125 490.34578125 249.60078125 490.17578125 250.23828125 C489.18578125 250.56828125 488.19578125 250.89828125 487.17578125 251.23828125 C487.07136719 252.25148437 487.07136719 252.25148437 486.96484375 253.28515625 C485.90335876 257.25784263 483.8724267 260.13116411 481.55078125 263.48828125 C481.1014624 264.14779785 480.65214355 264.80731445 480.18920898 265.48681641 C470.32302398 279.85586701 470.32302398 279.85586701 466.17578125 281.23828125 C466.02109375 282.13546875 466.02109375 282.13546875 465.86328125 283.05078125 C465.17578125 285.23828125 465.17578125 285.23828125 462.48046875 287.0234375 C459.07238384 289.30757951 456.40782895 291.90370308 453.61328125 294.86328125 C436.1275545 312.77114344 414.52386903 324.57930972 390.17578125 330.23828125 C389.43287842 330.41407715 388.68997559 330.58987305 387.92456055 330.77099609 C359.55762254 335.59329997 334.07831247 328.35206553 308.22212219 317.72454834 C253.67163767 295.3110783 217.03132366 292.93258441 162.03125 315.3046875 C161.15847412 315.65898331 160.28569824 316.01327911 159.38647461 316.37831116 C155.09410558 318.12634849 150.81301274 319.89669055 146.54541016 321.7043457 C129.95683297 328.63708998 114.03015246 332.00757149 96.05078125 331.73828125 C95.31564301 331.73274231 94.58050476 331.72720337 93.8230896 331.72149658 C82.8236628 331.6246116 72.62230839 330.95927875 62.17578125 327.23828125 C61.23412109 326.91682129 61.23412109 326.91682129 60.2734375 326.58886719 C41.6743489 320.16151615 26.15954053 309.14094762 11.875 295.7578125 C8.02533506 292.16442048 4.15357195 288.59150647 -0.19921875 285.61328125 C-1.82421875 284.23828125 -1.82421875 284.23828125 -2.32421875 282.17578125 C-2.48921875 281.53640625 -2.65421875 280.89703125 -2.82421875 280.23828125 C-3.43523437 279.94469727 -4.04625 279.65111328 -4.67578125 279.34863281 C-7.17347919 278.0577771 -8.11600728 276.83729778 -9.69921875 274.53515625 C-10.2096875 273.80167969 -10.72015625 273.06820313 -11.24609375 272.3125 C-11.766875 271.54550781 -12.28765625 270.77851563 -12.82421875 269.98828125 C-13.345 269.23675781 -13.86578125 268.48523438 -14.40234375 267.7109375 C-15.88805759 265.56115459 -17.35781551 263.40126471 -18.82421875 261.23828125 C-19.23462402 260.64313721 -19.6450293 260.04799316 -20.06787109 259.43481445 C-21.94696987 256.68420697 -23.10277169 254.484793 -23.82421875 251.23828125 C-24.48421875 250.90828125 -25.14421875 250.57828125 -25.82421875 250.23828125 C-25.96859375 249.61953125 -26.11296875 249.00078125 -26.26171875 248.36328125 C-26.65563147 246.1555583 -26.65563147 246.1555583 -28.32421875 244.73828125 C-29.82421875 243.23828125 -29.82421875 243.23828125 -30.26171875 241.36328125 C-30.71796048 239.05089383 -30.71796048 239.05089383 -32.67089844 236.96679688 C-36.31336589 232.35135285 -38.54968732 227.02288652 -41.07421875 221.73828125 C-41.90566406 220.04638672 -41.90566406 220.04638672 -42.75390625 218.3203125 C-43.27726562 217.23105469 -43.800625 216.14179688 -44.33984375 215.01953125 C-44.81711914 214.03017578 -45.29439453 213.04082031 -45.78613281 212.02148438 C-46.83808957 209.20109232 -47.0405126 207.21742295 -46.82421875 204.23828125 C-47.48421875 204.23828125 -48.14421875 204.23828125 -48.82421875 204.23828125 C-48.94539063 203.57441406 -49.0665625 202.91054687 -49.19140625 202.2265625 C-50.04969583 197.70403666 -50.86393186 193.43889601 -52.82421875 189.23828125 C-53.48421875 189.23828125 -54.14421875 189.23828125 -54.82421875 189.23828125 C-54.96859375 188.47515625 -55.11296875 187.71203125 -55.26171875 186.92578125 C-55.78747815 184.15655217 -55.78747815 184.15655217 -56.82421875 181.23828125 C-57.71552288 178.56436885 -58.30153409 176.00104302 -58.82421875 173.23828125 C-59.48421875 173.23828125 -60.14421875 173.23828125 -60.82421875 173.23828125 C-61.11588542 171.92578125 -61.40755208 170.61328125 -61.69921875 169.30078125 C-61.88226563 168.48351562 -62.0653125 167.66625 -62.25390625 166.82421875 C-62.62439326 165.14433929 -62.98438356 163.46209795 -63.33203125 161.77734375 C-63.49445312 161.00132812 -63.656875 160.2253125 -63.82421875 159.42578125 C-63.96859375 158.71808594 -64.11296875 158.01039063 -64.26171875 157.28125 C-64.86707787 155.0826193 -65.77536467 153.25814476 -66.82421875 151.23828125 C-67.67457288 148.68721886 -68.22951253 146.33433094 -68.72631836 143.70239258 C-69.7746408 138.35773215 -71.05123755 133.09068593 -72.390625 127.8125 C-72.62957993 126.86188187 -72.86853485 125.91126373 -73.11473083 124.93183899 C-73.86978959 121.92924244 -74.6280258 118.92746138 -75.38671875 115.92578125 C-76.14855294 112.90614318 -76.90967747 109.88633061 -77.66941833 106.86616516 C-78.13999579 104.99603172 -78.61183088 103.12621416 -79.08509827 101.25675964 C-80.09074177 97.26491962 -81.07855797 93.28891993 -81.82421875 89.23828125 C-82.48421875 89.23828125 -83.14421875 89.23828125 -83.82421875 89.23828125 C-84.76942423 80.86646129 -84.76942423 80.86646129 -85.04296875 77.73046875 C-85.39009309 73.77573072 -85.82492513 70.06672022 -86.88671875 66.23828125 C-88.01450507 61.54197703 -88.01123375 56.91675457 -88.01171875 52.11328125 C-88.01244385 51.34886719 -88.01316895 50.58445313 -88.01391602 49.796875 C-87.89632414 37.5990304 -87.89632414 37.5990304 -85.19921875 34.17578125 C-84.41546875 33.53640625 -83.63171875 32.89703125 -82.82421875 32.23828125 C-81.69841723 31.26003624 -80.5734885 30.2807863 -79.44921875 29.30078125 C-77.66469032 27.77834339 -75.87196546 26.27641593 -74.0390625 24.8125 C-72.60162024 23.66050727 -71.20844579 22.45370011 -69.82421875 21.23828125 C-69.82421875 20.57828125 -69.82421875 19.91828125 -69.82421875 19.23828125 C-69.23431152 19.10776367 -68.6444043 18.97724609 -68.03662109 18.84277344 C-64.60620048 17.9054835 -61.58539146 16.12929316 -58.44921875 14.48828125 C-40.17293375 5.19469291 -20.50913722 0.1780646 0 0 Z M-83.82421875 80.23828125 C-82.82421875 84.23828125 -82.82421875 84.23828125 -82.82421875 84.23828125 Z M522.17578125 173.23828125 C523.17578125 175.23828125 523.17578125 175.23828125 523.17578125 175.23828125 Z M521.17578125 176.23828125 C522.17578125 178.23828125 522.17578125 178.23828125 522.17578125 178.23828125 Z M-54.82421875 184.23828125 C-53.82421875 186.23828125 -53.82421875 186.23828125 -53.82421875 186.23828125 Z M-48.82421875 199.23828125 C-47.82421875 201.23828125 -47.82421875 201.23828125 -47.82421875 201.23828125 Z M512.17578125 199.23828125 C513.17578125 201.23828125 513.17578125 201.23828125 513.17578125 201.23828125 Z M509.17578125 206.23828125 C510.17578125 208.23828125 510.17578125 208.23828125 510.17578125 208.23828125 Z M-44.82421875 209.23828125 C-43.82421875 211.23828125 -43.82421875 211.23828125 -43.82421875 211.23828125 Z M508.17578125 209.23828125 C509.17578125 211.23828125 509.17578125 211.23828125 509.17578125 211.23828125 Z M-42.82421875 213.23828125 C-41.82421875 215.23828125 -41.82421875 215.23828125 -41.82421875 215.23828125 Z M506.17578125 213.23828125 C507.17578125 215.23828125 507.17578125 215.23828125 507.17578125 215.23828125 Z " fill="#FEFEFE" transform="translate(87.82421875,-0.23828125)"/>
<path d="M0 0 C1.39683266 -0.01469078 1.39683266 -0.01469078 2.82188416 -0.02967834 C23.96461864 -0.20599855 44.34974465 0.20534198 65.17578125 4.23828125 C66.8606665 4.55176514 66.8606665 4.55176514 68.57958984 4.87158203 C90.66920273 9.04326589 112.66575318 14.72368625 133.859375 22.26171875 C134.57495575 22.51498428 135.2905365 22.76824982 136.02780151 23.02919006 C139.45895783 24.24862515 142.87736878 25.49288843 146.28222656 26.78393555 C167.09466874 34.35887299 184.8443321 27.60453106 204.29541016 19.29956055 C222.67758045 11.47837246 234.41390346 9.36778436 253.17578125 16.23828125 C257.20028823 17.8692039 261.1873548 19.58382992 265.17578125 21.30078125 C284.49322149 29.57144908 300.81508775 33.29404482 320.99716187 25.68096924 C324.81416828 24.24835539 328.66055578 22.8996275 332.5078125 21.55078125 C333.30298782 21.27142731 334.09816315 20.99207336 334.91743469 20.70425415 C371.10958088 8.13204618 409.76036776 -0.16224436 448.12280273 -0.07739258 C451.10632722 -0.07422613 454.08886216 -0.09781984 457.07226562 -0.12304688 C483.98937411 -0.21103309 508.85072595 5.57309734 532.17578125 19.23828125 C532.83578125 19.56828125 533.49578125 19.89828125 534.17578125 20.23828125 C536.48291552 22.4794974 538.72581675 24.76952702 540.953125 27.08984375 C541.86771484 28.02957031 541.86771484 28.02957031 542.80078125 28.98828125 C543.37054687 29.58125 543.9403125 30.17421875 544.52734375 30.78515625 C546.2236924 32.47098315 546.2236924 32.47098315 549.17578125 33.23828125 C557.20223054 49.29117984 550.74237839 70.0876847 546.92578125 86.36328125 C546.42795645 88.5542949 545.93185403 90.74570064 545.4375 92.9375 C541.91908032 108.4399712 541.91908032 108.4399712 539.92382812 116.10839844 C539.73524231 116.83590302 539.54665649 117.56340759 539.35235596 118.31295776 C538.8604757 120.18751951 538.3552071 122.05855483 537.84863281 123.92919922 C537.13333026 127.4470551 537.05619434 130.65807706 537.17578125 134.23828125 C536.51578125 134.23828125 535.85578125 134.23828125 535.17578125 134.23828125 C532.58302987 142.5786263 532.58302987 142.5786263 532.17578125 151.23828125 C531.51578125 151.23828125 530.85578125 151.23828125 530.17578125 151.23828125 C528.06284296 157.60367397 526.71529191 163.54834906 526.17578125 170.23828125 C525.51578125 170.23828125 524.85578125 170.23828125 524.17578125 170.23828125 C524.23765625 171.56859375 524.23765625 171.56859375 524.30078125 172.92578125 C524.17680879 176.21105138 523.56190221 178.2927742 522.17578125 181.23828125 C521.51578125 181.23828125 520.85578125 181.23828125 520.17578125 181.23828125 C519.84578125 183.87828125 519.51578125 186.51828125 519.17578125 189.23828125 C518.51578125 189.23828125 517.85578125 189.23828125 517.17578125 189.23828125 C516.69365911 190.79987184 516.21522252 192.36260053 515.73828125 193.92578125 C515.47144531 194.79589844 515.20460938 195.66601562 514.9296875 196.5625 C514.21233596 199.10854046 513.65824025 201.63862355 513.17578125 204.23828125 C512.51578125 204.23828125 511.85578125 204.23828125 511.17578125 204.23828125 C511.11003906 205.57632813 511.11003906 205.57632813 511.04296875 206.94140625 C510.16380676 213.06777716 506.99972843 218.49557609 504.30078125 223.98828125 C503.75808594 225.12394531 503.21539063 226.25960937 502.65625 227.4296875 C498.41735672 236.16657511 498.41735672 236.16657511 495.17578125 239.23828125 C495.01078125 239.89828125 494.84578125 240.55828125 494.67578125 241.23828125 C494.06192632 243.69370096 492.93811343 244.47594907 491.17578125 246.23828125 C491.01078125 246.93953125 490.84578125 247.64078125 490.67578125 248.36328125 C490.51078125 248.98203125 490.34578125 249.60078125 490.17578125 250.23828125 C489.18578125 250.56828125 488.19578125 250.89828125 487.17578125 251.23828125 C487.07136719 252.25148437 487.07136719 252.25148437 486.96484375 253.28515625 C485.90335876 257.25784263 483.8724267 260.13116411 481.55078125 263.48828125 C481.1014624 264.14779785 480.65214355 264.80731445 480.18920898 265.48681641 C470.32302398 279.85586701 470.32302398 279.85586701 466.17578125 281.23828125 C466.02109375 282.13546875 466.02109375 282.13546875 465.86328125 283.05078125 C465.17578125 285.23828125 465.17578125 285.23828125 462.48046875 287.0234375 C459.07238384 289.30757951 456.40782895 291.90370308 453.61328125 294.86328125 C436.1275545 312.77114344 414.52386903 324.57930972 390.17578125 330.23828125 C389.43287842 330.41407715 388.68997559 330.58987305 387.92456055 330.77099609 C359.55762254 335.59329997 334.07831247 328.35206553 308.22212219 317.72454834 C253.67163767 295.3110783 217.03132366 292.93258441 162.03125 315.3046875 C161.15847412 315.65898331 160.28569824 316.01327911 159.38647461 316.37831116 C155.09410558 318.12634849 150.81301274 319.89669055 146.54541016 321.7043457 C129.95683297 328.63708998 114.03015246 332.00757149 96.05078125 331.73828125 C95.31564301 331.73274231 94.58050476 331.72720337 93.8230896 331.72149658 C82.8236628 331.6246116 72.62230839 330.95927875 62.17578125 327.23828125 C61.23412109 326.91682129 61.23412109 326.91682129 60.2734375 326.58886719 C41.6743489 320.16151615 26.15954053 309.14094762 11.875 295.7578125 C8.02533506 292.16442048 4.15357195 288.59150647 -0.19921875 285.61328125 C-1.82421875 284.23828125 -1.82421875 284.23828125 -2.32421875 282.17578125 C-2.48921875 281.53640625 -2.65421875 280.89703125 -2.82421875 280.23828125 C-3.43523437 279.94469727 -4.04625 279.65111328 -4.67578125 279.34863281 C-7.17347919 278.0577771 -8.11600728 276.83729778 -9.69921875 274.53515625 C-10.2096875 273.80167969 -10.72015625 273.06820313 -11.24609375 272.3125 C-11.766875 271.54550781 -12.28765625 270.77851563 -12.82421875 269.98828125 C-13.345 269.23675781 -13.86578125 268.48523438 -14.40234375 267.7109375 C-15.88805759 265.56115459 -17.35781551 263.40126471 -18.82421875 261.23828125 C-19.23462402 260.64313721 -19.6450293 260.04799316 -20.06787109 259.43481445 C-21.94696987 256.68420697 -23.10277169 254.484793 -23.82421875 251.23828125 C-24.48421875 250.90828125 -25.14421875 250.57828125 -25.82421875 250.23828125 C-25.96859375 249.61953125 -26.11296875 249.00078125 -26.26171875 248.36328125 C-26.65563147 246.1555583 -26.65563147 246.1555583 -28.32421875 244.73828125 C-29.82421875 243.23828125 -29.82421875 243.23828125 -30.26171875 241.36328125 C-30.71796048 239.05089383 -30.71796048 239.05089383 -32.67089844 236.96679688 C-36.31336589 232.35135285 -38.54968732 227.02288652 -41.07421875 221.73828125 C-41.90566406 220.04638672 -41.90566406 220.04638672 -42.75390625 218.3203125 C-43.27726562 217.23105469 -43.800625 216.14179688 -44.33984375 215.01953125 C-44.81711914 214.03017578 -45.29439453 213.04082031 -45.78613281 212.02148438 C-46.83808957 209.20109232 -47.0405126 207.21742295 -46.82421875 204.23828125 C-47.48421875 204.23828125 -48.14421875 204.23828125 -48.82421875 204.23828125 C-48.94539063 203.57441406 -49.0665625 202.91054687 -49.19140625 202.2265625 C-50.04969583 197.70403666 -50.86393186 193.43889601 -52.82421875 189.23828125 C-53.48421875 189.23828125 -54.14421875 189.23828125 -54.82421875 189.23828125 C-54.96859375 188.47515625 -55.11296875 187.71203125 -55.26171875 186.92578125 C-55.78747815 184.15655217 -55.78747815 184.15655217 -56.82421875 181.23828125 C-57.71552288 178.56436885 -58.30153409 176.00104302 -58.82421875 173.23828125 C-59.48421875 173.23828125 -60.14421875 173.23828125 -60.82421875 173.23828125 C-61.11588542 171.92578125 -61.40755208 170.61328125 -61.69921875 169.30078125 C-61.88226563 168.48351562 -62.0653125 167.66625 -62.25390625 166.82421875 C-62.62439326 165.14433929 -62.98438356 163.46209795 -63.33203125 161.77734375 C-63.49445312 161.00132812 -63.656875 160.2253125 -63.82421875 159.42578125 C-63.96859375 158.71808594 -64.11296875 158.01039063 -64.26171875 157.28125 C-64.86707787 155.0826193 -65.77536467 153.25814476 -66.82421875 151.23828125 C-67.67457288 148.68721886 -68.22951253 146.33433094 -68.72631836 143.70239258 C-69.7746408 138.35773215 -71.05123755 133.09068593 -72.390625 127.8125 C-72.62957993 126.86188187 -72.86853485 125.91126373 -73.11473083 124.93183899 C-73.86978959 121.92924244 -74.6280258 118.92746138 -75.38671875 115.92578125 C-76.14855294 112.90614318 -76.90967747 109.88633061 -77.66941833 106.86616516 C-78.13999579 104.99603172 -78.61183088 103.12621416 -79.08509827 101.25675964 C-80.09074177 97.26491962 -81.07855797 93.28891993 -81.82421875 89.23828125 C-82.48421875 89.23828125 -83.14421875 89.23828125 -83.82421875 89.23828125 C-84.76942423 80.86646129 -84.76942423 80.86646129 -85.04296875 77.73046875 C-85.39009309 73.77573072 -85.82492513 70.06672022 -86.88671875 66.23828125 C-88.01450507 61.54197703 -88.01123375 56.91675457 -88.01171875 52.11328125 C-88.01244385 51.34886719 -88.01316895 50.58445313 -88.01391602 49.796875 C-87.89632414 37.5990304 -87.89632414 37.5990304 -85.19921875 34.17578125 C-84.41546875 33.53640625 -83.63171875 32.89703125 -82.82421875 32.23828125 C-81.69841723 31.26003624 -80.5734885 30.2807863 -79.44921875 29.30078125 C-77.66469032 27.77834339 -75.87196546 26.27641593 -74.0390625 24.8125 C-72.60162024 23.66050727 -71.20844579 22.45370011 -69.82421875 21.23828125 C-69.82421875 20.57828125 -69.82421875 19.91828125 -69.82421875 19.23828125 C-69.23431152 19.10776367 -68.6444043 18.97724609 -68.03662109 18.84277344 C-64.60620048 17.9054835 -61.58539146 16.12929316 -58.44921875 14.48828125 C-40.17293375 5.19469291 -20.50913722 0.1780646 0 0 Z M-69.82421875 39.23828125 C-74.13128195 44.18729841 -75.17922699 47.7222507 -75.10546875 54.1484375 C-74.72216711 58.35943191 -73.68562782 62.31173053 -72.59448242 66.38989258 C-70.98829127 72.42392492 -69.69121199 78.49468922 -68.44921875 84.61328125 C-64.15857225 105.46990012 -59.39481187 125.97391587 -52.82421875 146.23828125 C-52.38332537 147.61204538 -51.94275123 148.985912 -51.50244141 150.35986328 C-45.40871379 169.33336013 -39.07028291 188.06967014 -30.82421875 206.23828125 C-30.3657959 207.25390137 -29.90737305 208.26952148 -29.43505859 209.31591797 C-19.71418435 230.66236568 -8.62814529 250.975721 6.17578125 269.23828125 C6.91610596 270.15794678 6.91610596 270.15794678 7.67138672 271.09619141 C23.93605671 291.13989634 44.76981209 308.53032766 70.17578125 315.23828125 C71.28953125 315.53605469 72.40328125 315.83382813 73.55078125 316.140625 C99.9002198 322.30207776 124.50494251 316.29297283 148.76269531 305.87866211 C195.17934179 285.9759917 232.4647994 276.90561544 281.36328125 293.11328125 C282.06855957 293.3462793 282.77383789 293.57927734 283.50048828 293.81933594 C296.77000768 298.22566077 309.70265767 303.3177936 322.59786987 308.7117157 C350.06025883 320.18266464 378.20718896 321.96307339 406.30810547 311.015625 C427.05738716 302.3795841 444.58397478 286.90272287 458.17578125 269.23828125 C458.95179688 268.28953125 459.7278125 267.34078125 460.52734375 266.36328125 C491.21693236 228.1717932 507.81738118 179.08346671 521.20019531 132.62402344 C522.06297054 129.62978748 522.94214454 126.64092892 523.82421875 123.65234375 C527.45004753 111.11350876 530.11718388 98.41192899 532.64111328 85.61425781 C534.30182779 77.23158315 536.19141974 68.96147066 538.37060547 60.69702148 C539.82584272 54.44585527 540.1130654 49.60186737 537.73828125 43.61328125 C526.33415321 26.76358342 503.23936224 19.42616322 484.31689453 15.64501953 C431.08625705 5.5330193 374.954849 21.44411602 324.83984375 38.6015625 C324.1517009 38.83677612 323.46355804 39.07198975 322.75456238 39.31433105 C319.96436538 40.27062036 317.17957474 41.23690335 314.40722656 42.24389648 C293.58965157 49.68284537 271.69377169 39.22628627 252.69775391 31.18994141 C238.46440259 25.20549652 230.32205022 23.45837642 215.66015625 29.38671875 C214.16472919 30.00236512 212.66996575 30.61962528 211.17578125 31.23828125 C181.93118713 43.22739972 181.93118713 43.22739972 170.17578125 44.23828125 C168.71591797 44.36493164 168.71591797 44.36493164 167.2265625 44.49414062 C157.65435891 44.92774388 150.01900419 42.72357046 141.16149902 39.5090332 C137.22232077 38.08082739 133.25792511 36.72546865 129.296875 35.359375 C128.51373932 35.08717133 127.73060364 34.81496765 126.92373657 34.53451538 C116.48407677 30.92444742 105.85621757 28.04357917 95.17578125 25.23828125 C93.78630766 24.8612319 92.39697041 24.48367951 91.0078125 24.10546875 C41.15932804 10.98472776 -28.24705337 0.4913281 -69.82421875 39.23828125 Z M-83.82421875 80.23828125 C-82.82421875 84.23828125 -82.82421875 84.23828125 -82.82421875 84.23828125 Z M522.17578125 173.23828125 C523.17578125 175.23828125 523.17578125 175.23828125 523.17578125 175.23828125 Z M521.17578125 176.23828125 C522.17578125 178.23828125 522.17578125 178.23828125 522.17578125 178.23828125 Z M-54.82421875 184.23828125 C-53.82421875 186.23828125 -53.82421875 186.23828125 -53.82421875 186.23828125 Z M-48.82421875 199.23828125 C-47.82421875 201.23828125 -47.82421875 201.23828125 -47.82421875 201.23828125 Z M512.17578125 199.23828125 C513.17578125 201.23828125 513.17578125 201.23828125 513.17578125 201.23828125 Z M509.17578125 206.23828125 C510.17578125 208.23828125 510.17578125 208.23828125 510.17578125 208.23828125 Z M-44.82421875 209.23828125 C-43.82421875 211.23828125 -43.82421875 211.23828125 -43.82421875 211.23828125 Z M508.17578125 209.23828125 C509.17578125 211.23828125 509.17578125 211.23828125 509.17578125 211.23828125 Z M-42.82421875 213.23828125 C-41.82421875 215.23828125 -41.82421875 215.23828125 -41.82421875 215.23828125 Z M506.17578125 213.23828125 C507.17578125 215.23828125 507.17578125 215.23828125 507.17578125 215.23828125 Z " fill="#231F20" transform="translate(87.82421875,-0.23828125)"/>
<path d="M0 0 C14.7794306 12.41286557 29.71559303 33.34893207 34.8125 52.1875 C35.0078125 55.1796875 35.0078125 55.1796875 34.9375 58.0625 C34.91945312 59.02929688 34.90140625 59.99609375 34.8828125 60.9921875 C34.85960937 61.71664062 34.83640625 62.44109375 34.8125 63.1875 C5.04778242 79.25267971 -36.81275613 82.47558658 -69.1875 73.1875 C-70.18571777 72.91462158 -70.18571777 72.91462158 -71.20410156 72.63623047 C-102.55481748 63.8964569 -129.44368962 42.3471918 -148.1875 16.1875 C-148.5175 15.1975 -148.8475 14.2075 -149.1875 13.1875 C-144.47601372 12.08655066 -139.79959352 11.0905375 -135.015625 10.36328125 C-116.91787633 7.59843736 -100.63433877 2.23938277 -83.87817383 -5.02880859 C-77.10862962 -7.9348501 -70.35340178 -10.06022029 -63.1875 -11.8125 C-62.40246094 -12.03679687 -61.61742187 -12.26109375 -60.80859375 -12.4921875 C-39.76899001 -17.83441732 -17.05070685 -12.99470537 0 0 Z " fill="#231F20" transform="translate(213.1875,140.8125)"/>
<path d="M0 0 C1.25598999 0.01232666 1.25598999 0.01232666 2.53735352 0.02490234 C21.14925216 0.3575451 38.10099064 6.0828739 55.0625 13.375 C64.2540879 17.32172387 72.98858271 20.33038398 82.8125 22.25 C83.48748535 22.3845459 84.1624707 22.5190918 84.85791016 22.65771484 C89.4999964 23.57878941 94.15239007 24.42533133 98.8125 25.25 C100.97930419 25.64507981 103.14598912 26.04081491 105.3125 26.4375 C106.81241422 26.70880801 108.31237666 26.97985067 109.8125 27.25 C107.0629612 32.3776944 104.01943315 36.69549099 100.1875 41.0625 C99.39363892 41.97370605 99.39363892 41.97370605 98.58374023 42.90332031 C80.05851084 63.97809726 58.58386164 78.22418336 31.75 86.5 C30.95956299 86.74645264 30.16912598 86.99290527 29.35473633 87.24682617 C17.65146119 90.70556302 6.09783098 91.59074295 -6.0625 91.5 C-6.72313446 91.49656586 -7.38376892 91.49313171 -8.06442261 91.48959351 C-17.6101061 91.43145585 -26.81898172 91.20261774 -36.1875 89.25 C-36.97350586 89.08870605 -37.75951172 88.92741211 -38.56933594 88.76123047 C-69.05801987 82.37948013 -69.05801987 82.37948013 -74.1875 77.25 C-76.55192761 59.2465726 -62.83263517 41.54485163 -52.40917969 27.83251953 C-39.57634255 11.20932802 -21.49605026 -0.259015 0 0 Z " fill="#231F20" transform="translate(466.1875,126.75)"/>
<path d="M0 0 C5.28 0 10.56 0 16 0 C16 0.33 16 0.66 16 1 C10.72 1 5.44 1 0 1 C0 0.67 0 0.34 0 0 Z " fill="#140000" transform="translate(312,296)"/>
<path d="M0 0 C3.96 0 7.92 0 12 0 C12 0.33 12 0.66 12 1 C8.04 1 4.08 1 0 1 C0 0.67 0 0.34 0 0 Z " fill="#2D0000" transform="translate(382,29)"/>
<path d="M0 0 C3.96 0 7.92 0 12 0 C12 0.33 12 0.66 12 1 C8.04 1 4.08 1 0 1 C0 0.67 0 0.34 0 0 Z " fill="#2D0000" transform="translate(246,29)"/>
<path d="M0 0 C0.33 0 0.66 0 1 0 C0.67 2.97 0.34 5.94 0 9 C-0.33 9 -0.66 9 -1 9 C-0.67 6.03 -0.34 3.06 0 0 Z " fill="#180000" transform="translate(636,80)"/>
<path d="M0 0 C3.3 0 6.6 0 10 0 C10 0.33 10 0.66 10 1 C6.7 1 3.4 1 0 1 C0 0.67 0 0.34 0 0 Z " fill="#000000" transform="translate(315,9)"/>
<path d="M0 0 C2.31 0 4.62 0 7 0 C7 0.33 7 0.66 7 1 C4.69 1 2.38 1 0 1 C0 0.67 0 0.34 0 0 Z " fill="#1B0000" transform="translate(499,0)"/>
<path d="M0 0 C2.31 0 4.62 0 7 0 C7 0.33 7 0.66 7 1 C4.69 1 2.38 1 0 1 C0 0.67 0 0.34 0 0 Z " fill="#1B0000" transform="translate(134,0)"/>
<path d="M0 0 C1.98 0 3.96 0 6 0 C6 0.33 6 0.66 6 1 C4.02 1 2.04 1 0 1 C0 0.67 0 0.34 0 0 Z " fill="#0D0000" transform="translate(328,297)"/>
<path d="M0 0 C1.98 0 3.96 0 6 0 C6 0.33 6 0.66 6 1 C4.02 1 2.04 1 0 1 C0 0.67 0 0.34 0 0 Z " fill="#0D0000" transform="translate(306,297)"/>
<path d="M0 0 C1.98 0 3.96 0 6 0 C6 0.33 6 0.66 6 1 C4.02 1 2.04 1 0 1 C0 0.67 0 0.34 0 0 Z " fill="#0D0000" transform="translate(376,28)"/>
<path d="M0 0 C1.98 0 3.96 0 6 0 C6 0.33 6 0.66 6 1 C4.02 1 2.04 1 0 1 C0 0.67 0 0.34 0 0 Z " fill="#0D0000" transform="translate(258,28)"/>
<path d="M0 0 C1.98 0 3.96 0 6 0 C6 0.33 6 0.66 6 1 C4.02 1 2.04 1 0 1 C0 0.67 0 0.34 0 0 Z " fill="#1A0000" transform="translate(153,3)"/>
<path d="M0 0 C1.98 0 3.96 0 6 0 C6 0.33 6 0.66 6 1 C4.02 1 2.04 1 0 1 C0 0.67 0 0.34 0 0 Z " fill="#1A0000" transform="translate(487,2)"/>
<path d="M0 0 C1.98 0 3.96 0 6 0 C6 0.33 6 0.66 6 1 C4.02 1 2.04 1 0 1 C0 0.67 0 0.34 0 0 Z " fill="#0D0000" transform="translate(493,1)"/>
<path d="M0 0 C1.98 0 3.96 0 6 0 C6 0.33 6 0.66 6 1 C4.02 1 2.04 1 0 1 C0 0.67 0 0.34 0 0 Z " fill="#0D0000" transform="translate(141,1)"/>
<path d="M0 0 C1.98 0 3.96 0 6 0 C6 0.33 6 0.66 6 1 C4.02 1 2.04 1 0 1 C0 0.67 0 0.34 0 0 Z " fill="#15000A" transform="translate(570,0)"/>
<path d="M0 0 C1.98 0 3.96 0 6 0 C6 0.33 6 0.66 6 1 C4.02 1 2.04 1 0 1 C0 0.67 0 0.34 0 0 Z " fill="#15000A" transform="translate(64,0)"/>
<path d="M0 0 C1.65 0 3.3 0 5 0 C5 0.33 5 0.66 5 1 C3.35 1 1.7 1 0 1 C0 0.67 0 0.34 0 0 Z " fill="#190000" transform="translate(428,330)"/>
<path d="M0 0 C1.65 0 3.3 0 5 0 C5 0.33 5 0.66 5 1 C3.35 1 1.7 1 0 1 C0 0.67 0 0.34 0 0 Z " fill="#190000" transform="translate(207,330)"/>
<path d="M0 0 C0.33 0 0.66 0 1 0 C1 1.65 1 3.3 1 5 C0.67 5 0.34 5 0 5 C0 3.35 0 1.7 0 0 Z " fill="#200000" transform="translate(7,98)"/>
<path d="M0 0 C0.33 0 0.66 0 1 0 C1 1.65 1 3.3 1 5 C0.67 5 0.34 5 0 5 C0 3.35 0 1.7 0 0 Z " fill="#200000" transform="translate(634,89)"/>
<path d="M0 0 C0.33 0 0.66 0 1 0 C1 1.65 1 3.3 1 5 C0.67 5 0.34 5 0 5 C0 3.35 0 1.7 0 0 Z " fill="#200000" transform="translate(5,89)"/>
<path d="M0 0 C0.33 0 0.66 0 1 0 C1 1.65 1 3.3 1 5 C0.67 5 0.34 5 0 5 C0 3.35 0 1.7 0 0 Z " fill="#100000" transform="translate(637,75)"/>
<path d="M0 0 C0.33 0 0.66 0 1 0 C1 1.65 1 3.3 1 5 C0.67 5 0.34 5 0 5 C0 3.35 0 1.7 0 0 Z " fill="#100000" transform="translate(2,75)"/>
<path d="M0 0 C0.33 0 0.66 0 1 0 C1 1.65 1 3.3 1 5 C0.67 5 0.34 5 0 5 C0 3.35 0 1.7 0 0 Z " fill="#100000" transform="translate(638,70)"/>
<path d="M0 0 C0.33 0 0.66 0 1 0 C1 1.65 1 3.3 1 5 C0.67 5 0.34 5 0 5 C0 3.35 0 1.7 0 0 Z " fill="#100000" transform="translate(1,70)"/>
<path d="M0 0 C0.33 0 0.66 0 1 0 C1 1.65 1 3.3 1 5 C0.67 5 0.34 5 0 5 C0 3.35 0 1.7 0 0 Z " fill="#1D0000" transform="translate(639,65)"/>
<path d="M0 0 C0.33 0 0.66 0 1 0 C1 1.65 1 3.3 1 5 C0.67 5 0.34 5 0 5 C0 3.35 0 1.7 0 0 Z " fill="#1D0000" transform="translate(0,65)"/>
<path d="M0 0 C1.65 0 3.3 0 5 0 C5 0.33 5 0.66 5 1 C3.35 1 1.7 1 0 1 C0 0.67 0 0.34 0 0 Z " fill="#100000" transform="translate(467,6)"/>
<path d="M0 0 C1.65 0 3.3 0 5 0 C5 0.33 5 0.66 5 1 C3.35 1 1.7 1 0 1 C0 0.67 0 0.34 0 0 Z " fill="#100000" transform="translate(168,6)"/>
<path d="M0 0 C1.65 0 3.3 0 5 0 C5 0.33 5 0.66 5 1 C3.35 1 1.7 1 0 1 C0 0.67 0 0.34 0 0 Z " fill="#200000" transform="translate(476,4)"/>
<path d="M0 0 C1.65 0 3.3 0 5 0 C5 0.33 5 0.66 5 1 C3.35 1 1.7 1 0 1 C0 0.67 0 0.34 0 0 Z " fill="#100000" transform="translate(159,4)"/>
<path d="M0 0 C1.65 0 3.3 0 5 0 C5 0.33 5 0.66 5 1 C3.35 1 1.7 1 0 1 C0 0.67 0 0.34 0 0 Z " fill="#200000" transform="translate(482,3)"/>
<path d="M0 0 C1.65 0 3.3 0 5 0 C5 0.33 5 0.66 5 1 C3.35 1 1.7 1 0 1 C0 0.67 0 0.34 0 0 Z " fill="#100000" transform="translate(148,2)"/>
<path d="M0 0 C1.65 0 3.3 0 5 0 C5 0.33 5 0.66 5 1 C3.35 1 1.7 1 0 1 C0 0.67 0 0.34 0 0 Z " fill="#100000" transform="translate(576,1)"/>
<path d="M0 0 C4 1 4 1 4 1 Z " fill="#1F0000" transform="translate(479,330)"/>
<path d="M0 0 C4 1 4 1 4 1 Z " fill="#1F0000" transform="translate(157,330)"/>
<path d="M0 0 C4 1 4 1 4 1 Z " fill="#140000" transform="translate(483,329)"/>
<path d="M0 0 C4 1 4 1 4 1 Z " fill="#140000" transform="translate(424,329)"/>
<path d="M0 0 C4 1 4 1 4 1 Z " fill="#140000" transform="translate(212,329)"/>
<path d="M0 0 C4 1 4 1 4 1 Z " fill="#140000" transform="translate(153,329)"/>
<path d="M0 0 C4 1 4 1 4 1 Z " fill="#140000" transform="translate(420,328)"/>
<path d="M0 0 C4 1 4 1 4 1 Z " fill="#140000" transform="translate(216,328)"/>
<path d="M0 0 C0.66 0.33 1.32 0.66 2 1 C1.01 1 0.02 1 -1 1 C-0.67 0.67 -0.34 0.34 0 0 Z " fill="#000000" transform="translate(533,302)"/>
<path d="M0 0 C0.99 0.33 1.98 0.66 3 1 C2.01 1 1.02 1 0 1 C0 0.67 0 0.34 0 0 Z " fill="#000000" transform="translate(105,302)"/>
<path d="M0 0 C4 1 4 1 4 1 Z " fill="#140000" transform="translate(346,301)"/>
<path d="M0 0 C4 1 4 1 4 1 Z " fill="#140000" transform="translate(290,301)"/>
<path d="M0 0 C4 1 4 1 4 1 Z " fill="#000000" transform="translate(342,300)"/>
<path d="M0 0 C4 1 4 1 4 1 Z " fill="#000000" transform="translate(294,300)"/>
<path d="M0 0 C4 1 4 1 4 1 Z " fill="#000000" transform="translate(338,299)"/>
<path d="M0 0 C4 1 4 1 4 1 Z " fill="#000000" transform="translate(298,299)"/>
<path d="M0 0 C4 1 4 1 4 1 Z " fill="#140000" transform="translate(334,298)"/>
<path d="M0 0 C4 1 4 1 4 1 Z " fill="#140000" transform="translate(302,298)"/>
<path d="M0 0 C1 4 1 4 1 4 Z " fill="#140000" transform="translate(621,141)"/>
<path d="M0 0 C1 4 1 4 1 4 Z " fill="#140000" transform="translate(18,141)"/>
<path d="M0 0 C1 4 1 4 1 4 Z " fill="#140000" transform="translate(623,134)"/>
<path d="M0 0 C1 4 1 4 1 4 Z " fill="#140000" transform="translate(16,134)"/>
<path d="M0 0 C1 4 1 4 1 4 Z " fill="#140000" transform="translate(626,123)"/>
<path d="M0 0 C1 4 1 4 1 4 Z " fill="#140000" transform="translate(13,123)"/>
<path d="M0 0 C1 4 1 4 1 4 Z " fill="#140000" transform="translate(627,119)"/>
<path d="M0 0 C1 4 1 4 1 4 Z " fill="#140000" transform="translate(12,119)"/>
<path d="M0 0 C1 4 1 4 1 4 Z " fill="#140000" transform="translate(628,115)"/>
<path d="M0 0 C1 4 1 4 1 4 Z " fill="#140000" transform="translate(11,115)"/>
<path d="M0 0 C1 4 1 4 1 4 Z " fill="#140000" transform="translate(629,111)"/>
<path d="M0 0 C1 4 1 4 1 4 Z " fill="#140000" transform="translate(10,111)"/>
<path d="M0 0 C1 4 1 4 1 4 Z " fill="#140000" transform="translate(630,107)"/>
<path d="M0 0 C1 4 1 4 1 4 Z " fill="#140000" transform="translate(9,107)"/>
<path d="M0 0 C1 4 1 4 1 4 Z " fill="#140000" transform="translate(631,103)"/>
<path d="M0 0 C1 4 1 4 1 4 Z " fill="#140000" transform="translate(8,103)"/>
<path d="M0 0 C1 4 1 4 1 4 Z " fill="#280000" transform="translate(632,98)"/>
<path d="M0 0 C1 4 1 4 1 4 Z " fill="#140000" transform="translate(633,94)"/>
<path d="M0 0 C1 4 1 4 1 4 Z " fill="#140000" transform="translate(6,94)"/>
<path d="M0 0 C4 1 4 1 4 1 Z " fill="#000000" transform="translate(394,28)"/>
<path d="M0 0 C4 1 4 1 4 1 Z " fill="#000000" transform="translate(242,28)"/>
<path d="M0 0 C4 1 4 1 4 1 Z " fill="#140000" transform="translate(372,27)"/>
<path d="M0 0 C4 1 4 1 4 1 Z " fill="#140000" transform="translate(264,27)"/>
<path d="M0 0 C4 1 4 1 4 1 Z " fill="#140000" transform="translate(368,26)"/>
<path d="M0 0 C4 1 4 1 4 1 Z " fill="#140000" transform="translate(268,26)"/>
<path d="M0 0 C4 1 4 1 4 1 Z " fill="#140000" transform="translate(430,16)"/>
<path d="M0 0 C4 1 4 1 4 1 Z " fill="#140000" transform="translate(206,16)"/>
<path d="M0 0 C4 1 4 1 4 1 Z " fill="#140000" transform="translate(440,13)"/>
<path d="M0 0 C4 1 4 1 4 1 Z " fill="#140000" transform="translate(196,13)"/>
<path d="M0 0 C4 1 4 1 4 1 Z " fill="#000000" transform="translate(447,11)"/>
<path d="M0 0 C4 1 4 1 4 1 Z " fill="#140000" transform="translate(307,11)"/>
<path d="M0 0 C4 1 4 1 4 1 Z " fill="#000000" transform="translate(189,11)"/>
<path d="M0 0 C4 1 4 1 4 1 Z " fill="#140000" transform="translate(451,10)"/>
<path d="M0 0 C4 1 4 1 4 1 Z " fill="#140000" transform="translate(325,10)"/>
<path d="M0 0 C4 1 4 1 4 1 Z " fill="#140000" transform="translate(311,10)"/>
<path d="M0 0 C4 1 4 1 4 1 Z " fill="#140000" transform="translate(185,10)"/>
<path d="M0 0 C4 1 4 1 4 1 Z " fill="#140000" transform="translate(455,9)"/>
<path d="M0 0 C4 1 4 1 4 1 Z " fill="#140000" transform="translate(181,9)"/>
<path d="M0 0 C4 1 4 1 4 1 Z " fill="#140000" transform="translate(459,8)"/>
<path d="M0 0 C4 1 4 1 4 1 Z " fill="#140000" transform="translate(177,8)"/>
<path d="M0 0 C4 1 4 1 4 1 Z " fill="#2E0000" transform="translate(463,7)"/>
<path d="M0 0 C4 1 4 1 4 1 Z " fill="#140000" transform="translate(173,7)"/>
<path d="M0 0 C4 1 4 1 4 1 Z " fill="#280000" transform="translate(472,5)"/>
<path d="M0 0 C4 1 4 1 4 1 Z " fill="#2E0000" transform="translate(164,5)"/>
<path d="M0 0 C4 1 4 1 4 1 Z " fill="#140000" transform="translate(588,4)"/>
<path d="M0 0 C4 1 4 1 4 1 Z " fill="#140000" transform="translate(48,4)"/>
<path d="M0 0 C4 1 4 1 4 1 Z " fill="#280000" transform="translate(581,2)"/>
<path d="M0 0 C4 1 4 1 4 1 Z " fill="#140000" transform="translate(55,2)"/>
<path d="M0 0 C4 1 4 1 4 1 Z " fill="#140000" transform="translate(60,1)"/>
<path d="M0 0 C3 1 3 1 3 1 Z " fill="#000000" transform="translate(487,328)"/>
<path d="M0 0 C3 1 3 1 3 1 Z " fill="#1B0000" transform="translate(150,328)"/>
<path d="M0 0 C3 1 3 1 3 1 Z " fill="#000000" transform="translate(490,327)"/>
<path d="M0 0 C3 1 3 1 3 1 Z " fill="#1B0000" transform="translate(417,327)"/>
<path d="M0 0 C3 1 3 1 3 1 Z " fill="#000000" transform="translate(220,327)"/>
<path d="M0 0 C3 1 3 1 3 1 Z " fill="#000000" transform="translate(147,327)"/>
<path d="M0 0 C3 1 3 1 3 1 Z " fill="#000000" transform="translate(493,326)"/>
<path d="M0 0 C3 1 3 1 3 1 Z " fill="#000000" transform="translate(144,326)"/>
<path d="M0 0 C3 1 3 1 3 1 Z " fill="#000000" transform="translate(412,325)"/>
<path d="M0 0 C3 1 3 1 3 1 Z " fill="#000000" transform="translate(498,324)"/>
<path d="M0 0 C3 1 3 1 3 1 Z " fill="#000000" transform="translate(139,324)"/>
<path d="M0 0 C3 1 3 1 3 1 Z " fill="#000000" transform="translate(400,320)"/>
<path d="M0 0 C3 1 3 1 3 1 Z " fill="#000000" transform="translate(237,320)"/>
<path d="M0 0 C3 1 3 1 3 1 Z " fill="#000000" transform="translate(395,318)"/>
<path d="M0 0 C3 1 3 1 3 1 Z " fill="#000000" transform="translate(242,318)"/>
<path d="M0 0 C3 1 3 1 3 1 Z " fill="#000000" transform="translate(390,316)"/>
<path d="M0 0 C3 1 3 1 3 1 Z " fill="#000000" transform="translate(247,316)"/>
<path d="M0 0 C3 1 3 1 3 1 Z " fill="#000000" transform="translate(382,313)"/>
<path d="M0 0 C3 1 3 1 3 1 Z " fill="#000000" transform="translate(255,313)"/>
<path d="M0 0 C3 1 3 1 3 1 Z " fill="#000000" transform="translate(374,310)"/>
<path d="M0 0 C3 1 3 1 3 1 Z " fill="#000000" transform="translate(263,310)"/>
<path d="M0 0 C3 1 3 1 3 1 Z " fill="#000000" transform="translate(371,309)"/>
<path d="M0 0 C3 1 3 1 3 1 Z " fill="#000000" transform="translate(266,309)"/>
<path d="M0 0 C3 1 3 1 3 1 Z " fill="#1B0000" transform="translate(368,308)"/>
<path d="M0 0 C3 1 3 1 3 1 Z " fill="#1B0000" transform="translate(269,308)"/>
<path d="M0 0 C3 1 3 1 3 1 Z " fill="#1B0000" transform="translate(365,307)"/>
<path d="M0 0 C3 1 3 1 3 1 Z " fill="#1B0000" transform="translate(272,307)"/>
<path d="M0 0 C3 1 3 1 3 1 Z " fill="#1B0000" transform="translate(359,305)"/>
<path d="M0 0 C3 1 3 1 3 1 Z " fill="#1B0000" transform="translate(278,305)"/>
<path d="M0 0 C3 1 3 1 3 1 Z " fill="#1B0000" transform="translate(356,304)"/>
<path d="M0 0 C3 1 3 1 3 1 Z " fill="#1B0000" transform="translate(281,304)"/>
<path d="M0 0 C3 1 3 1 3 1 Z " fill="#1B0000" transform="translate(353,303)"/>
<path d="M0 0 C3 1 3 1 3 1 Z " fill="#240000" transform="translate(284,303)"/>
<path d="M0 0 C3 1 3 1 3 1 Z " fill="#000000" transform="translate(350,302)"/>
<path d="M0 0 C3 1 3 1 3 1 Z " fill="#000000" transform="translate(287,302)"/>
<path d="" fill="#1B0000" transform="translate(0,0)"/>
<path d="" fill="#1B0000" transform="translate(0,0)"/>
<path d="" fill="#1B0000" transform="translate(0,0)"/>
<path d="" fill="#1B0000" transform="translate(0,0)"/>
<path d="" fill="#1B0000" transform="translate(0,0)"/>
<path d="" fill="#1B0000" transform="translate(0,0)"/>
<path d="" fill="#1B0000" transform="translate(0,0)"/>
<path d="" fill="#3E0000" transform="translate(0,0)"/>
<path d="" fill="#3E0000" transform="translate(0,0)"/>
<path d="" fill="#3E0000" transform="translate(0,0)"/>
<path d="" fill="#1B0000" transform="translate(0,0)"/>
<path d="" fill="#1B0000" transform="translate(0,0)"/>
<path d="" fill="#1A0000" transform="translate(0,0)"/>
<path d="" fill="#1A0000" transform="translate(0,0)"/>
<path d="" fill="#1B0000" transform="translate(0,0)"/>
<path d="" fill="#1B0000" transform="translate(0,0)"/>
<path d="" fill="#3D0000" transform="translate(0,0)"/>
<path d="" fill="#3D0000" transform="translate(0,0)"/>
<path d="" fill="#3E0000" transform="translate(0,0)"/>
<path d="" fill="#3E0000" transform="translate(0,0)"/>
<path d="" fill="#350000" transform="translate(0,0)"/>
<path d="" fill="#1B0000" transform="translate(0,0)"/>
<path d="" fill="#1B0000" transform="translate(0,0)"/>
<path d="M0 0 C3 1 3 1 3 1 Z " fill="#250000" transform="translate(398,27)"/>
<path d="M0 0 C3 1 3 1 3 1 Z " fill="#1B0000" transform="translate(239,27)"/>
<path d="M0 0 C3 1 3 1 3 1 Z " fill="#1A0000" transform="translate(403,25)"/>
<path d="M0 0 C3 1 3 1 3 1 Z " fill="#1B0000" transform="translate(365,25)"/>
<path d="M0 0 C3 1 3 1 3 1 Z " fill="#000000" transform="translate(272,25)"/>
<path d="M0 0 C3 1 3 1 3 1 Z " fill="#1B0000" transform="translate(234,25)"/>
<path d="M0 0 C3 1 3 1 3 1 Z " fill="#000000" transform="translate(406,24)"/>
<path d="M0 0 C3 1 3 1 3 1 Z " fill="#000000" transform="translate(362,24)"/>
<path d="M0 0 C3 1 3 1 3 1 Z " fill="#000000" transform="translate(275,24)"/>
<path d="M0 0 C3 1 3 1 3 1 Z " fill="#000000" transform="translate(231,24)"/>
<path d="M0 0 C3 1 3 1 3 1 Z " fill="#000000" transform="translate(409,23)"/>
<path d="M0 0 C3 1 3 1 3 1 Z " fill="#000000" transform="translate(228,23)"/>
<path d="M0 0 C3 1 3 1 3 1 Z " fill="#000000" transform="translate(412,22)"/>
<path d="M0 0 C3 1 3 1 3 1 Z " fill="#000000" transform="translate(357,22)"/>
<path d="M0 0 C3 1 3 1 3 1 Z " fill="#000000" transform="translate(280,22)"/>
<path d="M0 0 C3 1 3 1 3 1 Z " fill="#000000" transform="translate(225,22)"/>
<path d="M0 0 C3 1 3 1 3 1 Z " fill="#000000" transform="translate(415,21)"/>
<path d="M0 0 C3 1 3 1 3 1 Z " fill="#000000" transform="translate(222,21)"/>
<path d="M0 0 C3 1 3 1 3 1 Z " fill="#000000" transform="translate(418,20)"/>
<path d="M0 0 C3 1 3 1 3 1 Z " fill="#000000" transform="translate(352,20)"/>
<path d="M0 0 C3 1 3 1 3 1 Z " fill="#000000" transform="translate(285,20)"/>
<path d="M0 0 C3 1 3 1 3 1 Z " fill="#000000" transform="translate(219,20)"/>
<path d="M0 0 C3 1 3 1 3 1 Z " fill="#000000" transform="translate(421,19)"/>
<path d="M0 0 C3 1 3 1 3 1 Z " fill="#000000" transform="translate(216,19)"/>
<path d="M0 0 C3 1 3 1 3 1 Z " fill="#1B0000" transform="translate(424,18)"/>
<path d="M0 0 C3 1 3 1 3 1 Z " fill="#000000" transform="translate(213,18)"/>
<path d="M0 0 C3 1 3 1 3 1 Z " fill="#1B0000" transform="translate(427,17)"/>
<path d="M0 0 C3 1 3 1 3 1 Z " fill="#1B0000" transform="translate(210,17)"/>
<path d="M0 0 C3 1 3 1 3 1 Z " fill="#000000" transform="translate(343,16)"/>
<path d="M0 0 C3 1 3 1 3 1 Z " fill="#000000" transform="translate(294,16)"/>
<path d="M0 0 C3 1 3 1 3 1 Z " fill="#000000" transform="translate(434,15)"/>
<path d="M0 0 C3 1 3 1 3 1 Z " fill="#1B0000" transform="translate(203,15)"/>
<path d="M0 0 C3 1 3 1 3 1 Z " fill="#1B0000" transform="translate(437,14)"/>
<path d="M0 0 C3 1 3 1 3 1 Z " fill="#000000" transform="translate(338,14)"/>
<path d="M0 0 C3 1 3 1 3 1 Z " fill="#000000" transform="translate(299,14)"/>
<path d="M0 0 C3 1 3 1 3 1 Z " fill="#1B0000" transform="translate(200,14)"/>
<path d="M0 0 C3 1 3 1 3 1 Z " fill="#1B0000" transform="translate(444,12)"/>
<path d="M0 0 C3 1 3 1 3 1 Z " fill="#1B0000" transform="translate(193,12)"/>
<path d="M0 0 C3 1 3 1 3 1 Z " fill="#1B0000" transform="translate(329,11)"/>
<path d="M0 0 C3 1 3 1 3 1 Z " fill="#1A0000" transform="translate(595,6)"/>
<path d="M0 0 C3 1 3 1 3 1 Z " fill="#1B0000" transform="translate(592,5)"/>
<path d="M0 0 C3 1 3 1 3 1 Z " fill="#1B0000" transform="translate(45,5)"/>
<path d="M0 0 C3 1 3 1 3 1 Z " fill="#000000" transform="translate(585,3)"/>
<path d="M0 0 C3 1 3 1 3 1 Z " fill="#1B0000" transform="translate(52,3)"/>
<path d="M0 0 C2 1 2 1 2 1 Z " fill="#000000" transform="translate(415,326)"/>
<path d="M0 0 C2 1 2 1 2 1 Z " fill="#000000" transform="translate(223,326)"/>
<path d="M0 0 C2 1 2 1 2 1 Z " fill="#280000" transform="translate(496,325)"/>
<path d="M0 0 C2 1 2 1 2 1 Z " fill="#000000" transform="translate(226,325)"/>
<path d="M0 0 C2 1 2 1 2 1 Z " fill="#290000" transform="translate(142,325)"/>
<path d="M0 0 C2 1 2 1 2 1 Z " fill="#280000" transform="translate(410,324)"/>
<path d="M0 0 C2 1 2 1 2 1 Z " fill="#280000" transform="translate(228,324)"/>
<path d="M0 0 C2 1 2 1 2 1 Z " fill="#000000" transform="translate(501,323)"/>
<path d="M0 0 C2 1 2 1 2 1 Z " fill="#000000" transform="translate(408,323)"/>
<path d="M0 0 C2 1 2 1 2 1 Z " fill="#000000" transform="translate(230,323)"/>
<path d="M0 0 C2 1 2 1 2 1 Z " fill="#000000" transform="translate(137,323)"/>
<path d="M0 0 C2 1 2 1 2 1 Z " fill="#280000" transform="translate(503,322)"/>
<path d="M0 0 C2 1 2 1 2 1 Z " fill="#000000" transform="translate(405,322)"/>
<path d="M0 0 C2 1 2 1 2 1 Z " fill="#000000" transform="translate(233,322)"/>
<path d="M0 0 C2 1 2 1 2 1 Z " fill="#280000" transform="translate(135,322)"/>
<path d="M0 0 C2 1 2 1 2 1 Z " fill="#000000" transform="translate(505,321)"/>
<path d="M0 0 C2 1 2 1 2 1 Z " fill="#000000" transform="translate(403,321)"/>
<path d="M0 0 C2 1 2 1 2 1 Z " fill="#000000" transform="translate(235,321)"/>
<path d="M0 0 C2 1 2 1 2 1 Z " fill="#000000" transform="translate(133,321)"/>
<path d="M0 0 C2 1 2 1 2 1 Z " fill="#000000" transform="translate(507,320)"/>
<path d="M0 0 C2 1 2 1 2 1 Z " fill="#000000" transform="translate(131,320)"/>
<path d="M0 0 C2 1 2 1 2 1 Z " fill="#000000" transform="translate(509,319)"/>
<path d="M0 0 C2 1 2 1 2 1 Z " fill="#280000" transform="translate(398,319)"/>
<path d="M0 0 C2 1 2 1 2 1 Z " fill="#280000" transform="translate(240,319)"/>
<path d="M0 0 C2 1 2 1 2 1 Z " fill="#000000" transform="translate(129,319)"/>
<path d="M0 0 C2 1 2 1 2 1 Z " fill="#000000" transform="translate(512,317)"/>
<path d="M0 0 C2 1 2 1 2 1 Z " fill="#280000" transform="translate(393,317)"/>
<path d="M0 0 C2 1 2 1 2 1 Z " fill="#280000" transform="translate(245,317)"/>
<path d="M0 0 C2 1 2 1 2 1 Z " fill="#000000" transform="translate(126,317)"/>
<path d="M0 0 C2 1 2 1 2 1 Z " fill="#000000" transform="translate(514,316)"/>
<path d="M0 0 C2 1 2 1 2 1 Z " fill="#000000" transform="translate(124,316)"/>
<path d="M0 0 C2 1 2 1 2 1 Z " fill="#000000" transform="translate(388,315)"/>
<path d="M0 0 C2 1 2 1 2 1 Z " fill="#000000" transform="translate(250,315)"/>
<path d="M0 0 C2 1 2 1 2 1 Z " fill="#000000" transform="translate(517,314)"/>
<path d="M0 0 C2 1 2 1 2 1 Z " fill="#290000" transform="translate(385,314)"/>
<path d="M0 0 C2 1 2 1 2 1 Z " fill="#290000" transform="translate(253,314)"/>
<path d="M0 0 C2 1 2 1 2 1 Z " fill="#000000" transform="translate(121,314)"/>
<path d="M0 0 C2 1 2 1 2 1 Z " fill="#000000" transform="translate(520,312)"/>
<path d="M0 0 C2 1 2 1 2 1 Z " fill="#280000" transform="translate(380,312)"/>
<path d="M0 0 C2 1 2 1 2 1 Z " fill="#280000" transform="translate(258,312)"/>
<path d="M0 0 C2 1 2 1 2 1 Z " fill="#000000" transform="translate(118,312)"/>
<path d="M0 0 C2 1 2 1 2 1 Z " fill="#290000" transform="translate(377,311)"/>
<path d="M0 0 C2 1 2 1 2 1 Z " fill="#290000" transform="translate(261,311)"/>
<path d="M0 0 C2 1 2 1 2 1 Z " fill="#000000" transform="translate(523,310)"/>
<path d="M0 0 C2 1 2 1 2 1 Z " fill="#000000" transform="translate(115,310)"/>
<path d="M0 0 C2 1 2 1 2 1 Z " fill="#000000" transform="translate(527,307)"/>
<path d="M0 0 C2 1 2 1 2 1 Z " fill="#000000" transform="translate(111,307)"/>
<path d="M0 0 C2 1 2 1 2 1 Z " fill="#290000" transform="translate(363,306)"/>
<path d="M0 0 C2 1 2 1 2 1 Z " fill="#290000" transform="translate(275,306)"/>
<path d="" fill="#000000" transform="translate(0,0)"/>
<path d="" fill="#000000" transform="translate(0,0)"/>
<path d="" fill="#000000" transform="translate(0,0)"/>
<path d="" fill="#000000" transform="translate(0,0)"/>
<path d="" fill="#000000" transform="translate(0,0)"/>
<path d="" fill="#000000" transform="translate(0,0)"/>
<path d="" fill="#370000" transform="translate(0,0)"/>
<path d="" fill="#370000" transform="translate(0,0)"/>
<path d="" fill="#280000" transform="translate(0,0)"/>
<path d="" fill="#280000" transform="translate(0,0)"/>
<path d="" fill="#280000" transform="translate(0,0)"/>
<path d="" fill="#280000" transform="translate(0,0)"/>
<path d="" fill="#370000" transform="translate(0,0)"/>
<path d="" fill="#280000" transform="translate(0,0)"/>
<path d="" fill="#000000" transform="translate(0,0)"/>
<path d="" fill="#000000" transform="translate(0,0)"/>
<path d="M0 0 C2 1 2 1 2 1 Z " fill="#290000" transform="translate(401,26)"/>
<path d="M0 0 C2 1 2 1 2 1 Z " fill="#290000" transform="translate(237,26)"/>
<path d="M0 0 C2 1 2 1 2 1 Z " fill="#290000" transform="translate(360,23)"/>
<path d="M0 0 C2 1 2 1 2 1 Z " fill="#290000" transform="translate(278,23)"/>
<path d="M0 0 C2 1 2 1 2 1 Z " fill="#000000" transform="translate(624,22)"/>
<path d="M0 0 C2 1 2 1 2 1 Z " fill="#000000" transform="translate(14,22)"/>
<path d="M0 0 C2 1 2 1 2 1 Z " fill="#290000" transform="translate(355,21)"/>
<path d="M0 0 C2 1 2 1 2 1 Z " fill="#290000" transform="translate(283,21)"/>
<path d="M0 0 C2 1 2 1 2 1 Z " fill="#000000" transform="translate(350,19)"/>
<path d="M0 0 C2 1 2 1 2 1 Z " fill="#000000" transform="translate(288,19)"/>
<path d="M0 0 C2 1 2 1 2 1 Z " fill="#000000" transform="translate(348,18)"/>
<path d="M0 0 C2 1 2 1 2 1 Z " fill="#000000" transform="translate(290,18)"/>
<path d="M0 0 C2 1 2 1 2 1 Z " fill="#280000" transform="translate(346,17)"/>
<path d="M0 0 C2 1 2 1 2 1 Z " fill="#280000" transform="translate(292,17)"/>
<path d="M0 0 C2 1 2 1 2 1 Z " fill="#000000" transform="translate(616,16)"/>
<path d="M0 0 C2 1 2 1 2 1 Z " fill="#000000" transform="translate(22,16)"/>
<path d="M0 0 C2 1 2 1 2 1 Z " fill="#000000" transform="translate(614,15)"/>
<path d="M0 0 C2 1 2 1 2 1 Z " fill="#000000" transform="translate(341,15)"/>
<path d="M0 0 C2 1 2 1 2 1 Z " fill="#000000" transform="translate(297,15)"/>
<path d="M0 0 C2 1 2 1 2 1 Z " fill="#000000" transform="translate(24,15)"/>
<path d="M0 0 C2 1 2 1 2 1 Z " fill="#000000" transform="translate(611,13)"/>
<path d="M0 0 C2 1 2 1 2 1 Z " fill="#290000" transform="translate(336,13)"/>
<path d="M0 0 C2 1 2 1 2 1 Z " fill="#290000" transform="translate(302,13)"/>
<path d="M0 0 C2 1 2 1 2 1 Z " fill="#000000" transform="translate(27,13)"/>
<path d="M0 0 C2 1 2 1 2 1 Z " fill="#280000" transform="translate(609,12)"/>
<path d="M0 0 C2 1 2 1 2 1 Z " fill="#290000" transform="translate(333,12)"/>
<path d="M0 0 C2 1 2 1 2 1 Z " fill="#290000" transform="translate(305,12)"/>
<path d="M0 0 C2 1 2 1 2 1 Z " fill="#000000" transform="translate(29,12)"/>
<path d="M0 0 C2 1 2 1 2 1 Z " fill="#280000" transform="translate(607,11)"/>
<path d="M0 0 C2 1 2 1 2 1 Z " fill="#000000" transform="translate(31,11)"/>
<path d="M0 0 C2 1 2 1 2 1 Z " fill="#280000" transform="translate(605,10)"/>
<path d="M0 0 C2 1 2 1 2 1 Z " fill="#280000" transform="translate(33,10)"/>
<path d="M0 0 C2 1 2 1 2 1 Z " fill="#000000" transform="translate(603,9)"/>
<path d="M0 0 C2 1 2 1 2 1 Z " fill="#000000" transform="translate(35,9)"/>
<path d="M0 0 C2 1 2 1 2 1 Z " fill="#000000" transform="translate(600,8)"/>
<path d="M0 0 C2 1 2 1 2 1 Z " fill="#000000" transform="translate(38,8)"/>
<path d="M0 0 C2 1 2 1 2 1 Z " fill="#290000" transform="translate(598,7)"/>
<path d="M0 0 C2 1 2 1 2 1 Z " fill="#290000" transform="translate(40,7)"/>
<path d="M0 0 C2 1 2 1 2 1 Z " fill="#290000" transform="translate(43,6)"/>
<path d="" fill="#000000" transform="translate(0,0)"/>
<path d="" fill="#000000" transform="translate(0,0)"/>
<path d="" fill="#000000" transform="translate(0,0)"/>
<path d="" fill="#000000" transform="translate(0,0)"/>
<path d="" fill="#000000" transform="translate(0,0)"/>
<path d="" fill="#000000" transform="translate(0,0)"/>
<path d="" fill="#000000" transform="translate(0,0)"/>
<path d="" fill="#000000" transform="translate(0,0)"/>
<path d="" fill="#000000" transform="translate(0,0)"/>
<path d="" fill="#000000" transform="translate(0,0)"/>
<path d="" fill="#000000" transform="translate(0,0)"/>
<path d="" fill="#000000" transform="translate(0,0)"/>
<path d="" fill="#000000" transform="translate(0,0)"/>
<path d="" fill="#000000" transform="translate(0,0)"/>
<path d="" fill="#000000" transform="translate(0,0)"/>
<path d="" fill="#000000" transform="translate(0,0)"/>
<path d="" fill="#000000" transform="translate(0,0)"/>
<path d="" fill="#000000" transform="translate(0,0)"/>
<path d="" fill="#000000" transform="translate(0,0)"/>
<path d="" fill="#000000" transform="translate(0,0)"/>
<path d="" fill="#000000" transform="translate(0,0)"/>
<path d="" fill="#000000" transform="translate(0,0)"/>
<path d="" fill="#000000" transform="translate(0,0)"/>
<path d="" fill="#000000" transform="translate(0,0)"/>
<path d="" fill="#000000" transform="translate(0,0)"/>
<path d="" fill="#000000" transform="translate(0,0)"/>
<path d="" fill="#000000" transform="translate(0,0)"/>
<path d="" fill="#000000" transform="translate(0,0)"/>
<path d="" fill="#4E0000" transform="translate(0,0)"/>
<path d="" fill="#4E0000" transform="translate(0,0)"/>
<path d="" fill="#4D0000" transform="translate(0,0)"/>
<path d="" fill="#4C0000" transform="translate(0,0)"/>
<path d="" fill="#3F0000" transform="translate(0,0)"/>
<path d="" fill="#3D0000" transform="translate(0,0)"/>
<path d="" fill="#000000" transform="translate(0,0)"/>
<path d="" fill="#3D0000" transform="translate(0,0)"/>
<path d="" fill="#3F0000" transform="translate(0,0)"/>
<path d="" fill="#3D0000" transform="translate(0,0)"/>
<path d="" fill="#4C0000" transform="translate(0,0)"/>
<path d="" fill="#4C0000" transform="translate(0,0)"/>
<path d="" fill="#4C0000" transform="translate(0,0)"/>
<path d="" fill="#4C0000" transform="translate(0,0)"/>
<path d="" fill="#4F0000" transform="translate(0,0)"/>
<path d="" fill="#4F0000" transform="translate(0,0)"/>
<path d="" fill="#000000" transform="translate(0,0)"/>
<path d="" fill="#000000" transform="translate(0,0)"/>
<path d="" fill="#000000" transform="translate(0,0)"/>
<path d="" fill="#000000" transform="translate(0,0)"/>
<path d="" fill="#000000" transform="translate(0,0)"/>
<path d="" fill="#000000" transform="translate(0,0)"/>
<path d="" fill="#000000" transform="translate(0,0)"/>
<path d="" fill="#000000" transform="translate(0,0)"/>
<path d="" fill="#000000" transform="translate(0,0)"/>
<path d="" fill="#000000" transform="translate(0,0)"/>
<path d="" fill="#000000" transform="translate(0,0)"/>
<path d="" fill="#000000" transform="translate(0,0)"/>
<path d="" fill="#4E0000" transform="translate(0,0)"/>
<path d="" fill="#4E0000" transform="translate(0,0)"/>
<path d="" fill="#4C0000" transform="translate(0,0)"/>
<path d="" fill="#4C0000" transform="translate(0,0)"/>
<path d="" fill="#4C0000" transform="translate(0,0)"/>
<path d="" fill="#4C0000" transform="translate(0,0)"/>
<path d="" fill="#4E0000" transform="translate(0,0)"/>
<path d="" fill="#4E0000" transform="translate(0,0)"/>
<path d="" fill="#000000" transform="translate(0,0)"/>
<path d="" fill="#000000" transform="translate(0,0)"/>
<path d="" fill="#000000" transform="translate(0,0)"/>
<path d="" fill="#000000" transform="translate(0,0)"/>
<path d="" fill="#000000" transform="translate(0,0)"/>
<path d="" fill="#000000" transform="translate(0,0)"/>
<path d="" fill="#000000" transform="translate(0,0)"/>
<path d="" fill="#000000" transform="translate(0,0)"/>
<path d="" fill="#000000" transform="translate(0,0)"/>
<path d="" fill="#000000" transform="translate(0,0)"/>
<path d="" fill="#000000" transform="translate(0,0)"/>
<path d="" fill="#000000" transform="translate(0,0)"/>
<path d="" fill="#000000" transform="translate(0,0)"/>
<path d="" fill="#000000" transform="translate(0,0)"/>
<path d="" fill="#000000" transform="translate(0,0)"/>
<path d="" fill="#000000" transform="translate(0,0)"/>
</svg>
